<svg width="24" height="24" viewBox="0 0 24 24" fill="none" xmlns="http://www.w3.org/2000/svg">
<path opacity="0.35" d="M4.74658 7.28516H17.0767C18.4787 7.28516 19.6157 8.42216 19.6157 9.82422V13.4512C19.6155 14.8531 18.4786 15.9893 17.0767 15.9893H4.74658C3.34464 15.9893 2.20771 14.8531 2.20752 13.4512V9.82422C2.20752 8.42216 3.34452 7.28516 4.74658 7.28516Z" stroke="white" stroke-width="0.72533" stroke-linecap="round"/>
<path opacity="0.4" d="M20.7039 10.5496V13.6107C21.3197 13.3514 21.7202 12.7483 21.7202 12.0801C21.7202 11.4119 21.3197 10.8088 20.7039 10.5496Z" fill="white"/>
<path d="M3.2959 9.82371C3.2959 9.02253 3.94538 8.37305 4.74656 8.37305H6.84524C7.64642 8.37305 8.2959 9.02253 8.2959 9.82371V13.4504C8.2959 14.2515 7.64642 14.901 6.84524 14.901H4.74656C3.94538 14.901 3.2959 14.2515 3.2959 13.4504V9.82371Z" fill="white"/>
</svg>
