<svg width="24" height="24" viewBox="0 0 24 24" fill="none" xmlns="http://www.w3.org/2000/svg">
<path d="M4.59107 18.1351H19.4091C20.3636 18.1351 20.9475 17.6098 20.9475 16.8218C20.9475 15.8274 20.0578 14.9737 19.2238 14.167C18.5658 13.5197 18.4176 12.1689 18.2971 10.9212C18.1488 7.4878 17.1572 5.06754 14.7571 4.19512C14.3771 2.95685 13.367 2 11.9955 2C10.6332 2 9.6231 2.95685 9.23388 4.19512C6.84297 5.06754 5.84213 7.4878 5.70312 10.9212C5.58265 12.1689 5.42511 13.5197 4.77641 14.167C3.94237 14.9737 3.05273 15.8274 3.05273 16.8218C3.05273 17.6098 3.63656 18.1351 4.59107 18.1351ZM11.9955 22C13.645 22 14.8405 20.8086 14.9609 19.4484H9.03927C9.15974 20.8086 10.3552 22 11.9955 22Z" fill="white"/>
</svg>
