<svg width="24" height="24" viewBox="0 0 24 24" fill="none" xmlns="http://www.w3.org/2000/svg">
<mask id="mask0_20_1072" style="mask-type:alpha" maskUnits="userSpaceOnUse" x="0" y="0" width="24" height="24">
<rect width="24" height="24" fill="#D9D9D9"/>
</mask>
<g mask="url(#mask0_20_1072)">
<path d="M11 20.5749V14.3999L7.10005 18.2999C6.91672 18.4832 6.68338 18.5749 6.40005 18.5749C6.11672 18.5749 5.88338 18.4832 5.70005 18.2999C5.51672 18.1166 5.42505 17.8832 5.42505 17.5999C5.42505 17.3166 5.51672 17.0832 5.70005 16.8999L10.6 11.9999L5.70005 7.0999C5.51672 6.91657 5.42505 6.68324 5.42505 6.3999C5.42505 6.11657 5.51672 5.88324 5.70005 5.6999C5.88338 5.51657 6.11672 5.4249 6.40005 5.4249C6.68338 5.4249 6.91672 5.51657 7.10005 5.6999L11 9.5999V3.4249C11 3.1249 11.1 2.87907 11.3 2.6874C11.5 2.49574 11.7334 2.3999 12 2.3999C12.1334 2.3999 12.2584 2.4249 12.375 2.4749C12.4917 2.5249 12.6 2.5999 12.7 2.6999L17 6.9999C17.1 7.0999 17.1709 7.20824 17.2125 7.3249C17.2542 7.44157 17.275 7.56657 17.275 7.6999C17.275 7.83324 17.2542 7.95824 17.2125 8.0749C17.1709 8.19157 17.1 8.2999 17 8.3999L13.4 11.9999L17 15.5999C17.1 15.6999 17.1709 15.8082 17.2125 15.9249C17.2542 16.0416 17.275 16.1666 17.275 16.2999C17.275 16.4332 17.2542 16.5582 17.2125 16.6749C17.1709 16.7916 17.1 16.8999 17 16.9999L12.7 21.2999C12.6 21.3999 12.4917 21.4749 12.375 21.5249C12.2584 21.5749 12.1334 21.5999 12 21.5999C11.7334 21.5999 11.5 21.5041 11.3 21.3124C11.1 21.1207 11 20.8749 11 20.5749ZM13 9.5999L14.9 7.6999L13 5.8499V9.5999ZM13 18.1499L14.9 16.2999L13 14.3999V18.1499Z" fill="white"/>
</g>
</svg>
