<svg width="24" height="24" viewBox="0 0 24 24" fill="none" xmlns="http://www.w3.org/2000/svg">
<mask id="mask0_47_2638" style="mask-type:alpha" maskUnits="userSpaceOnUse" x="0" y="0" width="24" height="24">
<rect width="24" height="24" fill="#D9D9D9"/>
</mask>
<g mask="url(#mask0_47_2638)">
<path d="M11 18.15V15C11 14.7167 11.0959 14.4792 11.2875 14.2875C11.4792 14.0959 11.7167 14 12 14C12.2834 14 12.5209 14.0959 12.7125 14.2875C12.9042 14.4792 13 14.7167 13 15V18.125L14.075 17.025C14.275 16.825 14.5167 16.725 14.8 16.725C15.0834 16.725 15.325 16.825 15.525 17.025C15.725 17.225 15.825 17.4667 15.825 17.75C15.825 18.0334 15.725 18.2751 15.525 18.475L12.7 21.3C12.6 21.4 12.4917 21.4709 12.375 21.5125C12.2584 21.5542 12.1334 21.575 12 21.575C11.8667 21.575 11.7417 21.5542 11.625 21.5125C11.5084 21.4709 11.4 21.4 11.3 21.3L8.45005 18.45C8.25005 18.25 8.15422 18.0125 8.16255 17.7375C8.17088 17.4625 8.27505 17.225 8.47505 17.025C8.67505 16.825 8.91255 16.725 9.18755 16.725C9.46255 16.725 9.70005 16.825 9.90005 17.025L11 18.15ZM5.87505 13L6.97505 14.075C7.17505 14.275 7.27505 14.5167 7.27505 14.8C7.27505 15.0834 7.17505 15.325 6.97505 15.525C6.77505 15.725 6.53338 15.825 6.25005 15.825C5.96672 15.825 5.72505 15.725 5.52505 15.525L2.70005 12.7C2.60005 12.6 2.52922 12.4917 2.48755 12.375C2.44588 12.2584 2.42505 12.1334 2.42505 12C2.42505 11.8667 2.44588 11.7417 2.48755 11.625C2.52922 11.5084 2.60005 11.4 2.70005 11.3L5.52505 8.47505C5.72505 8.27505 5.96255 8.17505 6.23755 8.17505C6.51255 8.17505 6.75005 8.27505 6.95005 8.47505C7.15005 8.67505 7.25005 8.91255 7.25005 9.18755C7.25005 9.46255 7.15005 9.70005 6.95005 9.90005L5.85005 11H9.00005C9.28338 11 9.52088 11.0959 9.71255 11.2875C9.90422 11.4792 10 11.7167 10 12C10 12.2834 9.90422 12.5209 9.71255 12.7125C9.52088 12.9042 9.28338 13 9.00005 13H5.87505ZM18.15 13H15C14.7167 13 14.4792 12.9042 14.2875 12.7125C14.0959 12.5209 14 12.2834 14 12C14 11.7167 14.0959 11.4792 14.2875 11.2875C14.4792 11.0959 14.7167 11 15 11H18.125L17.025 9.92505C16.825 9.72505 16.725 9.48338 16.725 9.20005C16.725 8.91672 16.825 8.67505 17.025 8.47505C17.225 8.27505 17.4667 8.17505 17.75 8.17505C18.0334 8.17505 18.2751 8.27505 18.475 8.47505L21.3 11.3C21.4 11.4 21.4709 11.5084 21.5125 11.625C21.5542 11.7417 21.575 11.8667 21.575 12C21.575 12.1334 21.5542 12.2584 21.5125 12.375C21.4709 12.4917 21.4 12.6 21.3 12.7L18.45 15.55C18.25 15.75 18.0167 15.8459 17.75 15.8375C17.4834 15.8292 17.25 15.725 17.05 15.525C16.85 15.325 16.75 15.0875 16.75 14.8125C16.75 14.5375 16.85 14.3 17.05 14.1L18.15 13ZM11 5.85005L9.87505 6.97505C9.67505 7.17505 9.44172 7.27505 9.17505 7.27505C8.90838 7.27505 8.67505 7.17505 8.47505 6.97505C8.27505 6.77505 8.17505 6.53755 8.17505 6.26255C8.17505 5.98755 8.27505 5.75005 8.47505 5.55005L11.3 2.70005C11.4 2.60005 11.5084 2.52922 11.625 2.48755C11.7417 2.44588 11.8667 2.42505 12 2.42505C12.1334 2.42505 12.2584 2.44588 12.375 2.48755C12.4917 2.52922 12.6 2.60005 12.7 2.70005L15.55 5.55005C15.75 5.75005 15.85 5.98338 15.85 6.25005C15.85 6.51672 15.75 6.75005 15.55 6.95005C15.35 7.15005 15.1125 7.25005 14.8375 7.25005C14.5625 7.25005 14.325 7.15005 14.125 6.95005L13 5.85005V9.00005C13 9.28338 12.9042 9.52088 12.7125 9.71255C12.5209 9.90422 12.2834 10 12 10C11.7167 10 11.4792 9.90422 11.2875 9.71255C11.0959 9.52088 11 9.28338 11 9.00005V5.85005Z" fill="white"/>
</g>
</svg>
