<svg width="24" height="24" viewBox="0 0 24 24" fill="none" xmlns="http://www.w3.org/2000/svg">
<mask id="mask0_47_2640" style="mask-type:alpha" maskUnits="userSpaceOnUse" x="0" y="0" width="24" height="24">
<rect width="24" height="24" fill="#D9D9D9"/>
</mask>
<g mask="url(#mask0_47_2640)">
<path d="M13 18.825V22C13 22.2833 12.9042 22.5208 12.7125 22.7125C12.5208 22.9042 12.2833 23 12 23C11.7167 23 11.4792 22.9042 11.2875 22.7125C11.0958 22.5208 11 22.2833 11 22V18.825L10.6 19.225C10.4167 19.4083 10.1875 19.5 9.9125 19.5C9.6375 19.5 9.4 19.4 9.2 19.2C9.01667 19.0167 8.925 18.7833 8.925 18.5C8.925 18.2167 9.01667 17.9833 9.2 17.8L11.3 15.7C11.5 15.5 11.7333 15.4 12 15.4C12.2667 15.4 12.5 15.5 12.7 15.7L14.8 17.8C14.9833 17.9833 15.0792 18.2125 15.0875 18.4875C15.0958 18.7625 15 19 14.8 19.2C14.6167 19.3833 14.3875 19.4792 14.1125 19.4875C13.8375 19.4958 13.6 19.4083 13.4 19.225L13 18.825ZM5.175 13H2C1.71667 13 1.47917 12.9042 1.2875 12.7125C1.09583 12.5208 1 12.2833 1 12C1 11.7167 1.09583 11.4792 1.2875 11.2875C1.47917 11.0958 1.71667 11 2 11H5.175L4.775 10.6C4.59167 10.4167 4.5 10.1875 4.5 9.9125C4.5 9.6375 4.6 9.4 4.8 9.2C4.98333 9.01667 5.21667 8.925 5.5 8.925C5.78333 8.925 6.01667 9.01667 6.2 9.2L8.3 11.3C8.5 11.5 8.6 11.7333 8.6 12C8.6 12.2667 8.5 12.5 8.3 12.7L6.2 14.8C6.01667 14.9833 5.7875 15.0792 5.5125 15.0875C5.2375 15.0958 5 15 4.8 14.8C4.61667 14.6167 4.52083 14.3875 4.5125 14.1125C4.50417 13.8375 4.59167 13.6 4.775 13.4L5.175 13ZM18.825 13L19.225 13.4C19.4083 13.5833 19.5 13.8125 19.5 14.0875C19.5 14.3625 19.4 14.6 19.2 14.8C19.0167 14.9833 18.7833 15.075 18.5 15.075C18.2167 15.075 17.9833 14.9833 17.8 14.8L15.7 12.7C15.5 12.5 15.4 12.2667 15.4 12C15.4 11.7333 15.5 11.5 15.7 11.3L17.8 9.2C17.9833 9.01667 18.2125 8.92083 18.4875 8.9125C18.7625 8.90417 19 9 19.2 9.2C19.3833 9.38333 19.4792 9.6125 19.4875 9.8875C19.4958 10.1625 19.4083 10.4 19.225 10.6L18.825 11H22C22.2833 11 22.5208 11.0958 22.7125 11.2875C22.9042 11.4792 23 11.7167 23 12C23 12.2833 22.9042 12.5208 22.7125 12.7125C22.5208 12.9042 22.2833 13 22 13H18.825ZM12 13.5C11.5833 13.5 11.2292 13.3542 10.9375 13.0625C10.6458 12.7708 10.5 12.4167 10.5 12C10.5 11.5833 10.6458 11.2292 10.9375 10.9375C11.2292 10.6458 11.5833 10.5 12 10.5C12.4167 10.5 12.7708 10.6458 13.0625 10.9375C13.3542 11.2292 13.5 11.5833 13.5 12C13.5 12.4167 13.3542 12.7708 13.0625 13.0625C12.7708 13.3542 12.4167 13.5 12 13.5ZM11 5.175V2C11 1.71667 11.0958 1.47917 11.2875 1.2875C11.4792 1.09583 11.7167 1 12 1C12.2833 1 12.5208 1.09583 12.7125 1.2875C12.9042 1.47917 13 1.71667 13 2V5.175L13.4 4.775C13.5833 4.59167 13.8125 4.5 14.0875 4.5C14.3625 4.5 14.6 4.6 14.8 4.8C14.9833 4.98333 15.075 5.21667 15.075 5.5C15.075 5.78333 14.9833 6.01667 14.8 6.2L12.7 8.3C12.5 8.5 12.2667 8.6 12 8.6C11.7333 8.6 11.5 8.5 11.3 8.3L9.2 6.2C9.01667 6.01667 8.92083 5.7875 8.9125 5.5125C8.90417 5.2375 9 5 9.2 4.8C9.38333 4.61667 9.6125 4.52083 9.8875 4.5125C10.1625 4.50417 10.4 4.59167 10.6 4.775L11 5.175Z" fill="white"/>
</g>
</svg>
