<svg width="24" height="24" viewBox="0 0 24 24" fill="none" xmlns="http://www.w3.org/2000/svg">
<path d="M11.0592 23H12.9511C13.5714 23 14.0367 22.6278 14.1711 22.0179L14.688 19.8365C15.0395 19.7124 15.3703 19.578 15.6805 19.4333L17.593 20.6118C18.0996 20.9323 18.7096 20.8806 19.1335 20.4568L20.4671 19.1231C20.891 18.6992 20.953 18.0686 20.6118 17.5517L19.4436 15.6598C19.5883 15.3496 19.7227 15.0188 19.8261 14.6983L22.0282 14.1814C22.6382 14.047 23 13.5818 23 12.9615V11.1006C23 10.4906 22.6382 10.015 22.0282 9.88064L19.8468 9.35338C19.7331 8.99154 19.5883 8.67105 19.4643 8.39192L20.6325 6.45865C20.9633 5.93139 20.922 5.34211 20.4774 4.90789L19.1335 3.57425C18.6992 3.18139 18.1513 3.10902 17.6241 3.3985L15.6805 4.59774C15.3806 4.45301 15.0498 4.31861 14.6983 4.19455L14.1711 1.98214C14.0367 1.37218 13.5714 1 12.9511 1H11.0592C10.4286 1 9.96335 1.37218 9.82895 1.98214L9.31203 4.18421C8.96053 4.29793 8.61936 4.43233 8.30921 4.58741L6.37594 3.3985C5.84868 3.10902 5.31109 3.17105 4.86654 3.57425L3.52256 4.90789C3.07801 5.34211 3.03665 5.93139 3.36748 6.45865L4.53571 8.39192C4.41165 8.67105 4.27726 8.99154 4.1532 9.35338L1.9718 9.88064C1.36184 10.015 1 10.4906 1 11.1006V12.9615C1 13.5818 1.36184 14.047 1.9718 14.1814L4.17387 14.6983C4.27726 15.0188 4.41165 15.3496 4.55639 15.6598L3.38816 17.5517C3.04699 18.0686 3.10902 18.6992 3.54323 19.1231L4.86654 20.4568C5.29041 20.8806 5.90038 20.9323 6.41729 20.6118L8.31955 19.4333C8.6297 19.578 8.96053 19.7124 9.31203 19.8365L9.82895 22.0179C9.96335 22.6278 10.4286 23 11.0592 23ZM12 15.6184C10.015 15.6184 8.39192 13.985 8.39192 11.9897C8.39192 10.015 10.015 8.39192 12 8.39192C13.9953 8.39192 15.6184 10.015 15.6184 11.9897C15.6184 13.985 13.9953 15.6184 12 15.6184Z" fill="white"/>
</svg>
