<svg width="24" height="24" viewBox="0 0 24 24" fill="none" xmlns="http://www.w3.org/2000/svg">
<mask id="mask0_20_1069" style="mask-type:alpha" maskUnits="userSpaceOnUse" x="0" y="0" width="24" height="24">
<rect width="24" height="24" fill="#D9D9D9"/>
</mask>
<g mask="url(#mask0_20_1069)">
<path d="M12.0001 7C10.5334 7 9.10427 7.22917 7.7126 7.6875C6.32093 8.14583 5.04176 8.825 3.8751 9.725C3.54176 9.99167 3.1626 10.1208 2.7376 10.1125C2.3126 10.1042 1.9501 9.95 1.6501 9.65C1.36676 9.36667 1.2251 9.01667 1.2251 8.6C1.2251 8.18333 1.39176 7.85 1.7251 7.6C3.19176 6.43333 4.80426 5.54167 6.5626 4.925C8.32093 4.30833 10.1334 4 12.0001 4C13.8834 4 15.7001 4.30833 17.4501 4.925C19.2001 5.54167 20.8084 6.43333 22.2751 7.6C22.6084 7.85 22.7751 8.18333 22.7751 8.6C22.7751 9.01667 22.6334 9.36667 22.3501 9.65C22.0501 9.95 21.6876 10.1042 21.2626 10.1125C20.8376 10.1208 20.4584 9.99167 20.1251 9.725C18.9584 8.825 17.6834 8.14583 16.3001 7.6875C14.9168 7.22917 13.4834 7 12.0001 7ZM12.0001 13C11.3168 13 10.6543 13.0875 10.0126 13.2625C9.37093 13.4375 8.75843 13.7 8.1751 14.05C7.80843 14.2833 7.4126 14.3917 6.9876 14.375C6.5626 14.3583 6.2001 14.2 5.9001 13.9C5.61676 13.6167 5.47926 13.2708 5.4876 12.8625C5.49593 12.4542 5.66676 12.1333 6.0001 11.9C6.88343 11.2833 7.83343 10.8125 8.8501 10.4875C9.86677 10.1625 10.9168 10 12.0001 10C13.0834 10 14.1334 10.1625 15.1501 10.4875C16.1668 10.8125 17.1168 11.2833 18.0001 11.9C18.3334 12.1333 18.5043 12.4542 18.5126 12.8625C18.5209 13.2708 18.3834 13.6167 18.1001 13.9C17.8001 14.2 17.4376 14.3583 17.0126 14.375C16.5876 14.3917 16.1918 14.2833 15.8251 14.05C15.2418 13.7 14.6293 13.4375 13.9876 13.2625C13.3459 13.0875 12.6834 13 12.0001 13ZM10.5876 19.4125C10.1959 19.0208 10.0001 18.55 10.0001 18C10.0001 17.45 10.1959 16.9792 10.5876 16.5875C10.9793 16.1958 11.4501 16 12.0001 16C12.5501 16 13.0209 16.1958 13.4126 16.5875C13.8043 16.9792 14.0001 17.45 14.0001 18C14.0001 18.55 13.8043 19.0208 13.4126 19.4125C13.0209 19.8042 12.5501 20 12.0001 20C11.4501 20 10.9793 19.8042 10.5876 19.4125Z" fill="white"/>
</g>
</svg>
