<svg width="120" height="150" viewBox="0 0 120 150" fill="none" xmlns="http://www.w3.org/2000/svg">
<path d="M71.0065 148.393H70.9738C70.6886 148.37 70.4806 148.128 70.5039 147.854C71.2987 138.091 70.2001 132.681 69.3188 128.333C68.7975 125.766 68.3486 123.548 68.3486 120.958C68.3486 118.298 68.6736 115.636 68.9891 113.062C69.3001 110.509 69.6203 107.877 69.6227 105.285C69.6227 104.285 69.5759 103.264 69.5291 102.278C69.4637 100.858 69.3959 99.414 69.4567 97.9818C69.4917 97.1681 69.5806 96.3124 69.9803 95.5591C70.8756 93.8735 72.7317 93.4341 74.527 93.0086C75.3125 92.8226 76.1237 92.6319 76.8179 92.339C77.9026 91.8809 79.899 90.6115 81.0725 87.2448C81.6779 85.5173 81.9374 83.6434 82.1875 81.8322C82.26 81.309 82.3348 80.7696 82.4166 80.2349C82.821 77.6308 83.6883 74.4362 84.9927 70.7418C85.0371 70.6162 85.1283 70.5139 85.2499 70.4558C85.3714 70.3977 85.5093 70.3907 85.6356 70.4349C85.7618 70.479 85.8623 70.5697 85.9208 70.6883C85.9792 70.8092 85.9862 70.9464 85.9418 71.0719C84.6561 74.7106 83.8052 77.8447 83.4125 80.386C83.3353 80.8743 83.2675 81.3741 83.1997 81.8577L83.188 81.9438C82.9286 83.8224 82.6621 85.7452 82.0239 87.568C80.7218 91.2974 78.4496 92.7319 77.2107 93.2527C76.4369 93.5805 75.5837 93.7805 74.7608 93.9758C73.1104 94.3664 71.5536 94.7337 70.871 96.0195C70.5811 96.5682 70.4969 97.2146 70.4619 98.0213C70.4011 99.4117 70.4665 100.832 70.532 102.206C70.5788 103.222 70.6278 104.255 70.6278 105.278C70.6278 107.931 70.3029 110.595 69.9873 113.171C69.6764 115.729 69.3538 118.361 69.3538 120.951C69.3538 123.443 69.7933 125.615 70.3029 128.128C71.1982 132.536 72.311 138.021 71.5068 147.928C71.4858 148.186 71.266 148.388 71.0065 148.388V148.393ZM71.1398 140.869C71.1585 142.934 71.0813 145.252 70.8663 147.884C70.8663 147.889 70.8663 147.891 70.8663 147.896H71.1468C71.3619 145.259 71.439 142.939 71.4203 140.867H71.1398V140.869ZM68.7133 120.797C68.7133 120.851 68.7133 120.907 68.7133 120.96C68.7133 123.515 69.1598 125.717 69.6764 128.265C69.8354 129.051 70.0037 129.872 70.1626 130.746L70.4385 130.697C70.2772 129.821 70.1089 128.998 69.9499 128.21C69.4356 125.678 68.9915 123.492 68.9915 120.962C68.9915 120.909 68.9915 120.855 68.9915 120.802H68.711L68.7133 120.797ZM69.985 105.429H70.2655C70.2655 105.382 70.2655 105.334 70.2655 105.285H69.985C69.985 105.331 69.985 105.38 69.985 105.429ZM69.8237 97.9446C69.8237 97.9632 69.8237 97.9818 69.8214 98.0004C69.7956 98.6003 69.791 99.2025 69.8027 99.8023L70.0808 99.7977C70.0715 99.2001 70.0738 98.6049 70.0995 98.012C70.0995 97.9934 70.0995 97.9748 70.1019 97.9586L69.8237 97.9446ZM69.8401 97.647L70.1182 97.6656C70.165 97.003 70.2632 96.4426 70.5086 95.9404L70.2585 95.8172C69.9827 96.3822 69.8845 97.0193 69.8401 97.647ZM70.3684 95.6126L70.6115 95.7521C71.3923 94.4106 72.9912 94.0316 74.679 93.6317C75.2517 93.4968 75.8385 93.3573 76.3972 93.176L76.299 92.9156C75.7543 93.0923 75.1769 93.2271 74.6135 93.362C72.9398 93.7572 71.2123 94.1664 70.3684 95.6126ZM76.3013 92.9156L76.3691 93.0481L76.3224 92.9063C76.3224 92.9063 76.3083 92.9109 76.299 92.9132L76.3013 92.9156ZM77.5777 92.3692L77.7156 92.611C78.9335 91.9251 80.6283 90.4696 81.6803 87.4587C82.3068 85.6685 82.5709 83.7643 82.8257 81.9228L82.8397 81.8136C82.8561 81.6996 82.8725 81.5834 82.8888 81.4671L82.613 81.4276C82.5919 81.5811 82.5709 81.7322 82.5499 81.881C82.2974 83.7108 82.0332 85.6034 81.4184 87.3634C80.3946 90.2976 78.7535 91.7042 77.58 92.3669L77.5777 92.3692ZM82.7649 80.3813L83.0408 80.4232C83.0454 80.393 83.0501 80.3651 83.0548 80.3348C83.1273 79.8652 83.2161 79.3769 83.319 78.8677L83.0455 78.8119C82.9403 79.3258 82.8514 79.8187 82.779 80.293C82.7743 80.3232 82.7696 80.3511 82.7649 80.3813ZM85.3293 70.8882L85.5935 70.9812C85.5935 70.9812 85.5982 70.965 85.6028 70.958C85.6145 70.9208 85.6145 70.8859 85.5982 70.851C85.5818 70.8162 85.5538 70.7929 85.5187 70.779C85.4836 70.765 85.4462 70.7673 85.4112 70.7836C85.3784 70.7999 85.3527 70.8278 85.3387 70.8627L85.3293 70.8859V70.8882Z" fill="#9E9E9E"/>
<path d="M49.9325 148.228C49.7666 148.228 49.6263 148.1 49.6123 147.935C48.8081 138.059 49.9185 132.583 50.8115 128.186C51.3235 125.661 51.7653 123.483 51.7653 120.974C51.7653 118.37 51.4427 115.729 51.1318 113.176C50.8185 110.605 50.4936 107.942 50.4936 105.301C50.4936 104.276 50.5427 103.241 50.5894 102.239C50.6549 100.856 50.7203 99.4305 50.6596 98.0355C50.6222 97.2078 50.5357 96.5358 50.2294 95.9592C49.5094 94.6014 47.9128 94.2248 46.2227 93.8249C45.4045 93.6319 44.5606 93.4319 43.8009 93.1111C42.59 92.5996 40.3692 91.1953 39.0882 87.5333C38.457 85.7291 38.1929 83.8156 37.9357 81.9672V81.9486C37.8609 81.4324 37.7884 80.9 37.7066 80.3815C37.3116 77.8287 36.456 74.6829 35.1679 71.0349C35.1399 70.9535 35.1446 70.8675 35.182 70.7908C35.2194 70.7141 35.2848 70.6559 35.3643 70.628C35.4461 70.6001 35.5326 70.6048 35.6098 70.642C35.6869 70.6792 35.7453 70.7443 35.7734 70.8233C37.0755 74.5108 37.9381 77.6938 38.3401 80.2862C38.4219 80.821 38.4968 81.3604 38.5692 81.8812C38.8217 83.7017 39.0835 85.5826 39.6936 87.3264C40.8928 90.7558 42.9383 92.0555 44.051 92.5252C44.7593 92.8251 45.5752 93.0181 46.3653 93.2041C48.1255 93.6203 49.9419 94.0504 50.7975 95.664C51.1809 96.387 51.2673 97.2194 51.3001 98.0122C51.3632 99.4352 51.2954 100.877 51.2299 102.269C51.1832 103.269 51.1341 104.297 51.1341 105.306C51.1341 107.91 51.4567 110.551 51.7676 113.104C52.0808 115.678 52.4058 118.338 52.4058 120.979C52.4058 123.553 51.957 125.761 51.438 128.319C50.5544 132.678 49.4533 138.103 50.2481 147.889C50.2622 148.065 50.1312 148.219 49.9536 148.233H49.9279L49.9325 148.228ZM49.9325 147.91C49.3271 140.458 49.8157 135.522 50.4749 131.665C49.8157 135.524 49.3271 140.458 49.9349 147.91H49.9325ZM50.9775 100.723C50.9588 101.235 50.9354 101.746 50.912 102.248C50.8653 103.251 50.8162 104.283 50.8162 105.301C50.8162 104.285 50.8653 103.253 50.912 102.253C50.9354 101.749 50.9588 101.237 50.9775 100.723ZM50.9775 100.716C50.9775 100.716 50.9775 100.721 50.9775 100.723C50.9775 100.723 50.9775 100.719 50.9775 100.716ZM50.4538 95.6988C50.4749 95.736 50.4959 95.7709 50.5146 95.8081C50.5286 95.8337 50.5427 95.8616 50.5544 95.8872C50.5403 95.8616 50.5286 95.8337 50.5146 95.8081C50.4959 95.7709 50.4749 95.7337 50.4538 95.6988ZM44.6798 93.0925C44.6798 93.0925 44.6798 93.0925 44.6822 93.0925C44.6822 93.0925 44.6822 93.0925 44.6798 93.0925ZM41.1149 90.6256C42.1318 91.8904 43.2141 92.5182 43.9271 92.8181C44.1679 92.9204 44.4204 93.0088 44.6798 93.0901C44.4204 93.0088 44.1679 92.9181 43.9271 92.8181C43.2118 92.5159 42.1295 91.8881 41.1149 90.6256ZM38.1414 81.1139C38.1788 81.3813 38.2162 81.6464 38.2536 81.9068V81.923C38.3191 82.3787 38.3822 82.8391 38.4523 83.3018C38.3822 82.8414 38.3191 82.3811 38.256 81.923C38.2186 81.6557 38.1812 81.386 38.1414 81.1139ZM35.4718 70.928C36.3227 73.3413 36.9866 75.5339 37.4542 77.4869C36.9866 75.5362 36.3227 73.3413 35.4718 70.928Z" fill="#9E9E9E"/>
<path d="M49.9325 148.41C49.6731 148.41 49.4533 148.207 49.4323 147.952C48.6258 138.047 49.7408 132.56 50.6362 128.152C51.1458 125.638 51.5876 123.467 51.5876 120.974C51.5876 118.382 51.265 115.75 50.9564 113.202C50.6408 110.614 50.3159 107.952 50.3159 105.301C50.3159 104.281 50.3627 103.248 50.4094 102.248C50.4749 100.844 50.5403 99.4259 50.4795 98.0425C50.4445 97.238 50.3603 96.5893 50.0705 96.0406C49.3902 94.7549 47.831 94.3875 46.1829 93.9969C45.3554 93.8016 44.5022 93.5993 43.7307 93.2738C42.4918 92.7507 40.2219 91.3162 38.9175 87.5891C38.2817 85.771 38.0152 83.8482 37.758 81.9905C37.6809 81.4418 37.6084 80.9163 37.529 80.4048C37.1339 77.8635 36.283 74.7294 34.9973 71.0884C34.9529 70.9629 34.9599 70.8257 35.0183 70.7048C35.0744 70.5839 35.1773 70.4932 35.3058 70.449C35.4344 70.4048 35.57 70.4118 35.6916 70.4699C35.8131 70.5257 35.9043 70.6281 35.9487 70.7559C37.2554 74.4551 38.1227 77.6496 38.5248 80.2514C38.6066 80.7861 38.6838 81.3255 38.7539 81.8486C39.0063 83.6645 39.2658 85.5361 39.8689 87.259C41.0448 90.6233 43.0411 91.8928 44.1258 92.3531C44.8201 92.6461 45.6289 92.8367 46.412 93.0227C48.2097 93.4482 50.0681 93.8876 50.9634 95.5733C51.3632 96.3289 51.452 97.1845 51.4871 97.996C51.5502 99.4259 51.4824 100.87 51.4169 102.265C51.3702 103.264 51.3211 104.292 51.3211 105.299C51.3211 107.894 51.6437 110.528 51.9546 113.074C52.2702 115.657 52.5951 118.321 52.5951 120.972C52.5951 123.562 52.1463 125.778 51.625 128.342C50.7414 132.695 49.645 138.105 50.4375 147.866C50.4608 148.14 50.2528 148.382 49.9769 148.405H49.9372L49.9325 148.41ZM50.3369 131.641L50.6128 131.688C50.8232 130.458 51.0499 129.335 51.265 128.277C51.784 125.727 52.2281 123.527 52.2281 120.974V120.97H51.9476V120.974C51.9476 123.502 51.5034 125.689 50.9892 128.221C50.7741 129.282 50.545 130.407 50.3346 131.639L50.3369 131.641ZM51.9476 120.732V120.746H52.2281V120.732H51.9476ZM50.6759 105.301C50.6759 107.929 51.0008 110.581 51.3117 113.148C51.6156 115.638 51.9266 118.198 51.9476 120.732H52.2281C52.2094 118.182 51.8962 115.615 51.5923 113.127C51.279 110.563 50.9564 107.919 50.9564 105.301H50.6782H50.6759ZM50.9634 100.723L51.1154 100.728V100.723H50.9634ZM50.8372 100.719H50.9073H51.1177C51.1481 99.8211 51.1621 98.9144 51.1224 98.0169C51.0897 97.2775 51.0125 96.5033 50.6829 95.8314L50.4305 95.9499C50.7227 96.5382 50.8068 97.2101 50.8442 98.0285C50.884 98.9213 50.8699 99.8235 50.8395 100.721L50.8372 100.719ZM44.6845 93.2366C45.2011 93.3971 45.7388 93.5226 46.2648 93.6482C47.9572 94.0481 49.5538 94.4271 50.3346 95.7709L50.5754 95.6291C49.7315 94.1829 48.0016 93.7737 46.3255 93.3785C45.8159 93.2576 45.297 93.1343 44.799 92.9832L44.6845 93.1018V93.2366ZM44.6845 93.0832V93.0948L44.7055 93.0437L44.6845 93.0832ZM44.6845 93.0785V93.0832L44.7359 92.9623C44.7359 92.9623 44.7266 92.96 44.7219 92.9576L44.6845 93.0785ZM38.3144 83.3204C38.5271 84.7317 38.7936 86.136 39.2612 87.4729C39.7427 88.854 40.3622 89.9072 41.005 90.7093L41.2224 90.5373C40.596 89.7584 39.9952 88.7307 39.523 87.3822C39.0625 86.0616 38.7983 84.6643 38.5879 83.2785L38.3121 83.3204H38.3144ZM37.3186 77.5171C37.5617 78.5308 37.751 79.4771 37.8866 80.3537C37.9264 80.6117 37.9638 80.8721 38.0012 81.1325L38.277 81.093C38.2396 80.8326 38.2022 80.5722 38.1601 80.3118C38.0245 79.4283 37.8328 78.4727 37.5874 77.4543L37.3162 77.5194L37.3186 77.5171ZM35.4718 70.7885C35.4555 70.7885 35.4414 70.7908 35.4251 70.7955C35.39 70.8071 35.3619 70.8327 35.3456 70.8652C35.3292 70.9001 35.3269 70.9373 35.3386 70.9722L35.6027 70.8792C35.591 70.8443 35.5653 70.8164 35.5326 70.8001C35.5139 70.7908 35.4929 70.7862 35.4718 70.7862V70.7885Z" fill="#9E9E9E"/>
<path d="M49.9326 148.07C49.8507 148.07 49.7783 148.007 49.7736 147.924C48.9718 138.07 50.0798 132.609 50.9705 128.219C51.4848 125.687 51.9289 123.499 51.9289 120.974C51.9289 118.361 51.6063 115.715 51.2931 113.155C50.9798 110.588 50.6549 107.931 50.6549 105.299C50.6549 104.278 50.704 103.244 50.7507 102.244C50.8162 100.86 50.8816 99.4282 50.8209 98.0262C50.7835 97.1753 50.6923 96.4871 50.372 95.8802C49.6193 94.4573 47.9853 94.0737 46.2578 93.6645C45.4466 93.4738 44.6074 93.2739 43.8617 92.96C42.6765 92.4601 40.4978 91.0814 39.2378 87.4752C38.6136 85.6873 38.3472 83.7808 38.0924 81.937C38.0199 81.4162 37.9451 80.8768 37.8633 80.349C37.4659 77.7869 36.6103 74.6318 35.3176 70.9722C35.2872 70.8885 35.3316 70.7978 35.4157 70.7676C35.4999 70.7374 35.5911 70.7815 35.6215 70.8652C36.9189 74.5434 37.7814 77.7171 38.1812 80.2979C38.263 80.828 38.3378 81.3674 38.4103 81.8905C38.6651 83.718 38.9269 85.6082 39.5417 87.366C40.762 90.8535 42.8495 92.1811 43.9879 92.6601C44.7079 92.9646 45.5331 93.1599 46.3326 93.3483C48.0531 93.7552 49.8344 94.176 50.6572 95.7268C51.0266 96.422 51.1084 97.2334 51.1435 98.0076C51.2066 99.4259 51.1388 100.863 51.0733 102.253C51.0266 103.251 50.9775 104.281 50.9775 105.294C50.9775 107.908 51.3001 110.553 51.6133 113.111C51.9266 115.68 52.2515 118.335 52.2515 120.967C52.2515 123.525 51.805 125.727 51.2884 128.275C50.4024 132.644 49.2991 138.082 50.0962 147.891C50.1032 147.979 50.0378 148.056 49.9489 148.063C49.9442 148.063 49.9396 148.063 49.9349 148.063L49.9326 148.07Z" fill="#9E9E9E"/>
<path d="M49.9325 148.249C49.7572 148.249 49.6053 148.112 49.5912 147.938C48.7871 138.056 49.8998 132.581 50.7928 128.182C51.3047 125.655 51.7466 123.478 51.7466 120.974C51.7466 118.37 51.424 115.731 51.1131 113.178C50.7975 110.6 50.4749 107.943 50.4749 105.301C50.4749 104.283 50.524 103.253 50.5707 102.255C50.6362 100.854 50.7016 99.4306 50.6409 98.0356C50.6058 97.2102 50.5193 96.5429 50.2131 95.9663C49.4977 94.6178 47.9058 94.2411 46.218 93.8412C45.4022 93.6482 44.5559 93.4483 43.7939 93.1274C42.5806 92.6136 40.3528 91.207 39.0695 87.5357C38.4383 85.7315 38.1742 83.8157 37.9147 81.965C37.8422 81.4349 37.7674 80.9024 37.6856 80.3793C37.2905 77.8264 36.4373 74.683 35.1492 71.035C35.0861 70.8583 35.1796 70.663 35.3573 70.6002C35.4461 70.57 35.5373 70.5746 35.6191 70.6142C35.7009 70.6537 35.764 70.7234 35.7944 70.8095C37.0965 74.497 37.9614 77.6823 38.3635 80.2747C38.4453 80.8048 38.5201 81.3465 38.5926 81.8696C38.8451 83.6878 39.1069 85.5664 39.7147 87.3102C40.9115 90.7327 42.95 92.03 44.0604 92.4973C44.7663 92.795 45.5822 92.9879 46.37 93.1739C48.1372 93.5924 49.9559 94.0226 50.8162 95.6454C51.2019 96.3708 51.2884 97.2079 51.3234 98.0007C51.3866 99.4259 51.3188 100.865 51.2533 102.26V102.311C51.2066 103.29 51.1575 104.304 51.1598 105.294C51.1598 107.896 51.4824 110.537 51.7933 113.09C52.1066 115.662 52.4315 118.321 52.4315 120.967C52.4315 123.543 51.9827 125.752 51.4637 128.31C50.5801 132.669 49.479 138.093 50.2762 147.875C50.2902 148.063 50.1499 148.226 49.9629 148.242H49.9349L49.9325 148.249Z" fill="#9E9E9E"/>
<path d="M62.2193 9.68417C47.8965 9.68417 35.7477 8.25893 33.749 8.01248C33.6041 7.99388 33.4778 7.91948 33.3913 7.80323C33.3072 7.68697 33.2721 7.5405 33.2978 7.39867L34.0996 3.05551C34.1487 2.79046 34.3989 2.60446 34.6677 2.63003C63.1122 5.39682 82.6644 2.87649 86.2971 2.34406C86.5495 2.30686 86.7927 2.45566 86.8721 2.69746C87.3654 4.19943 87.7885 6.43146 87.8072 7.28009C87.8142 7.5405 87.6295 7.76137 87.3724 7.80788C79.2654 9.21684 70.387 9.68185 62.2169 9.68185L62.2193 9.68417ZM34.4152 3.11364L33.6134 7.4568C33.6041 7.5126 33.6157 7.5684 33.6485 7.6149C33.6812 7.65907 33.7303 7.6893 33.7864 7.69627C35.7827 7.94273 47.9175 9.36565 62.2169 9.36565C70.3706 9.36565 79.228 8.90296 87.3163 7.49632C87.4168 7.47772 87.4869 7.3917 87.4846 7.29172C87.4659 6.46401 87.0498 4.27848 86.5636 2.79976C86.5332 2.70444 86.4397 2.64863 86.3392 2.66258C82.7018 3.19734 63.1122 5.72 34.6326 2.95089C34.5251 2.94159 34.4316 3.01366 34.4105 3.11597L34.4152 3.11364Z" fill="#F25C00"/>
<path d="M62.2193 9.86552C47.9736 9.86552 35.9838 8.47283 33.7256 8.1915C33.5316 8.16825 33.361 8.06827 33.2441 7.91017C33.1295 7.75439 33.0828 7.55677 33.1202 7.36611L33.922 3.02296C33.9875 2.66723 34.3194 2.4138 34.6864 2.451C63.1123 5.21546 82.6434 2.69745 86.2714 2.16502C86.6127 2.1162 86.94 2.31615 87.0475 2.64165C87.5454 4.15757 87.9709 6.41518 87.9919 7.27776C87.9989 7.62884 87.7535 7.92645 87.4075 7.9869C80.2519 9.23079 71.7756 9.8632 62.2216 9.8632L62.2193 9.86552ZM34.6186 3.12991L34.5929 3.14851L33.7911 7.49167C36.061 7.79625 48.0181 9.18661 62.217 9.18661H62.224C71.7359 9.18661 80.1654 8.55885 87.2859 7.31961C87.2859 6.4826 86.8745 4.32033 86.393 2.85788C82.7275 3.37636 63.1216 5.90367 34.6186 3.13224V3.12991Z" fill="#F25C00"/>
<path d="M62.2192 9.84444C47.9759 9.84444 35.9884 8.45175 33.7302 8.17042C33.5409 8.14717 33.3749 8.04952 33.2627 7.89839C33.1505 7.74726 33.1084 7.55428 33.1412 7.37061L33.943 3.02745C34.0061 2.68102 34.3357 2.43922 34.684 2.47177C63.1099 5.23623 82.6456 2.72055 86.2737 2.18812C86.6056 2.13929 86.9212 2.33459 87.0264 2.6508C87.5243 4.16439 87.9497 6.42199 87.9708 7.27993C87.9778 7.61938 87.7394 7.91001 87.4027 7.96814C80.2472 9.21203 71.7732 9.84444 62.2192 9.84444ZM34.6162 3.10883C34.5952 3.10883 34.5765 3.12278 34.5741 3.1437L33.7723 7.48686C33.77 7.49848 33.7723 7.51011 33.7793 7.52173C33.7864 7.53103 33.7957 7.53568 33.8074 7.53801C36.0609 7.81701 48.0156 9.20738 62.2192 9.20738H62.2239C71.7358 9.20738 80.17 8.57962 87.2929 7.34038C87.3139 7.33573 87.3279 7.31946 87.3279 7.29621C87.3092 6.48012 86.8978 4.31552 86.4162 2.85075C86.4092 2.82982 86.3905 2.8182 86.3672 2.82052C82.7274 3.35528 63.1215 5.88026 34.6209 3.10883C34.6209 3.10883 34.6186 3.10883 34.6162 3.10883ZM33.5082 7.69146C33.5082 7.69146 33.5152 7.70309 33.5199 7.71006C33.5152 7.70309 33.5105 7.69844 33.5082 7.69146ZM87.536 6.24064C87.6038 6.6731 87.6435 7.04045 87.6505 7.28923C87.6529 7.43803 87.5687 7.56823 87.4401 7.62636C87.571 7.56823 87.6552 7.43803 87.6505 7.28923C87.6459 7.04278 87.6038 6.67542 87.536 6.24064ZM86.3742 2.502C86.5191 2.502 86.6524 2.58802 86.7085 2.72055C86.6453 2.57407 86.4957 2.48572 86.3344 2.50432C86.3485 2.50432 86.3601 2.50432 86.3742 2.50432V2.502Z" fill="#F25C00"/>
<path d="M62.2192 10.0235C47.9619 10.0235 35.9674 8.62853 33.7069 8.34952C33.4684 8.3193 33.2581 8.1984 33.1155 8.0031C32.9752 7.81244 32.9191 7.56832 32.9612 7.33581L33.763 2.99266C33.8425 2.55555 34.2586 2.24632 34.7004 2.2905C63.1075 5.05496 82.6246 2.5416 86.248 2.00917C86.6734 1.94639 87.0685 2.19517 87.1994 2.59508C87.702 4.12495 88.1321 6.4058 88.1531 7.27536C88.1625 7.70549 87.8609 8.07052 87.4355 8.14492C80.2706 9.39114 71.7849 10.0235 62.2216 10.0235H62.2192ZM33.4638 7.85429C33.5409 7.92869 33.6414 7.97752 33.7513 7.99147C36.0071 8.27047 47.9829 9.66317 62.2192 9.66317C71.7639 9.66317 80.2262 9.03308 87.37 7.78919C87.4144 7.78222 87.4565 7.76827 87.4939 7.75199L87.377 7.49856C87.3607 7.50554 87.3396 7.51251 87.3209 7.51484C80.1888 8.75408 71.7452 9.38416 62.2216 9.38416C48.0063 9.38416 36.0399 7.9938 33.784 7.71479L33.7069 7.70549L33.6391 7.63574L33.4614 7.85429H33.4638ZM33.9781 7.37534C36.5565 7.68922 48.3102 9.02378 62.2192 9.02378C71.6727 9.02378 80.0555 8.403 87.1409 7.18004C87.0895 6.31977 86.7178 4.39232 86.2783 3.01358C82.3675 3.58089 62.9042 6.0245 34.7308 3.29956L33.9781 7.37301V7.37534ZM34.6186 2.65088C34.3778 2.65088 34.1651 2.82293 34.123 3.06008L33.3212 7.40324C33.2955 7.53576 33.3282 7.67527 33.4053 7.78687L33.6251 7.61249C33.5947 7.56366 33.5853 7.50786 33.5947 7.45439L34.3965 3.11123C34.4152 3.00428 34.5087 2.92756 34.6186 2.92756H34.6536C63.1216 5.69899 82.7064 3.17401 86.3438 2.64158C86.3461 2.64158 86.3485 2.64158 86.3508 2.64158L86.3204 2.3649C86.3204 2.3649 86.3087 2.3649 86.3017 2.36722C82.6713 2.89966 63.1169 5.41999 34.6677 2.6532C34.6513 2.6532 34.6349 2.65088 34.6186 2.65088ZM33.6251 7.61249L33.5105 7.69154L33.6344 7.62412C33.6344 7.62412 33.6297 7.61714 33.6274 7.61249H33.6251ZM86.5799 2.7741C86.5799 2.7741 86.5846 2.78573 86.5869 2.79038C86.9305 3.83664 87.2391 5.23631 87.3981 6.25932L87.6739 6.21747C87.5126 5.17586 87.2017 3.75992 86.8557 2.70668C86.8511 2.69273 86.8464 2.67878 86.8394 2.66483L86.5822 2.7741H86.5799Z" fill="#F25C00"/>
<path d="M43.1185 148.632C38.9621 148.632 37.0219 147.956 36.9027 147.914C36.8279 147.886 36.7834 147.807 36.7998 147.73C37.9476 142.513 35.3692 126.838 34.551 122.16C34.3803 121.19 34.1513 120.258 33.9502 119.474C32.2087 112.72 36.2294 92.5457 36.4024 91.6901C37.7746 78.0282 32.0801 53.1923 32.024 52.9412C32.024 52.9342 32.0216 52.9272 32.0216 52.9226C29.8523 31.5579 33.5715 8.06345 33.6089 7.82862C33.6229 7.7426 33.7048 7.68215 33.7936 7.6961C33.8801 7.71005 33.9409 7.79142 33.9268 7.87977C33.8894 8.1146 30.1772 31.5625 32.3372 52.8784C32.4798 53.4945 38.0879 78.1096 36.718 91.7366C36.6736 91.9598 32.5359 112.711 34.2611 119.395C34.4645 120.183 34.6959 121.123 34.8666 122.106C35.9092 128.068 38.2001 142.406 37.1434 147.658C37.9406 147.895 42.3611 149.007 51.1203 147.633C50.6107 141.343 50.9894 135.073 52.247 128.991C52.4901 127.812 52.6538 127.182 52.7987 126.626C52.9694 125.97 53.1049 125.452 53.3013 124.28C54.4912 117.17 53.8436 110.316 53.3247 104.808C53.3083 104.634 53.299 104.548 53.2943 104.487C53.2873 104.417 53.2826 104.38 53.2756 104.282C53.133 102.611 53.2499 99.3511 54.6291 93.313C55.286 90.4369 55.7371 87.526 55.9732 84.6639C56.2234 81.632 56.5202 77.4609 56.5202 74.8011C56.7096 70.7672 57.0766 66.4961 57.6096 62.0948C57.855 60.0744 58.1917 58.0353 58.5143 56.0614C58.6802 55.0546 58.8509 54.013 59.0075 52.99L59.0776 52.5366C59.5218 49.6489 59.9823 46.6636 59.7696 43.7759C59.6807 42.5669 59.5545 39.5653 60.3213 37.789C60.3563 37.7076 60.4522 37.6704 60.5317 37.7053C60.6135 37.7401 60.6509 37.8331 60.6158 37.9145C59.8584 39.6746 60.022 42.8273 60.0898 43.7503C60.3049 46.6752 59.8444 49.6792 59.3956 52.5831L59.3254 53.0365C59.1688 54.0642 58.9958 55.1058 58.8322 56.1125C58.5072 58.0818 58.173 60.1185 57.9298 62.132C57.3969 66.524 57.0299 70.7881 56.8428 74.8058C56.8428 77.4679 56.546 81.6506 56.2958 84.6871C56.0597 87.5632 55.6062 90.4881 54.9447 93.3804C53.5771 99.3767 53.4579 102.601 53.5982 104.25C53.6075 104.345 53.6099 104.382 53.6169 104.452C53.6239 104.513 53.6309 104.599 53.6473 104.775C54.1686 110.302 54.8184 117.177 53.6216 124.331C53.4229 125.517 53.2873 126.042 53.1143 126.705C52.9717 127.256 52.8081 127.882 52.5649 129.053C51.3026 135.152 50.9309 141.443 51.4569 147.754C51.4639 147.837 51.4055 147.912 51.3213 147.923C47.9691 148.456 45.2528 148.635 43.1208 148.635L43.1185 148.632Z" fill="#F25C00"/>
<path d="M43.1185 148.814C38.9013 148.814 36.9237 148.114 36.8419 148.084C36.6829 148.026 36.5894 147.856 36.6245 147.691C37.7652 142.506 35.1891 126.858 34.3733 122.187C34.205 121.223 33.9759 120.297 33.7749 119.516C32.0216 112.713 36.0517 92.5085 36.2247 91.6505C37.5899 78.0328 31.9024 53.2271 31.8463 52.9783L31.8393 52.9318C29.6699 31.5625 33.3938 8.0355 33.4312 7.80067C33.4452 7.71232 33.4943 7.63327 33.5668 7.57979C33.6416 7.52632 33.7328 7.50539 33.8216 7.51934C33.9104 7.53329 33.9899 7.58212 34.0437 7.65652C34.0975 7.73092 34.1185 7.82159 34.1045 7.90995C34.0671 8.14477 30.3736 31.7229 32.5172 52.8597C32.7486 53.8642 38.2678 78.1235 36.898 91.7528C36.725 92.6317 32.751 112.815 34.4364 119.349C34.6398 120.141 34.8736 121.085 35.0465 122.071C36.0751 127.954 38.338 142.115 37.3538 147.526C38.4618 147.823 42.7842 148.73 50.9262 147.477C50.4353 141.227 50.8187 134.994 52.0693 128.951C52.3148 127.763 52.4784 127.133 52.6233 126.579C52.794 125.924 52.9272 125.41 53.1213 124.25C54.3088 117.161 53.6613 110.321 53.1423 104.824L53.0909 104.296C52.9459 102.611 53.0652 99.3301 54.4467 93.2734C55.1013 90.4043 55.5524 87.5027 55.7862 84.6499C56.034 81.625 56.3309 77.4609 56.3309 74.801C56.5202 70.7555 56.8872 66.4774 57.4225 62.0738C57.668 60.0464 58.0046 58.005 58.3296 56.0334C58.4955 55.0267 58.6662 53.9874 58.8228 52.9644L58.8929 52.511C59.3371 49.6279 59.7929 46.6566 59.5825 43.7898C59.4914 42.5692 59.3675 39.5327 60.1483 37.7191C60.1833 37.6354 60.2511 37.5703 60.3353 37.5378C60.4194 37.5029 60.5129 37.5052 60.5971 37.5401C60.7701 37.6145 60.8495 37.8145 60.7771 37.9865C60.0337 39.7117 60.1973 42.8249 60.2651 43.7387C60.4825 46.6821 60.0197 49.6931 59.5708 52.6063L59.5007 53.0643C59.3418 54.092 59.1711 55.1336 59.0051 56.1427C58.6825 58.1097 58.3483 60.1417 58.1028 62.1552C57.5698 66.5425 57.2028 70.802 57.0158 74.8173C57.0158 77.4748 56.7189 81.6622 56.4688 84.7057C56.2303 87.5934 55.7768 90.5275 55.1129 93.4245C53.7501 99.3975 53.6309 102.604 53.7711 104.238L53.8202 104.761C54.3439 110.297 54.9937 117.186 53.7922 124.364C53.5935 125.554 53.4556 126.08 53.2826 126.747C53.1376 127.307 52.974 127.928 52.7332 129.093C51.4756 135.175 51.1039 141.45 51.6275 147.742C51.6415 147.919 51.5153 148.079 51.34 148.107C48.3618 148.581 45.594 148.821 43.1091 148.821L43.1185 148.814Z" fill="#F25C00"/>
<path d="M43.1184 148.793C38.9083 148.793 36.9307 148.093 36.8488 148.063C36.6992 148.009 36.6104 147.849 36.6455 147.693C37.7862 142.506 35.2102 126.856 34.3943 122.183C34.226 121.218 33.9969 120.29 33.7959 119.509C32.045 112.716 36.0727 92.511 36.2457 91.6531C37.6133 78.0191 31.9234 53.2227 31.865 52.9739C31.8626 52.9623 31.8603 52.9483 31.858 52.9344C29.691 31.5627 33.4125 8.03806 33.4522 7.80323C33.4663 7.71953 33.5107 7.64513 33.5808 7.59398C33.6509 7.54283 33.7351 7.52423 33.8192 7.53818C33.9034 7.55213 33.9782 7.5963 34.0296 7.66605C34.0811 7.7358 34.0998 7.8195 34.0857 7.9032C34.0483 8.13803 30.3455 31.5953 32.4961 52.8484C32.7626 54.0062 38.2444 78.154 36.8792 91.7484L36.8746 91.7717C36.7039 92.6273 32.7346 112.829 34.4177 119.349C34.6211 120.142 34.8548 121.086 35.0255 122.071C36.054 127.958 38.3216 142.141 37.3304 147.538C38.4104 147.83 42.7444 148.758 50.9496 147.491C50.4563 141.237 50.8397 134.999 52.0903 128.951C52.3358 127.77 52.4994 127.138 52.6444 126.582C52.815 125.926 52.9483 125.413 53.1446 124.248C54.3321 117.156 53.6846 110.314 53.1657 104.817C53.1493 104.643 53.1399 104.557 53.1353 104.497C53.1283 104.424 53.1236 104.387 53.1166 104.29C52.9716 102.606 53.0909 99.328 54.4724 93.2713C55.1269 90.4022 55.5781 87.5006 55.8119 84.6455C56.0597 81.6159 56.3566 77.4495 56.3566 74.7966C56.5459 70.7557 56.9129 66.4753 57.4482 62.0717C57.6937 60.0466 58.0303 58.0053 58.3552 56.0336C58.5212 55.0269 58.6919 53.9876 58.8485 52.9623L58.9186 52.5089C59.3628 49.6305 59.821 46.6545 59.6082 43.7831C59.5171 42.5624 59.3932 39.5306 60.1716 37.7217C60.2043 37.6427 60.2674 37.5822 60.3469 37.552C60.4264 37.5194 60.5152 37.5218 60.5924 37.5543C60.6719 37.5869 60.7326 37.6496 60.763 37.7287C60.7958 37.8077 60.7934 37.8938 60.7607 37.9728C60.0173 39.698 60.1786 42.8205 60.2464 43.7342C60.4638 46.6754 60.001 49.6886 59.5521 52.6019L59.482 53.0576C59.3254 54.0829 59.1547 55.1246 58.9887 56.1313C58.6638 58.1006 58.3295 60.1327 58.0864 62.1485C57.5534 66.5381 57.1864 70.7999 56.9994 74.8106C56.9994 77.4727 56.7025 81.6578 56.4524 84.6966C56.2163 87.582 55.7605 90.5138 55.0989 93.4131C53.736 99.3885 53.6168 102.597 53.7571 104.234C53.7664 104.329 53.7688 104.364 53.7758 104.434C53.7828 104.494 53.7898 104.583 53.8062 104.757C54.3298 110.291 54.9797 117.18 53.7805 124.352C53.5794 125.547 53.4438 126.073 53.2709 126.74C53.1283 127.289 52.967 127.912 52.7238 129.079C51.4662 135.164 51.0945 141.439 51.6181 147.733C51.6322 147.898 51.5129 148.049 51.3493 148.075C48.3735 148.549 45.6057 148.788 43.1231 148.788L43.1184 148.793ZM37.0242 147.786C37.4005 147.91 39.3361 148.474 43.1184 148.474C45.573 148.474 48.3057 148.237 51.2464 147.772L51.1459 147.789C42.3564 149.167 37.9008 148.049 37.099 147.81L37.0242 147.786ZM36.559 91.7135C36.3603 92.711 32.3769 112.732 34.1044 119.433C34.3078 120.218 34.5369 121.155 34.7076 122.13C35.5257 126.817 38.1088 142.518 36.9564 147.763L36.9844 147.624C38.0364 142.395 35.7408 128.054 34.7076 122.13C34.5369 121.155 34.3078 120.218 34.1044 119.433C32.405 112.841 36.3883 92.5738 36.559 91.7135ZM51.0618 142.234C51.0618 144.024 51.1342 145.819 51.2815 147.617L51.2932 147.763C51.1389 145.917 51.0618 144.071 51.0618 142.232V142.234ZM53.4111 124.585C53.2802 125.329 53.1773 125.789 53.0675 126.229C53.1773 125.789 53.2825 125.329 53.4111 124.585ZM53.4485 104.434C53.4485 104.434 53.4509 104.457 53.4532 104.471C53.4602 104.531 53.4672 104.617 53.4836 104.794C53.5163 105.15 53.5514 105.51 53.5841 105.875C53.549 105.51 53.5163 105.15 53.4836 104.794C53.4672 104.62 53.4579 104.534 53.4532 104.473C53.4532 104.459 53.4508 104.448 53.4485 104.436V104.434ZM53.5257 100.584C53.5257 100.584 53.5257 100.584 53.5257 100.586C53.5257 100.586 53.5257 100.586 53.5257 100.584ZM56.1298 84.6733C56.062 85.5011 55.9755 86.3334 55.8727 87.1681C55.9779 86.3334 56.062 85.5011 56.1298 84.6733ZM57.9789 60.5047C57.9041 61.0418 57.8316 61.5765 57.7662 62.1136C57.495 64.3386 57.2682 66.5311 57.0859 68.6748C57.2682 66.5311 57.4973 64.3386 57.7662 62.1136C57.8316 61.5788 57.9017 61.0418 57.9789 60.5047ZM32.3465 53.6505C32.4167 53.969 32.5078 54.3829 32.613 54.8804C32.5078 54.3805 32.4167 53.9667 32.3465 53.6505ZM59.4516 51.1116C59.3815 51.5952 59.3067 52.0764 59.2319 52.5531C59.3043 52.0741 59.3791 51.5928 59.4516 51.1116ZM33.7678 7.85438C33.7304 8.08223 30.2029 30.3793 32.0216 51.2511C30.2076 30.4048 33.7328 8.08223 33.7678 7.85438ZM60.4638 37.8473C59.7391 39.5329 59.8303 42.3625 59.9168 43.6296C59.8443 42.5601 59.7251 39.5655 60.4638 37.8473Z" fill="#F25C00"/>
<path d="M43.1184 148.972C38.8896 148.972 36.8699 148.263 36.7857 148.233C36.5496 148.147 36.4141 147.9 36.4655 147.656C37.5993 142.501 35.0278 126.88 34.2143 122.215C34.046 121.262 33.8193 120.337 33.6182 119.556C31.8533 112.706 35.8928 92.4784 36.0658 91.6204C37.4309 78.0097 31.7458 53.2621 31.6897 53.0133L31.6803 52.9505C29.5086 31.5696 33.2349 8.01004 33.2723 7.77521C33.2933 7.64268 33.3658 7.52643 33.4733 7.44971C33.5808 7.37066 33.7117 7.33811 33.8473 7.36136C33.9806 7.38228 34.0974 7.45436 34.1746 7.56131C34.2541 7.66826 34.2868 7.80079 34.2634 7.93331C34.226 8.16582 30.5185 31.5254 32.6762 52.832C32.9076 53.8364 38.4315 78.1167 37.0593 91.7669C36.8839 92.6644 32.9216 112.822 34.593 119.307C34.7987 120.104 35.0325 121.053 35.2055 122.043C36.22 127.854 38.4642 141.862 37.5385 147.407C38.8616 147.742 43.0787 148.505 50.7556 147.34C50.281 141.125 50.6691 134.926 51.9127 128.916C52.1605 127.721 52.3241 127.093 52.4667 126.538C52.635 125.889 52.7683 125.378 52.9623 124.217C54.1452 117.147 53.5 110.321 52.981 104.834L52.9296 104.303C52.7846 102.609 52.9015 99.3093 54.2901 93.2317C54.9423 90.3719 55.3911 87.4772 55.6249 84.6314C55.8727 81.6065 56.1696 77.4447 56.1696 74.7965C56.3589 70.744 56.7259 66.459 57.2612 62.0507C57.5067 60.0303 57.841 57.9959 58.1636 56.0289L58.1753 55.9568C58.3389 54.964 58.5072 53.9433 58.6615 52.9343L58.7316 52.4809C59.1734 49.6141 59.6293 46.6474 59.4189 43.7969C59.3277 42.5623 59.2015 39.4956 59.9963 37.6518C60.0477 37.5286 60.1482 37.4333 60.2721 37.3845C60.396 37.3356 60.534 37.338 60.6579 37.3891C60.7817 37.4426 60.8753 37.5402 60.9267 37.6635C60.9758 37.7867 60.9758 37.9215 60.922 38.0448C60.195 39.7351 60.3563 42.8181 60.4217 43.7225C60.6392 46.6823 60.1763 49.7048 59.7275 52.625L59.6573 53.0854C59.5007 54.1107 59.3301 55.1477 59.1641 56.1544C58.8368 58.147 58.5049 60.1698 58.2618 62.1716C57.7288 66.5636 57.3641 70.8184 57.1771 74.8221C57.1771 77.4843 56.8802 81.674 56.6301 84.7151C56.3916 87.6074 55.9358 90.5463 55.2719 93.4572C53.9137 99.4093 53.7945 102.597 53.9324 104.224L53.9815 104.745C54.5052 110.29 55.1574 117.191 53.9535 124.387C53.7524 125.589 53.6145 126.119 53.4392 126.789C53.2942 127.345 53.133 127.963 52.8945 129.121C51.6392 135.189 51.2698 141.448 51.7911 147.723C51.8145 147.981 51.6275 148.219 51.3704 148.258C48.3875 148.732 45.6104 148.974 43.1161 148.974L43.1184 148.972ZM51.2465 147.765L51.2698 147.905C51.2862 147.902 51.3026 147.9 51.3189 147.898C51.3914 147.886 51.4428 147.821 51.4358 147.749L51.2488 147.763L51.2465 147.765ZM50.9239 142.208V142.227L51.202 142.215V142.208H50.9239ZM50.9239 142.185V142.206L51.202 142.197V142.185H50.9239ZM50.9239 142.164V142.185L51.202 142.181V142.164H50.9239ZM52.9342 126.189C52.8968 126.335 52.8594 126.477 52.822 126.628C52.6794 127.179 52.5158 127.803 52.2704 128.988C51.3774 133.304 50.9285 137.716 50.9262 142.164H51.2044C51.2067 137.735 51.6556 133.341 52.5439 129.044C52.7846 127.879 52.9459 127.254 53.0909 126.703C53.1306 126.549 53.168 126.403 53.2054 126.256L52.9342 126.189ZM53.2755 124.554L53.5514 124.601C53.5654 124.513 53.5818 124.42 53.5981 124.322C54.7179 117.631 54.22 111.181 53.7244 105.854L53.4462 105.88C53.9418 111.19 54.4374 117.619 53.3223 124.278C53.3059 124.373 53.2896 124.466 53.2755 124.554ZM53.3854 100.581C53.2171 102.276 53.2265 103.462 53.2942 104.273L53.3129 104.476L53.5888 104.415L53.5724 104.25C53.5023 103.448 53.4953 102.271 53.6636 100.588L53.3831 100.581H53.3854ZM53.3854 100.563C53.3854 100.563 53.3854 100.576 53.3854 100.581H53.5678L53.3878 100.563H53.3854ZM36.4211 91.6832L36.6946 91.7367C37.8541 80.2092 34.0717 61.044 32.7486 54.8524L32.4751 54.9105C33.7936 61.1044 37.5689 80.258 36.4234 91.6716C36.4234 91.6762 36.4234 91.6786 36.4211 91.6832ZM55.141 90.9206L55.4168 90.9718C55.6529 89.7093 55.8516 88.4421 56.0083 87.182L55.7301 87.1471C55.5735 88.4026 55.3771 89.6628 55.141 90.9206ZM56.5342 74.8012H56.8148C56.9083 72.8156 57.0438 70.7719 57.2215 68.6817L56.9433 68.6584C56.7633 70.7556 56.6277 72.8086 56.5342 74.8012ZM57.8363 60.479L58.1122 60.5185C58.3202 59.0421 58.5633 57.5681 58.7994 56.1312C58.9701 55.0896 59.1407 54.0526 59.2973 53.0296L59.3324 52.8017L59.0566 52.7599L59.0215 52.9877C58.8672 53.9968 58.6989 55.0221 58.5353 56.0126L58.5283 56.0591C58.2875 57.5169 58.0444 58.9979 57.8363 60.479ZM31.8884 51.2998C31.9351 51.8392 31.9865 52.3786 32.0403 52.9157C32.0473 52.9436 32.1081 53.2086 32.211 53.6806L32.4845 53.6225C32.398 53.2272 32.3395 52.9784 32.3208 52.8924C32.2647 52.3484 32.2133 51.8043 32.1665 51.2602H32.024L31.8884 51.2998ZM31.886 51.2626C31.886 51.2742 31.886 51.2881 31.8884 51.2998L32.0076 51.2602H31.886V51.2626ZM59.316 51.0928L59.5919 51.1324C59.9542 48.6818 60.2464 46.187 60.0664 43.7481C60.0641 43.7085 60.0618 43.6667 60.0571 43.6202L59.7789 43.6388C59.7812 43.683 59.7859 43.7271 59.7882 43.769C59.9659 46.1824 59.676 48.6609 59.316 51.0928ZM60.3376 37.7913L60.5947 37.9006C60.6088 37.8657 60.6088 37.8285 60.5947 37.7937C60.5807 37.7588 60.555 37.7309 60.5199 37.7169C60.4849 37.703 60.4498 37.7007 60.4124 37.7169C60.3773 37.7309 60.3493 37.7565 60.3353 37.7913H60.3376ZM33.6299 7.83101L33.9058 7.87519C33.9128 7.83799 33.9034 7.80311 33.88 7.77289C33.8567 7.74266 33.8263 7.72174 33.7889 7.71709C33.7515 7.71244 33.7164 7.71941 33.686 7.74034C33.6556 7.76359 33.6346 7.79381 33.6299 7.83101Z" fill="#F25C00"/>
<path d="M71.0066 148.051C71.0066 148.051 70.9972 148.051 70.9925 148.051C70.9037 148.044 70.8382 147.968 70.8453 147.879C71.6424 138.07 70.5414 132.634 69.6531 128.263C69.1364 125.712 68.6899 123.513 68.6899 120.955C68.6899 118.323 69.0149 115.668 69.3281 113.099C69.6414 110.539 69.964 107.893 69.964 105.282C69.964 104.269 69.9149 103.239 69.8681 102.241C69.8027 100.851 69.7349 99.4116 69.798 97.9957C69.8331 97.2238 69.9149 96.4123 70.2842 95.7148C71.1071 94.164 72.886 93.7432 74.6089 93.3363C75.406 93.148 76.2312 92.9527 76.9535 92.6481C78.0896 92.1668 80.1795 90.8415 81.3998 87.354C82.0146 85.594 82.2764 83.7037 82.5312 81.8762C82.6036 81.3554 82.6785 80.8137 82.7603 80.2859C83.16 77.7028 84.0226 74.5291 85.32 70.8533C85.3504 70.7696 85.4416 70.7254 85.5257 70.7556C85.6099 70.7858 85.6543 70.8765 85.6239 70.9602C84.3312 74.6198 83.4756 77.7749 83.0782 80.3371C82.9964 80.8625 82.9216 81.4019 82.8491 81.9227C82.5943 83.7665 82.3278 85.673 81.7036 87.461C80.4437 91.0648 78.2673 92.4435 77.0798 92.9457C76.3341 93.2596 75.4948 93.4595 74.6837 93.6502C72.9562 94.0594 71.3245 94.4453 70.5694 95.8659C70.2492 96.4704 70.158 97.161 70.1206 98.0119C70.0598 99.4139 70.1253 100.846 70.1907 102.23C70.2375 103.229 70.2866 104.266 70.2866 105.285C70.2866 107.917 69.9616 110.572 69.6484 113.141C69.3351 115.701 69.0125 118.347 69.0125 120.958C69.0125 123.483 69.4567 125.67 69.971 128.202C70.8616 132.59 71.9697 138.051 71.1679 147.907C71.1608 147.991 71.0907 148.054 71.0089 148.054L71.0066 148.051Z" fill="#9E9E9E"/>
<path d="M71.0065 148.233H70.9738C70.7914 148.216 70.6512 148.051 70.6652 147.865C71.4623 138.082 70.3613 132.657 69.4777 128.3C68.9587 125.743 68.5099 123.534 68.5099 120.956C68.5099 118.314 68.8348 115.654 69.1481 113.081C69.459 110.525 69.7816 107.884 69.7816 105.282C69.7816 104.271 69.7325 103.243 69.6857 102.251C69.6203 100.858 69.5525 99.4164 69.6156 97.9889C69.6507 97.196 69.7372 96.3613 70.1229 95.6336C70.9831 94.0107 72.8042 93.5806 74.5644 93.1644C75.3545 92.9761 76.1727 92.7854 76.8787 92.4855C77.9867 92.0159 80.0275 90.7185 81.2244 87.2984C81.8345 85.5546 82.094 83.6736 82.3464 81.8555C82.4189 81.3277 82.4937 80.7883 82.5755 80.2605C82.9776 77.6704 83.8402 74.4851 85.1446 70.7953C85.175 70.7093 85.2381 70.6395 85.3199 70.6C85.4018 70.5605 85.4953 70.5558 85.5818 70.5861C85.6659 70.6163 85.736 70.6767 85.7758 70.7604C85.8155 70.8418 85.8202 70.9348 85.7898 71.0208C84.5018 74.6665 83.6485 77.8122 83.2511 80.3651C83.1716 80.879 83.0992 81.4044 83.0267 81.9136C82.7649 83.8015 82.4984 85.7173 81.8672 87.5216C80.5839 91.1905 78.3561 92.5994 77.1428 93.1133C76.3854 93.4341 75.5415 93.6318 74.728 93.8247C73.0309 94.2246 71.439 94.6013 70.7236 95.9521C70.4174 96.5264 70.3309 97.1937 70.2959 98.0214C70.2351 99.4141 70.3005 100.839 70.366 102.216C70.4127 103.222 70.4618 104.257 70.4618 105.285C70.4618 107.931 70.1369 110.591 69.8236 113.162C69.5127 115.715 69.1901 118.356 69.1901 120.958C69.1901 123.467 69.632 125.645 70.1439 128.168C71.0369 132.569 72.1473 138.044 71.3431 147.921C71.3291 148.1 71.1818 148.235 71.0018 148.235L71.0065 148.233Z" fill="#9E9E9E"/>
<path d="M71.0065 148.212H70.9808C70.8031 148.195 70.6699 148.042 70.6839 147.868C71.481 138.082 70.38 132.657 69.4964 128.298C68.9774 125.738 68.5286 123.529 68.5286 120.958C68.5286 118.314 68.8535 115.654 69.1667 113.083C69.4777 110.53 69.8002 107.889 69.8002 105.285C69.8002 104.276 69.7512 103.246 69.7044 102.251C69.639 100.856 69.5712 99.414 69.6343 97.9888C69.6693 97.1983 69.7535 96.3659 70.1369 95.6405C70.9925 94.027 72.8088 93.5968 74.5644 93.183C75.3592 92.9946 76.175 92.8017 76.8833 92.5041C77.9961 92.0344 80.0415 90.7347 81.2407 87.303C81.8508 85.5592 82.1127 83.6759 82.3651 81.8554C82.4376 81.3346 82.5124 80.7952 82.5942 80.2628C82.9963 77.6704 83.8612 74.4874 85.161 70.7999C85.189 70.7185 85.2475 70.6534 85.3246 70.6186C85.4017 70.5814 85.4882 70.5767 85.57 70.6046C85.6495 70.6325 85.715 70.6906 85.7524 70.7674C85.7898 70.8441 85.7945 70.9301 85.7664 71.0115C84.4784 74.6618 83.6228 77.8052 83.2277 80.3581C83.1482 80.8766 83.0734 81.4067 83.0033 81.9205V81.9414C82.7438 83.7922 82.4773 85.7057 81.8462 87.5122C80.5651 91.1741 78.3444 92.5785 77.1335 93.09C76.3761 93.4108 75.5298 93.6108 74.7117 93.8037C73.0192 94.2037 71.4226 94.5803 70.7026 95.9381C70.3963 96.5147 70.3099 97.1867 70.2725 98.0144C70.2117 99.4094 70.2771 100.837 70.3426 102.218C70.3893 103.22 70.4384 104.257 70.4384 105.282C70.4384 107.926 70.1135 110.586 69.8002 113.157C69.4893 115.71 69.1667 118.351 69.1667 120.955C69.1667 123.464 69.6086 125.643 70.1205 128.168C71.0135 132.567 72.1239 138.042 71.3197 147.919C71.3057 148.084 71.1654 148.212 70.9995 148.212H71.0065ZM69.9382 99.8C69.9522 100.618 69.9896 101.437 70.027 102.237C70.0738 103.236 70.1228 104.269 70.1228 105.285C70.1228 104.269 70.0738 103.234 70.027 102.237C69.9896 101.434 69.9522 100.618 69.9382 99.8ZM69.9756 97.6586C69.9686 97.7563 69.9639 97.8563 69.9592 97.9539C69.9639 97.854 69.9686 97.7563 69.9756 97.6586ZM70.4852 95.6824C70.4641 95.7196 70.4431 95.7568 70.4221 95.794C70.408 95.8219 70.3917 95.8521 70.3776 95.88C70.3917 95.8521 70.4057 95.8219 70.4221 95.794C70.4431 95.7568 70.4618 95.7196 70.4852 95.6824ZM76.3644 93.0411C76.3644 93.0411 76.3644 93.0411 76.362 93.0411C76.362 93.0411 76.362 93.0411 76.3644 93.0411ZM77.6431 92.4901C77.4116 92.6203 77.1989 92.7226 77.0119 92.8017C77.1989 92.7226 77.414 92.6203 77.6431 92.4901ZM82.9005 80.4023C82.8467 80.751 82.7976 81.1021 82.7485 81.4485C82.7976 81.1021 82.8467 80.7487 82.9005 80.4023Z" fill="#9E9E9E"/>
<path d="M77.8464 148.66C75.7145 148.66 72.9981 148.481 69.6459 147.949C69.5641 147.935 69.5057 147.863 69.5103 147.782C69.8703 141.337 69.5057 135.085 68.421 129.193C68.1148 127.535 67.8857 126.603 67.6823 125.782C67.4322 124.768 67.2335 123.969 67.0301 122.262C66.2727 115.91 66.9039 109.226 67.32 104.801C67.3387 104.608 67.348 104.522 67.3527 104.462C67.3597 104.401 67.362 104.366 67.3691 104.278C67.514 102.583 67.3831 99.2535 65.9361 93.0341C65.3493 90.5137 64.9449 87.9678 64.7345 85.4731C64.4563 82.1808 64.1244 77.661 64.1244 74.8268C63.928 70.644 63.5447 66.2358 62.9836 61.7322C62.7405 59.7838 62.4202 57.8099 62.107 55.9033C61.7727 53.8573 61.4291 51.7415 61.179 49.6467C60.9452 47.6843 60.7371 45.5825 60.7909 43.5132C60.84 41.6114 60.84 39.7467 60.3164 37.8704C60.293 37.7844 60.3421 37.6983 60.4286 37.6728C60.5151 37.6495 60.6016 37.6983 60.6273 37.7844C61.1649 39.7025 61.1649 41.5928 61.1135 43.5202C61.0597 45.5709 61.2678 47.6588 61.4992 49.6095C61.747 51.6974 62.093 53.8108 62.4249 55.8522C62.7358 57.7634 63.0584 59.7373 63.3015 61.6927C63.8626 66.2032 64.2483 70.6185 64.4447 74.8198C64.4447 77.6517 64.7766 82.1599 65.0524 85.4475C65.2628 87.9283 65.6649 90.4579 66.247 92.9643C67.7033 99.2256 67.8319 102.59 67.6846 104.308C67.6776 104.401 67.673 104.434 67.6659 104.496C67.6589 104.557 67.6519 104.643 67.6332 104.834C67.2171 109.244 66.5906 115.908 67.3433 122.227C67.5444 123.913 67.7407 124.706 67.9885 125.71C68.1826 126.496 68.4233 127.472 68.7319 129.139C69.8119 135.01 70.1836 141.241 69.8353 147.658C78.5968 149.032 83.0196 147.921 83.8168 147.684C82.7602 142.432 85.0511 128.093 86.0936 122.132C86.2643 121.148 86.4957 120.211 86.6991 119.421C88.4219 112.736 84.2866 91.9878 84.2446 91.7785C82.8724 78.1376 88.4827 53.5225 88.623 52.9064C90.783 31.5905 87.349 7.93564 87.3139 7.69849C87.2999 7.61014 87.3607 7.53109 87.4495 7.51714C87.5383 7.50319 87.6178 7.56364 87.6318 7.65199C87.6669 7.88914 91.1102 31.5905 88.9409 52.9482C88.9409 52.9552 88.9409 52.9622 88.9386 52.9668C88.8801 53.2156 83.1856 78.0539 84.5625 91.7297C84.7331 92.5691 88.7539 112.743 87.0123 119.5C86.8113 120.283 86.5822 121.213 86.4116 122.185C85.5934 126.866 83.015 142.539 84.1627 147.756C84.1791 147.835 84.137 147.914 84.0599 147.94C83.9407 147.984 82.0004 148.658 77.8441 148.658L77.8464 148.66Z" fill="#F25C00"/>
<path d="M77.8464 148.84C75.3615 148.84 72.5914 148.6 69.6156 148.126C69.4426 148.098 69.3187 147.947 69.328 147.77C69.688 141.341 69.3234 135.101 68.241 129.223C67.9371 127.568 67.7081 126.642 67.5047 125.824C67.2522 124.808 67.0535 124.004 66.8478 122.281C66.0881 115.908 66.7192 109.214 67.1377 104.783L67.1868 104.259C67.3317 102.576 67.1984 99.2676 65.7585 93.0714C65.1694 90.5394 64.7649 87.9865 64.5522 85.4848C64.274 82.1926 63.9421 77.668 63.9421 74.8222C63.7457 70.6465 63.3624 66.2452 62.8037 61.7509C62.5605 59.8025 62.2403 57.8332 61.9294 55.929C61.5951 53.8783 61.2491 51.7626 61.0013 49.6631C60.7676 47.6914 60.5572 45.5803 60.6109 43.5017C60.66 41.6115 60.66 39.7631 60.1411 37.9124C60.092 37.731 60.1972 37.5427 60.3795 37.4939C60.5595 37.4427 60.7489 37.5497 60.8026 37.7287C61.345 39.6724 61.345 41.5766 61.2959 43.518C61.2421 45.5594 61.4502 47.638 61.6816 49.5817C61.927 51.6556 62.2707 53.7551 62.6003 55.7872C62.9182 57.7263 63.2385 59.7002 63.4839 61.6649C64.0473 66.1801 64.4307 70.6023 64.627 74.8036C64.627 77.6332 64.9566 82.1414 65.2348 85.4243C65.4429 87.8959 65.8449 90.4162 66.4247 92.9133C67.8857 99.1978 68.0143 102.581 67.867 104.313L67.8156 104.841C67.4018 109.242 66.773 115.892 67.5234 122.195C67.7244 123.871 67.9184 124.657 68.1639 125.654C68.3603 126.447 68.601 127.426 68.9096 129.095C69.9826 134.931 70.3589 141.12 70.0223 147.493C78.1737 148.751 82.496 147.844 83.6041 147.544C82.6199 142.129 84.8828 127.97 85.9113 122.09C86.0843 121.104 86.3158 120.16 86.5215 119.365C88.2139 112.799 84.2329 92.6575 84.0646 91.8042C82.6901 78.1563 88.2093 53.883 88.4454 52.8553C90.6007 31.5743 87.169 7.9497 87.1339 7.71255C87.1199 7.6242 87.1433 7.53352 87.1971 7.46145C87.2508 7.38704 87.3303 7.34054 87.4215 7.32659C87.6038 7.30102 87.7815 7.42425 87.8095 7.61257C87.8446 7.84973 91.2903 31.579 89.1209 52.9553L89.1116 53.0065C89.0555 53.2459 83.368 78.0517 84.7402 91.7019C84.9108 92.5389 88.9409 112.72 87.1854 119.535C86.9843 120.311 86.7576 121.234 86.5869 122.206C85.7711 126.877 83.195 142.518 84.3358 147.707C84.3732 147.872 84.2797 148.042 84.1184 148.1C84.0366 148.13 82.0589 148.83 77.8418 148.83L77.8464 148.84Z" fill="#F25C00"/>
<path d="M77.8465 148.821C75.3639 148.821 72.5961 148.581 69.6203 148.107C69.4567 148.081 69.3398 147.937 69.3515 147.772C69.7115 141.341 69.3468 135.098 68.2645 129.221C67.9606 127.568 67.7315 126.64 67.5281 125.819C67.2756 124.801 67.0769 123.994 66.8736 122.278C66.1138 115.908 66.745 109.214 67.1634 104.785C67.1821 104.592 67.1915 104.503 67.1962 104.443C67.2032 104.378 67.2055 104.343 67.2125 104.262C67.3575 102.576 67.2265 99.2674 65.7842 93.0666C65.1975 90.5393 64.7907 87.9864 64.5803 85.4823C64.3021 82.1878 63.9702 77.6633 63.9702 74.8221C63.7738 70.6463 63.3905 66.245 62.8318 61.7484C62.5886 59.8001 62.2684 57.8308 61.9575 55.9266C61.6232 53.8759 61.2772 51.7601 61.0294 49.6629C60.7957 47.6936 60.5853 45.5848 60.639 43.5063C60.6881 41.616 60.6881 39.7653 60.1692 37.9122C60.1224 37.7425 60.2229 37.5658 60.3936 37.5193C60.4754 37.4961 60.5619 37.5054 60.6367 37.5472C60.7115 37.5891 60.7653 37.6588 60.7887 37.7402C61.331 39.6793 61.331 41.5835 61.2819 43.5225C61.2281 45.5616 61.4362 47.6425 61.6676 49.5885C61.9154 51.6718 62.259 53.7782 62.591 55.8173C62.9042 57.7354 63.2268 59.7117 63.4699 61.6717C64.031 66.1869 64.4167 70.6068 64.6131 74.8105C64.6131 77.6423 64.945 82.1483 65.2208 85.4312C65.4289 87.905 65.831 90.4277 66.4107 92.9248C67.8717 99.207 68.0003 102.588 67.853 104.317C67.846 104.408 67.8414 104.443 67.8367 104.503C67.8297 104.569 67.8203 104.655 67.8039 104.845C67.3902 109.249 66.7614 115.901 67.5117 122.204C67.7104 123.88 67.9068 124.668 68.1523 125.666C68.3486 126.459 68.5894 127.438 68.8956 129.105C69.971 134.943 70.345 141.137 70.0084 147.516C78.2229 148.786 82.5569 147.861 83.6345 147.565C82.641 142.169 84.9085 127.986 85.9395 122.099C86.1124 121.109 86.3439 120.167 86.5472 119.377C88.2654 112.713 84.1324 92.0134 84.0904 91.8041C83.6953 87.8794 83.6579 80.4812 85.7104 67.4262C86.9587 59.4978 88.38 53.2528 88.4688 52.8738C90.6264 31.5672 87.1948 7.9519 87.1597 7.71475C87.134 7.54037 87.2555 7.37762 87.4309 7.35205C87.6062 7.32647 87.7698 7.44737 87.7955 7.62175C87.8306 7.8589 91.274 31.5928 89.107 52.9575C89.107 52.9738 89.1023 52.9854 89.1 52.9994C89.0439 53.2458 83.3517 78.0423 84.7262 91.7088C84.8969 92.5481 88.9316 112.708 87.1714 119.535C86.9704 120.314 86.7413 121.241 86.573 122.209C85.7571 126.882 83.181 142.529 84.3218 147.719C84.3569 147.875 84.268 148.033 84.1184 148.088C84.0366 148.119 82.059 148.818 77.8488 148.818L77.8465 148.821ZM70.2561 147.881C72.9935 148.293 75.5439 148.5 77.8465 148.5C81.6335 148.5 83.5667 147.935 83.9408 147.812L83.866 147.835C83.0758 148.07 78.7605 149.156 70.2585 147.881H70.2561ZM83.9782 147.663L84.0039 147.791C83.9945 147.749 83.9852 147.707 83.9782 147.663ZM69.6694 147.768C69.6694 147.768 69.6694 147.784 69.6694 147.791V147.768ZM86.2504 122.157C85.2148 128.077 82.9239 142.399 83.9711 147.64C82.8982 142.248 85.4392 126.8 86.2504 122.157ZM66.9601 119.795C67.0138 120.614 67.0886 121.43 67.1845 122.243C67.3855 123.941 67.5842 124.736 67.832 125.745C67.8554 125.838 67.8788 125.933 67.9021 126.031C67.8788 125.933 67.8554 125.84 67.832 125.75C67.5819 124.736 67.3832 123.938 67.1821 122.243C67.0863 121.432 67.0115 120.614 66.9577 119.795H66.9601ZM84.406 91.7808C84.5509 92.5063 88.5366 112.671 86.8722 119.388C88.5576 112.608 84.6257 92.8666 84.406 91.7808ZM67.5141 104.413C67.5141 104.429 67.5117 104.445 67.5094 104.464C67.5071 104.494 67.5024 104.524 67.5001 104.564C67.5047 104.527 67.5071 104.501 67.5094 104.476C67.5117 104.45 67.5141 104.431 67.5164 104.41L67.5141 104.413ZM65.644 90.8973C65.7772 91.5995 65.9268 92.2993 66.0881 92.9992C65.9245 92.2993 65.7772 91.5995 65.644 90.8973ZM63.8673 68.5887C64.0497 70.7068 64.1876 72.7877 64.2834 74.8198C64.1876 72.79 64.0497 70.7091 63.8673 68.5887ZM61.9248 53.7643C62.037 54.4734 62.1515 55.1756 62.2637 55.8708C62.4951 57.2937 62.7336 58.7515 62.9393 60.2093C62.7336 58.7515 62.4951 57.296 62.2637 55.8777C62.1492 55.1802 62.0346 54.4734 61.9224 53.7643H61.9248ZM60.9523 43.5156C60.8985 45.5755 61.1066 47.6704 61.3403 49.6281C61.1066 47.6704 60.9009 45.5755 60.9523 43.5156Z" fill="#F25C00"/>
<path d="M77.8465 149C75.3522 149 72.575 148.758 69.5922 148.284C69.3374 148.242 69.1551 148.019 69.1691 147.761C69.5291 141.344 69.1644 135.117 68.0844 129.253C67.7805 127.603 67.5514 126.68 67.3504 125.864C67.0956 124.836 66.8969 124.027 66.6912 122.302C65.9314 115.915 66.5626 109.212 66.9787 104.775L67.0278 104.25C67.1704 102.578 67.0395 99.2884 65.6042 93.1108C65.0151 90.5719 64.6083 88.012 64.3956 85.501C64.1174 82.2018 63.7855 77.6726 63.7855 74.8268C63.5891 70.658 63.2081 66.2637 62.647 61.7741C62.4039 59.8257 62.0837 57.861 61.7728 55.9592C61.4385 53.9015 61.0925 51.7857 60.8424 49.6862C60.6063 47.71 60.3982 45.5919 60.452 43.504C60.5011 41.6277 60.5011 39.7909 59.9891 37.9634C59.9143 37.6984 60.0709 37.4217 60.3398 37.3473C60.4683 37.3124 60.6039 37.3264 60.7208 37.3915C60.8377 37.4566 60.9242 37.5659 60.9593 37.6937C61.5086 39.6561 61.5086 41.5742 61.4595 43.5296C61.4057 45.557 61.6138 47.6309 61.8429 49.57C62.0907 51.6486 62.4343 53.7527 62.7663 55.7894C63.0842 57.7332 63.4044 59.7025 63.6476 61.6532C64.2109 66.1754 64.5966 70.5999 64.793 74.8059C64.793 77.6424 65.125 82.1437 65.4008 85.4196C65.6088 87.8888 66.0086 90.3998 66.586 92.8876C68.0517 99.1931 68.1826 102.595 68.033 104.338L67.9816 104.868C67.5678 109.267 66.9413 115.908 67.6894 122.19C67.8881 123.857 68.0821 124.638 68.3275 125.629C68.5239 126.419 68.767 127.403 69.0732 129.079C70.1416 134.88 70.5179 141.034 70.1977 147.37C77.8909 148.542 82.1057 147.775 83.4264 147.44C82.5007 141.895 84.7449 127.884 85.7594 122.074C85.9347 121.074 86.1662 120.13 86.3719 119.337C88.0854 112.685 83.9547 92.0529 83.9127 91.846C83.5153 87.9051 83.4755 80.4813 85.5327 67.4053C86.7926 59.3886 88.2326 53.104 88.2911 52.839C90.4254 31.737 87.0124 7.98451 86.9797 7.74735C86.961 7.61483 86.9937 7.48462 87.0732 7.37535C87.1526 7.2684 87.2719 7.19865 87.4028 7.18005C87.6763 7.14052 87.9311 7.32885 87.9732 7.60088C88.0082 7.84035 91.4539 31.6161 89.2846 52.9831L89.2752 53.0459C89.2168 53.297 83.5363 78.0865 84.9062 91.6995C85.0768 92.5365 89.128 112.681 87.3467 119.586C87.148 120.36 86.9189 121.281 86.7506 122.246C85.9347 126.91 83.3633 142.529 84.4971 147.686C84.5508 147.93 84.4129 148.179 84.1768 148.263C84.095 148.293 82.1057 149.002 77.8441 149.002L77.8465 149ZM69.5314 147.782C69.5268 147.854 69.5782 147.914 69.6506 147.928C69.847 147.961 70.0434 147.991 70.2374 148.019L70.2795 147.744C70.1813 147.73 70.0808 147.714 69.9803 147.698L69.819 147.672L69.8283 147.51C70.1626 141.144 69.7909 134.964 68.7179 129.139C68.4468 127.67 68.227 126.735 68.047 125.998L67.7759 126.063C67.9629 126.821 68.1732 127.719 68.4444 129.191C69.5267 135.08 69.8938 141.334 69.5338 147.779L69.674 147.77L69.854 147.784V147.802L69.5314 147.784V147.782ZM83.8963 147.654L83.9033 147.677L84.0062 147.656V147.63L83.8963 147.654ZM84.0062 147.63V147.656L84.1184 147.633C84.1184 147.633 84.116 147.617 84.1137 147.61L84.0062 147.63ZM67.3668 104.55L67.341 104.801C66.9787 108.658 66.4527 114.231 66.8244 119.802L67.1026 119.784C66.7309 114.234 67.2546 108.675 67.6169 104.831L67.6426 104.578L67.3644 104.552L67.3668 104.55ZM86.6641 119.656L86.9352 119.723C86.9539 119.644 86.975 119.567 86.9937 119.491C87.0007 119.467 87.0054 119.442 87.0124 119.419L86.7412 119.351C86.7365 119.374 86.7295 119.398 86.7249 119.421C86.7062 119.498 86.6851 119.574 86.6641 119.656ZM67.3808 104.397L67.659 104.42L67.6707 104.301C67.7268 103.632 67.7431 102.713 67.6543 101.474L67.3761 101.493C67.4626 102.716 67.4486 103.618 67.3925 104.276L67.3808 104.394V104.397ZM84.2703 91.7739C84.2703 91.7739 84.2703 91.7832 84.2703 91.7879C84.2703 91.7902 84.2703 91.7949 84.2727 91.8042L84.5462 91.7507V91.7484V91.746L84.268 91.7763L84.2703 91.7739ZM88.1041 55.4105C87.5571 58.0098 86.6898 62.3856 85.8927 67.4564C83.8659 80.3441 83.8799 87.7144 84.261 91.653L84.5392 91.6274C83.4568 80.4975 86.9843 62.1275 88.3799 55.4686L88.1064 55.4105H88.1041ZM64.4634 81.6484C64.5569 82.9876 64.6621 84.3036 64.7603 85.4661C64.9122 87.268 65.1647 89.0932 65.5153 90.9183L65.7912 90.8672C65.4429 89.0536 65.1927 87.2378 65.0408 85.4429C64.9426 84.2827 64.8374 82.969 64.7439 81.6275L64.4657 81.6461L64.4634 81.6484ZM62.8107 60.2256C62.8808 60.7255 62.9486 61.2277 63.0117 61.7252C63.3016 64.0456 63.5424 66.3428 63.7364 68.5957L64.0146 68.5725C63.8205 66.3172 63.5774 64.0177 63.2876 61.6904C63.2244 61.1905 63.159 60.6883 63.0865 60.1861L62.8107 60.2256ZM88.4594 53.755L88.7329 53.8132C88.8498 53.2854 88.9176 52.9878 88.9223 52.9622C91.0893 31.6208 87.6506 7.88918 87.6155 7.65203C87.6038 7.57763 87.536 7.52415 87.4565 7.53577C87.4191 7.54042 87.3864 7.56135 87.3654 7.58925C87.3443 7.61715 87.3326 7.65668 87.3397 7.69155C87.3747 7.93103 90.7924 31.7277 88.6487 52.8948C88.6371 52.9529 88.5669 53.2505 88.4571 53.755H88.4594ZM61.2281 49.8188C61.3894 51.1394 61.5857 52.4693 61.7938 53.7829L62.0696 53.7388C61.8616 52.4205 61.6652 51.0975 61.5063 49.7839L61.2281 49.8164V49.8188ZM60.4777 37.6844C60.466 37.6844 60.452 37.6844 60.4403 37.6891C60.3655 37.71 60.3211 37.7867 60.3421 37.8611L60.6109 37.7867C60.6016 37.7495 60.5782 37.7216 60.5432 37.703C60.5221 37.6914 60.4987 37.6868 60.4754 37.6868L60.4777 37.6844Z" fill="#F25C00"/>
</svg>
