<svg width="120" height="150" viewBox="0 0 120 150" fill="none" xmlns="http://www.w3.org/2000/svg">
<g clip-path="url(#clip0_29_1656)">
<path d="M115.05 39.2783C114.973 39.2783 114.895 39.2538 114.83 39.2029C114.737 39.1296 113.916 38.3966 113.594 34.9942C113.444 33.3999 112.971 32.0193 112.187 30.8913C109.235 26.6337 102.367 19.6985 89.5613 21.077C89.3699 21.0973 89.1989 20.9589 89.1785 20.7695C89.1581 20.5781 89.2966 20.4071 89.486 20.3867C95.3237 19.7575 100.575 20.7695 105.093 23.3921C108.881 25.5911 111.352 28.4682 112.757 30.4942C113.611 31.722 114.124 33.2146 114.285 34.929C114.574 37.9914 115.262 38.6593 115.268 38.6654C115.419 38.7835 115.439 38.9973 115.321 39.148C115.254 39.2335 115.152 39.2783 115.048 39.2783H115.05Z" fill="#4A4A4A"/>
<path d="M116.52 70.9939C116.463 70.9939 116.404 70.9898 116.345 70.9817L108.528 69.7967C108.392 69.7763 108.261 69.7315 108.139 69.6663L106.396 68.7154C106.227 68.6238 106.166 68.4121 106.258 68.2451C106.349 68.0761 106.561 68.015 106.728 68.1066L108.471 69.0575C108.522 69.084 108.575 69.1023 108.632 69.1125L116.449 70.2976C116.616 70.324 116.787 70.2589 116.897 70.1285L117.772 69.0881C117.842 69.0046 117.882 68.9007 117.886 68.7928L118.108 63.3807C118.127 62.9327 118.391 62.5377 118.801 62.3504C118.97 62.273 119.08 62.1101 119.088 61.9248L119.304 56.9545C119.31 56.81 119.253 56.6715 119.147 56.5738L118.009 55.5251C117.868 55.3948 117.858 55.1749 117.988 55.0344C118.119 54.8939 118.338 54.8837 118.479 55.0141L119.617 56.0627C119.874 56.2989 120.012 56.6369 119.998 56.9851L119.782 61.9554C119.762 62.4033 119.497 62.7963 119.09 62.9816C118.921 63.059 118.811 63.2219 118.803 63.4071L118.581 68.8193C118.571 69.0799 118.471 69.3344 118.304 69.534L117.428 70.5745C117.202 70.8432 116.866 70.996 116.52 70.996V70.9939Z" fill="#4A4A4A"/>
<path d="M73.1821 105.971C70.3641 105.971 67.9125 105.369 65.9476 104.615C62.2336 103.192 59.326 100.048 58.1735 96.2098C55.7891 88.2708 52.965 76.4834 53.0505 65.4128C53.0525 65.034 53.0607 64.6655 53.0668 64.3092C53.2174 58.4796 54.1398 55.6616 54.1785 55.5435L54.8362 55.7634C54.826 55.7919 53.9057 58.616 53.7591 64.3234C53.753 64.6736 53.7448 65.0402 53.7428 65.4168C53.6959 71.4806 54.543 81.7082 58.8373 96.0083C59.9287 99.6428 62.6796 102.618 66.196 103.966C70.582 105.647 77.4846 106.547 85.4745 101.278C85.6558 101.158 85.8981 101.003 86.1485 100.856C88.4311 99.5268 96.3477 94.811 102.379 89.9527C104.391 88.3319 105.822 86.1369 106.518 83.606C109.1 74.2029 109.807 73.9199 110.108 73.7998C110.471 73.6491 112.543 71.8206 112.774 70.4279L113.458 70.5419C113.175 72.2523 110.874 74.2416 110.367 74.4452C110.255 74.5246 109.497 75.388 107.188 83.7912C106.453 86.4627 104.94 88.7819 102.815 90.4943C96.7468 95.3832 88.7915 100.121 86.4967 101.457C86.2585 101.596 86.0284 101.742 85.8553 101.856C81.1864 104.935 76.8717 105.969 73.1821 105.969V105.971Z" fill="#4A4A4A"/>
<path d="M9.96904 120.086C9.77763 120.086 9.62085 119.931 9.62085 119.738V113.996C9.62085 113.804 9.7756 113.647 9.96904 113.647C10.1625 113.647 10.3172 113.802 10.3172 113.996V119.738C10.3172 119.929 10.1625 120.086 9.96904 120.086Z" fill="#4A4A4A"/>
<path d="M24.5562 121.636C24.3648 121.636 24.208 121.481 24.208 121.287V115.366C24.208 115.175 24.3628 115.018 24.5562 115.018C24.7496 115.018 24.9044 115.173 24.9044 115.366V121.287C24.9044 121.479 24.7496 121.636 24.5562 121.636Z" fill="#4A4A4A"/>
<path d="M55.213 121.422C55.2232 121.591 55.1092 121.737 54.9524 121.776C54.9381 121.78 54.9239 121.78 54.9117 121.782C54.9056 121.784 54.8954 121.786 54.8852 121.786H54.8669C54.8669 121.786 54.8506 121.786 54.8445 121.784C54.6694 121.774 54.5289 121.636 54.5207 121.459L54.5024 121.088L54.2255 115.888L54.2092 115.564C54.197 115.372 54.3456 115.207 54.535 115.197C54.7284 115.195 54.8913 115.334 54.9015 115.525L54.9158 115.784L55.1927 120.996L55.2151 121.42L55.213 121.422Z" fill="#4A4A4A"/>
<path d="M9.04884 113.688C8.9959 113.688 8.94296 113.676 8.89409 113.652L0.454138 109.461C0.327895 109.398 0.25052 109.264 0.262737 109.123C0.272918 108.983 0.370655 108.86 0.505042 108.82L17.5051 103.509C17.611 103.477 17.725 103.495 17.8146 103.56C17.9042 103.625 17.9571 103.729 17.9571 103.839L17.9938 111.595C17.9938 111.76 17.8777 111.905 17.7148 111.937L9.11603 113.68C9.09363 113.684 9.0692 113.686 9.0468 113.686L9.04884 113.688ZM1.53942 109.225L9.0977 112.978L17.2994 111.314L17.2668 104.314L1.53942 109.225Z" fill="#4A4A4A"/>
<path d="M71.4983 24.8379C78.9446 18.4402 89.5225 20.7309 89.5225 20.7309C81.109 21.7673 76.0369 28.338 76.0369 28.338C66.9963 37.7024 64.1782 47.0871 63.1988 52.147C57.9638 52.2447 55.1763 51.3895 55.1763 51.3895C61.5128 31.5654 71.4983 24.8379 71.4983 24.8379Z" fill="#4A4A4A"/>
<path d="M63.2009 52.493C63.0095 52.493 62.8527 52.3383 62.8527 52.1448C62.8527 51.9514 63.0074 51.7966 63.1988 51.7966H63.2009C63.3923 51.7966 63.549 51.9514 63.549 52.1448C63.549 52.3383 63.3943 52.493 63.2009 52.493Z" fill="#4A4A4A"/>
<path d="M89.5958 20.3908C89.5958 20.3908 89.5734 20.3867 89.5388 20.3786H89.5347C88.9972 20.2727 85.1569 19.5865 80.6163 20.3664C78.6025 20.7105 76.4523 21.3458 74.3917 22.4453C74.3815 22.4494 74.3733 22.4514 74.3632 22.4555C73.3023 23.0276 72.2659 23.724 71.2865 24.5609C71.0381 24.7319 68.6171 26.4423 65.4406 30.4637C62.423 34.2795 58.1328 40.9928 54.8444 51.2836C54.8159 51.3711 54.824 51.4668 54.8668 51.5503C54.9095 51.6338 54.9849 51.6928 55.0724 51.7213C55.1804 51.7539 57.6747 52.5012 62.364 52.5012C62.6328 52.5012 62.9158 52.4992 63.1988 52.491H63.2029C63.2232 52.491 63.2436 52.489 63.266 52.4849C63.2721 52.4849 63.2782 52.4829 63.2843 52.4808C63.3006 52.4788 63.3169 52.4707 63.3312 52.4646C63.3475 52.4584 63.3617 52.4503 63.376 52.4422C63.3882 52.4381 63.3984 52.4279 63.4106 52.4218C63.4167 52.4157 63.4248 52.4096 63.4289 52.4035C63.435 52.3994 63.4411 52.3933 63.4472 52.3872C63.4513 52.3831 63.4574 52.375 63.4615 52.3709C63.4757 52.3566 63.4839 52.3424 63.4941 52.3261C63.4961 52.322 63.4981 52.32 63.5002 52.3139C63.5103 52.2996 63.5144 52.2854 63.5205 52.2691C63.5266 52.2508 63.5328 52.2324 63.5368 52.2121C63.5389 52.2019 63.5389 52.1958 63.5409 52.1876V52.1836C63.5409 52.1836 63.5429 52.1774 63.5429 52.1734C64.7056 46.2196 67.8596 37.3093 76.2853 28.5803C76.2955 28.5701 76.3016 28.5599 76.3118 28.5497C76.3607 28.4846 81.3717 22.1032 89.5245 21.079C89.5368 21.079 89.5469 21.077 89.5592 21.077C89.5592 21.077 89.5605 21.0763 89.5632 21.075C89.7322 21.0546 89.8625 20.9161 89.8686 20.7471C89.8748 20.5781 89.7607 20.4275 89.5958 20.3928V20.3908ZM62.9117 51.8028C58.986 51.8537 56.4855 51.3528 55.6181 51.1451C61.8448 31.9522 71.594 25.1921 71.6937 25.1269C71.706 25.1208 71.7141 25.1106 71.7263 25.1005C76.9634 20.6005 83.868 20.4946 87.3112 20.7858C80.3332 22.5023 76.0451 27.7699 75.7783 28.1099C67.3547 36.841 64.1294 45.7635 62.9138 51.8028H62.9117Z" fill="#4A4A4A"/>
<path d="M62.5513 56.4617C62.5513 56.4617 62.535 56.4617 62.5269 56.4617L62.423 56.4536C62.2316 56.4393 62.0871 56.2744 62.1013 56.083C62.1156 55.8916 62.2825 55.743 62.4719 55.7613L62.5757 55.7694C62.7671 55.7837 62.9117 55.9486 62.8975 56.14C62.8852 56.3233 62.7325 56.4638 62.5513 56.4638V56.4617Z" fill="#4A4A4A"/>
<path d="M36.1624 92.0723C36.1339 92.0723 36.1033 92.0682 36.0748 92.0621C35.8895 92.0132 35.7775 91.8239 35.8264 91.6386L35.9852 91.0237L41.939 68.0048C42.2505 66.8116 42.7514 65.6896 43.4274 64.6695L50.2771 54.3767C50.383 54.2179 50.5989 54.1731 50.7577 54.2789C50.9165 54.3848 50.9613 54.6007 50.8554 54.7595L44.0057 65.0523C43.3704 66.0052 42.9021 67.0579 42.6109 68.1758L36.4983 91.8096C36.4576 91.9664 36.3171 92.0703 36.1624 92.0703V92.0723Z" fill="#4A4A4A"/>
<path d="M53.0647 64.47C53.0586 64.8243 53.0505 65.1928 53.0485 65.5695L49.0311 70.5866C48.6238 71.0712 48.3103 71.6169 48.1046 72.2135L36.5839 105.417C36.533 105.56 36.3986 105.652 36.2561 105.652C36.2195 105.652 36.1787 105.645 36.1421 105.633C35.9609 105.57 35.8652 105.373 35.9263 105.191L36.191 104.43L47.449 71.9875C47.6831 71.3095 48.0374 70.6864 48.4996 70.1387L53.0627 64.47H53.0647Z" fill="#4A4A4A"/>
<path d="M56.4448 37.4294L56.5262 37.4417C56.3979 38.3274 56.2656 39.4066 56.1353 40.7219C56.1353 40.4287 56.1027 40.1864 56.062 39.9971C55.9846 39.657 56.1231 38.8181 55.7769 38.7754C55.6853 38.7631 55.5957 38.757 55.5061 38.755L56.4468 37.4315L56.4448 37.4294Z" fill="#4A4A4A"/>
<path d="M56.1352 40.7404C56.1291 42.1128 55.4307 44.6112 51.8348 48.3231C51.8348 48.3231 51.8491 44.3485 54.2966 40.4635L55.504 38.7551C55.5936 38.7572 55.6832 38.7653 55.7748 38.7755C56.119 38.8203 55.9825 39.6571 56.0599 39.9972C56.1006 40.1866 56.1332 40.4268 56.1332 40.7221V40.7404H56.1352Z" fill="#4A4A4A"/>
<path d="M36.6856 121.371V126.997C36.6877 128.078 35.8101 128.949 34.5701 129.387C33.8126 129.656 32.9941 129.707 32.1979 129.593L30.4224 129.336L30.4264 129.308C30.6199 129.34 35.8101 130.204 35.8752 125.659L35.7449 121.576V121.358L36.6856 121.362V121.367V121.371Z" fill="#4A4A4A"/>
<path d="M36.5208 104.542L36.6837 115.413V115.423L35.5475 115.417V115.091C35.4335 107.565 35.3174 100.042 35.2054 92.5161C35.1993 92.1109 35.1891 91.5306 35.1688 90.8302C35.1301 89.4924 35.0975 89.1666 35.0324 88.8184C34.8898 88.0528 34.7962 87.5601 34.452 87.108C33.7699 86.2121 32.5564 86.1062 32.1308 86.09L20.5572 84.8581C18.7959 84.5241 18.2726 85.1248 18.2726 85.1248L18.2095 85.0922C18.6961 84.292 19.5798 83.7524 20.5816 83.7524L33.4971 85.0902C35.0242 85.0902 36.2744 86.3404 36.2744 87.8675L36.3233 91.1112L36.5228 104.544L36.5208 104.542Z" fill="#4A4A4A"/>
<path d="M104.016 56.9564C103.943 56.9095 103.865 56.8729 103.79 56.8444C102.542 56.3537 101.114 57.7708 100.958 57.9317C97.5999 60.8617 94.1018 59.4873 93.9531 59.4262C87.3783 56.7507 63.4777 55.7978 62.4739 55.7571H62.4413L55.4165 55.2663C52.7389 54.9406 51.9061 55.0933 51.5844 55.3458C51.507 55.4068 51.4602 55.474 51.4215 55.5392C51.3502 55.6695 51.2728 55.9383 51.5538 56.2804C51.5742 56.3068 51.5946 56.3313 51.621 56.3577C51.621 56.3598 51.6231 56.3598 51.6231 56.3598C52.1871 56.9625 53.1258 57.4002 53.2968 57.4776C53.4027 57.5265 53.7 57.6039 53.7 57.6039C53.7 57.6039 53.7549 57.329 53.7875 57.1702L54.1072 55.8283C54.4045 55.8548 54.9766 55.9098 55.3513 55.9566L60.175 56.2926H60.177L61.0261 56.3537L62.4046 56.4494H62.4331C62.4331 56.4494 62.4962 56.4534 62.5879 56.4555H62.594C64.7442 56.5471 87.5005 57.553 93.6864 60.0676C93.7678 60.1022 94.7533 60.4932 96.1746 60.4932C97.5958 60.4932 99.5526 60.0819 101.424 58.4428C101.43 58.4367 101.438 58.4285 101.446 58.4224C101.458 58.4102 102.558 57.2862 103.397 57.4532C103.487 57.4695 103.576 57.5021 103.656 57.5509C103.82 57.6507 104.032 57.5978 104.132 57.4328C104.23 57.2679 104.177 57.0561 104.012 56.9564H104.016ZM53.1624 56.655C52.6228 56.3822 52.3642 56.1663 52.1036 55.8589C52.2624 55.8059 52.3479 55.7224 53.3355 55.7774L53.1624 56.655Z" fill="#4A4A4A"/>
<path d="M37.0338 126.997C37.0338 128.182 36.1562 129.198 34.6841 129.717C34.1567 129.904 33.5784 130 32.9778 130C32.7049 130 32.426 129.98 32.147 129.939L20.386 128.235C18.6757 128.22 17.287 126.826 17.287 125.109L17.3053 120.947V120.631C17.3094 120.44 17.4621 120.283 17.6535 120.281L17.7268 120.287C17.8836 120.32 18.0017 120.456 18.0017 120.623V121.014L17.9813 125.109C17.9813 126.447 19.0707 127.536 20.4125 127.536C20.4288 127.536 20.4471 127.538 20.4634 127.54L30.3389 128.97L32.2468 129.244C32.4137 129.267 32.5807 129.283 32.7477 129.293C33.3504 129.322 33.9307 129.24 34.4499 129.057C34.4499 129.057 34.4513 129.056 34.454 129.055C35.637 128.638 36.3395 127.868 36.3395 126.99V121.705L36.3375 121.356C36.3415 121.169 36.4942 121.016 36.6856 121.016C36.877 121.016 37.0338 121.173 37.0338 121.364V126.99V126.997Z" fill="#4A4A4A"/>
<path d="M109.662 49.2129C109.353 49.6873 109.005 50.176 108.671 50.6463C108.31 51.1513 107.94 51.6725 107.618 52.1714L97.4615 67.9843C97.4269 68.0352 94.5172 72.3499 92.9228 81.476C92.8393 81.9545 91.3713 88.5659 89.9582 94.819C88.4758 101.388 86.063 105.104 82.5831 106.179L82.5668 106.183C82.5343 106.193 82.5017 106.197 82.4691 106.197C82.3205 106.197 82.182 106.101 82.1372 105.951C82.0822 105.772 82.1779 105.582 82.353 105.523H82.3551C82.3551 105.523 82.3612 105.521 82.3673 105.519C85.5946 104.525 87.8548 100.978 89.2801 94.6663C90.6647 88.5354 92.1572 81.818 92.2366 81.3579C93.8615 72.0628 96.761 67.7766 96.8852 67.5974L103.401 57.4553L103.79 56.8465L107.036 51.7968C107.363 51.2836 107.742 50.7522 108.105 50.2432C108.436 49.7789 108.779 49.2963 109.08 48.8362C109.198 48.6549 109.226 48.4697 109.172 48.2477C108.948 47.3131 107.361 46.2278 106.769 45.8878C106.618 45.8002 106.555 45.6149 106.62 45.4541L108.546 40.7159C108.546 40.7159 108.553 40.6996 108.559 40.6935C108.565 40.6772 108.575 40.663 108.585 40.6487C108.595 40.6345 108.603 40.6243 108.616 40.6121C108.628 40.5999 108.636 40.5897 108.648 40.5815C108.662 40.5673 108.679 40.5591 108.693 40.549C108.715 40.5327 108.742 40.5204 108.77 40.5143C108.787 40.5103 108.803 40.5042 108.821 40.5021C108.838 40.5001 108.854 40.498 108.87 40.498H108.874C108.895 40.498 108.915 40.5001 108.937 40.5042C108.96 40.5082 108.984 40.5164 109.005 40.5245C109.021 40.5306 109.037 40.5388 109.053 40.5469C109.194 40.6324 109.259 40.8137 109.194 40.9745L109.053 41.3227L107.38 45.4378C108.025 45.843 109.571 46.9201 109.852 48.0807C109.949 48.49 109.888 48.8708 109.666 49.2108L109.662 49.2129Z" fill="#4A4A4A"/>
<path d="M118.078 50.3611C118.031 50.2919 118.013 50.2105 118.023 50.127C118.611 45.061 117.805 42.473 117.797 42.4465C117.778 42.3855 117.776 42.3244 117.791 42.2633L118.463 39.2436L116.736 37.6636L112.505 42.7397C112.403 42.864 112.228 42.9026 112.083 42.8293L109.051 41.3246L107.378 45.4397C108.023 45.8449 109.569 46.922 109.85 48.0827C109.947 48.4919 109.886 48.8727 109.664 49.2127C109.355 49.6872 109.007 50.1758 108.673 50.6462C108.312 51.1512 107.942 51.6724 107.62 52.1713L97.4635 67.9842C97.4288 68.0351 94.5191 72.3497 92.9248 81.4758C92.8413 81.9543 91.3733 88.5658 89.9602 94.8189C88.4778 101.388 86.0649 105.104 82.5851 106.179L82.5688 106.183L54.9135 115.783L54.6651 115.869C54.6284 115.883 54.5918 115.887 54.5511 115.887H54.2232L24.9043 115.688H24.7761C24.7374 115.704 24.6946 115.71 24.6518 115.71H24.6152L24.5521 115.7L9.93844 114.34C9.89365 114.336 9.85292 114.323 9.81424 114.303L0.920219 109.726L0.706421 115.148L9.62487 119.298L9.97306 119.461L10.1258 119.532L10.3192 119.55L17.6555 120.281L17.7289 120.287L24.21 120.933L24.5297 120.965H24.9043L54.5002 121.083H54.8239L55.1904 120.994L88.4717 112.646L100.917 75.066C100.929 75.0314 100.945 74.9988 100.968 74.9682L116.39 54.2054C116.492 54.067 116.679 54.0242 116.832 54.1056L118 54.7348L118.725 51.3263L118.078 50.3571V50.3611ZM100.139 72.7733L96.9951 73.5205C96.651 73.604 96.366 73.2436 96.5248 72.926L99.1128 67.8294C99.2981 67.4609 99.8478 67.5566 99.8987 67.9659L100.455 72.3131C100.483 72.5228 100.347 72.7223 100.137 72.7733H100.139ZM109.473 45.4967C109.068 45.3766 108.913 44.7026 109.125 43.9961C109.338 43.2875 109.837 42.813 110.24 42.9332C110.646 43.0554 110.8 43.7273 110.589 44.4359C110.375 45.1445 109.876 45.6189 109.473 45.4967ZM104.71 68.6235L101.874 71.9893C101.666 72.2377 101.263 72.0952 101.253 71.7715L101.155 67.4833C101.149 67.2451 101.381 67.0699 101.611 67.1412L104.545 68.0656C104.784 68.143 104.869 68.4362 104.708 68.6256L104.71 68.6235ZM104.238 66.005L101.507 65.213C101.184 65.1173 101.051 64.7283 101.251 64.4575L103.633 61.2241C103.898 60.8657 104.466 61.0246 104.507 61.4684L104.859 65.496C104.889 65.836 104.57 66.0987 104.24 66.003L104.238 66.005ZM109.752 61.275L106.598 65.6772C106.404 65.948 105.977 65.8157 105.969 65.4858L105.816 60.2773C105.81 60.0472 106.022 59.8741 106.243 59.9291L109.554 60.7354C109.793 60.7924 109.896 61.0755 109.754 61.275H109.752ZM110.693 58.3735C110.676 58.7318 110.318 58.9721 109.98 58.852L106.221 57.5264C105.871 57.4022 105.749 56.9685 105.985 56.6814C107.023 55.4047 108.471 54.521 110.08 54.1769L110.23 54.1464C110.574 54.0731 110.894 54.3459 110.878 54.6982L110.693 58.3735ZM114.842 54.3296L112.419 57.8441C112.197 58.1637 111.696 57.9846 111.729 57.5997L112 54.295C112.014 54.1138 112.157 53.9692 112.34 53.9509L114.494 53.7412C114.814 53.7106 115.023 54.067 114.842 54.3337V54.3296ZM116.247 42.7662C115.826 42.7296 115.539 42.1024 115.606 41.3653C115.673 40.6303 116.068 40.0642 116.489 40.1009C116.911 40.1396 117.196 40.7667 117.129 41.5038C117.062 42.2409 116.667 42.8049 116.247 42.7662ZM117.758 52.3199C117.644 52.9613 117.257 53.4256 116.893 53.3624C116.524 53.2973 116.32 52.7251 116.435 52.0878C116.549 51.4464 116.937 50.9781 117.302 51.0432C117.668 51.1084 117.872 51.6806 117.758 52.3199Z" fill="#4A4A4A"/>
<path d="M36.6816 115.761C36.4922 115.761 36.3375 115.608 36.3355 115.419L35.9262 87.8736C35.9262 86.5277 34.8368 85.4383 33.495 85.4383C33.4828 85.4383 33.4706 85.4383 33.4583 85.4383L20.5612 84.1026C19.7264 84.1087 18.9384 84.5567 18.5026 85.2755C18.2705 85.6542 18.1483 86.0879 18.1483 86.5318L18.0282 114.71C18.0282 114.902 17.8714 115.056 17.68 115.056C17.4886 115.056 17.3339 114.9 17.3339 114.708L17.454 86.5297C17.454 85.9596 17.6108 85.3997 17.9101 84.913C18.4741 83.9845 19.4963 83.4062 20.5795 83.4062C20.5917 83.4062 20.604 83.4062 20.6162 83.4062L33.5133 84.742C35.2278 84.7522 36.6205 86.149 36.6205 87.8675L37.0298 115.409C37.0318 115.6 36.8791 115.759 36.6877 115.761H36.6816Z" fill="#4A4A4A"/>
<path d="M35.5475 115.437C35.3582 115.437 35.2034 115.284 35.2014 115.095C35.0853 107.569 34.9692 100.046 34.8573 92.5201V92.4468C34.8491 92.0477 34.841 91.4959 34.8206 90.8403C34.7819 89.4944 34.7493 89.1991 34.6903 88.8815C34.5539 88.1485 34.4704 87.7046 34.1751 87.3177C33.6254 86.5969 32.65 86.4564 32.1166 86.436C32.1084 86.436 32.1003 86.436 32.0921 86.436L20.5185 85.2042C20.5185 85.2042 20.5002 85.2021 20.49 85.2001C18.9975 84.9191 18.5271 85.3589 18.5231 85.363C18.3968 85.5075 18.181 85.5177 18.0384 85.3915C17.8939 85.2652 17.8837 85.0413 18.0099 84.8967C18.0771 84.8193 18.7145 84.1616 20.6061 84.5159L32.1532 85.7437C32.8109 85.7702 34.0082 85.9575 34.7249 86.8982C35.1199 87.4154 35.2258 87.9774 35.3704 88.7552C35.4416 89.138 35.4742 89.5066 35.5129 90.8199C35.5333 91.4796 35.5414 92.0335 35.5496 92.4346V92.5099C35.6636 100.036 35.7796 107.559 35.8957 115.085C35.8977 115.276 35.745 115.435 35.5536 115.437H35.5475Z" fill="#4A4A4A"/>
<path d="M31.5647 129.741C30.9437 129.741 30.4815 129.67 30.3674 129.652C30.3348 129.646 30.3043 129.637 30.2758 129.623C30.1557 129.568 30.0742 129.448 30.0742 129.308C30.0742 129.088 30.2901 128.917 30.5059 128.972C30.8581 129.029 33.1163 129.334 34.4825 128.194C35.1606 127.628 35.5108 126.775 35.5271 125.657L35.3968 121.59C35.3907 121.399 35.5414 121.238 35.7328 121.232C35.9262 121.22 36.085 121.377 36.0911 121.568L36.2214 125.651C36.2031 126.997 35.7674 128.027 34.9264 128.727C33.9226 129.566 32.5461 129.741 31.5647 129.741Z" fill="#4A4A4A"/>
<path d="M51.8328 48.6692C51.788 48.6692 51.7453 48.6611 51.7025 48.6427C51.5722 48.5898 51.4867 48.4615 51.4867 48.319C51.4867 48.152 51.5295 44.1998 54.0034 40.2741L56.1618 37.2259C56.2737 37.0691 56.4896 37.0325 56.6464 37.1445C56.8032 37.2565 56.8398 37.4723 56.7278 37.6291L54.5796 40.661C52.9283 43.2815 52.4132 45.9774 52.2523 47.3661C55.1416 44.1856 55.779 42.0211 55.7871 40.7363C55.7871 40.5449 55.9439 40.3901 56.1353 40.3901C56.3267 40.3901 56.4814 40.5469 56.4814 40.7383C56.4733 42.2431 55.7056 44.8229 52.0833 48.5613C52.0161 48.6305 51.9265 48.6672 51.8349 48.6672L51.8328 48.6692Z" fill="#4A4A4A"/>
<path d="M51.8185 56.423C51.7391 56.423 51.6617 56.3945 51.6006 56.3456C51.4764 56.254 50.8676 55.7714 50.3769 54.6515C49.8699 53.4991 49.3873 51.414 49.9717 48.034C50.0287 47.6471 51.4459 38.407 55.4714 38.407C55.4857 38.407 55.4999 38.407 55.5142 38.407C55.62 38.409 55.7178 38.4172 55.8216 38.4314C56.3571 38.4986 56.3714 39.1441 56.3795 39.5696C56.3816 39.702 56.3856 39.8506 56.4019 39.9219C56.4569 40.1723 56.4854 40.4411 56.4854 40.7221C56.4854 40.9135 56.3307 41.0703 56.1372 41.0703C55.9438 41.0703 55.789 40.9155 55.789 40.7221C55.789 40.49 55.7667 40.2721 55.7239 40.0726C55.6934 39.9341 55.6893 39.7651 55.6852 39.5839C55.6832 39.4515 55.6771 39.2235 55.6506 39.1115C55.5997 39.1074 55.5508 39.1034 55.4999 39.1034C55.4897 39.1034 55.4796 39.1034 55.4694 39.1034C52.6248 39.1034 51.0325 45.6252 50.6579 48.146C50.102 51.3631 50.5439 53.3077 51.0142 54.3746C51.4642 55.4009 51.9916 55.7735 52.014 55.7877C52.0343 55.802 52.0506 55.8162 52.0669 55.8325C52.13 55.8956 52.1687 55.9812 52.1687 56.0769C52.1687 56.2683 52.014 56.425 51.8205 56.425L51.8185 56.423Z" fill="#4A4A4A"/>
<path d="M56.068 41.7768C56.0578 41.7768 56.0477 41.7768 56.0375 41.7768C55.8461 41.7605 55.7056 41.5915 55.7219 41.4001C55.7422 41.1679 55.7646 40.9399 55.787 40.72C55.787 40.7078 55.787 40.6955 55.787 40.6874C55.9031 39.5064 56.0354 38.3967 56.18 37.3929C56.6544 34.1493 57.078 33.4264 57.1574 33.3144C57.1614 33.3083 57.1676 33.3002 57.1737 33.2941C66.9555 21.5881 80.2944 20.3379 80.4268 20.3257C80.6202 20.3114 80.7852 20.4519 80.8014 20.6433C80.8177 20.8347 80.6752 21.0017 80.4838 21.018C80.3535 21.0282 67.3057 22.2601 57.7194 33.7217C57.6827 33.7889 57.3019 34.5117 56.8662 37.4906C56.7237 38.4802 56.5933 39.5736 56.4793 40.7403C56.4793 40.7526 56.4793 40.7668 56.4793 40.775C56.4569 40.9949 56.4325 41.2249 56.4121 41.4591C56.3958 41.6403 56.2452 41.7768 56.066 41.7768H56.068Z" fill="#4A4A4A"/>
<path d="M82.5831 106.179L82.5669 106.183L54.9115 115.783L54.6631 115.869C54.6265 115.883 54.5898 115.887 54.5491 115.887H54.2213L24.9024 115.688H24.5868C24.5745 115.686 24.5644 115.686 24.5542 115.684C24.375 115.667 24.2386 115.517 24.2426 115.335C24.2447 115.228 24.2935 115.132 24.373 115.071C24.4116 115.036 24.4605 115.014 24.5135 115.002C24.5379 114.995 24.5644 114.989 24.5929 114.989L35.2013 115.061L35.8957 115.065H36.3314L36.6796 115.069H37.0278L54.4961 115.189L82.3571 105.519H82.3592C82.3592 105.519 82.3653 105.517 82.3714 105.515C82.5506 105.46 82.7399 105.556 82.801 105.733C82.8641 105.916 82.7664 106.112 82.5852 106.175L82.5831 106.179Z" fill="#4A4A4A"/>
<path d="M24.9961 115.405C24.9818 115.539 24.8943 115.645 24.7762 115.69C24.7375 115.706 24.6947 115.712 24.6519 115.712H24.6153L24.5522 115.702L9.93854 114.342C9.89374 114.338 9.85302 114.325 9.81433 114.305L0.920317 109.728L0.439779 109.479C0.409237 109.463 0.382766 109.445 0.358332 109.422C0.270777 109.339 0.236162 109.217 0.256524 109.103C0.260596 109.07 0.274849 109.036 0.293175 109.003C0.299283 108.991 0.305392 108.981 0.313536 108.97C0.31348 108.96 0.325754 108.952 0.333898 108.942C0.335934 108.938 0.340007 108.936 0.344079 108.93C0.346115 108.928 0.348151 108.926 0.350188 108.926C0.378694 108.895 0.407201 108.873 0.441816 108.86C0.456069 108.854 0.470322 108.846 0.486611 108.842C0.582312 108.805 0.688193 108.816 0.775748 108.873L10.0709 113.658L17.338 114.336L18.0323 114.401L24.5155 115.006L24.6906 115.022C24.88 115.044 25.0185 115.215 24.9961 115.407V115.405Z" fill="#4A4A4A"/>
<path d="M119.436 51.3324L118.625 55.1441L118.585 55.3376C118.562 55.4434 118.489 55.5351 118.391 55.5799C118.292 55.6267 118.175 55.6206 118.082 55.5697L118.047 55.5513L116.771 54.8611L106.879 68.1797L106.459 68.7417L101.562 75.3388L89.0724 113.047C89.0358 113.159 88.9421 113.244 88.8301 113.273L54.9563 121.772C54.942 121.776 54.9278 121.776 54.9156 121.778C54.8993 121.78 54.885 121.78 54.8708 121.78H54.8484L37.0379 121.709H36.3436L36.1033 121.707H35.7552L35.407 121.704L24.5114 121.66H24.4788L18.0058 121.014L17.3115 120.945L9.99957 120.216C9.96088 120.212 9.92219 120.202 9.88758 120.183L0.20149 115.684C0.0732114 115.622 -0.0041633 115.494 -9.09468e-05 115.356L0.242214 109.164C0.242214 109.143 0.24425 109.123 0.252395 109.103C0.256467 109.07 0.27072 109.035 0.289046 109.003C0.295155 108.991 0.301263 108.98 0.309408 108.97C0.31348 108.96 0.321625 108.952 0.32977 108.942C0.333842 108.938 0.341987 108.93 0.346059 108.925C0.374565 108.895 0.403072 108.873 0.437687 108.86C0.45194 108.854 0.466193 108.846 0.482483 108.842C0.52117 108.83 0.561894 108.826 0.602617 108.828C0.625015 108.828 0.647413 108.832 0.667775 108.838H0.669811C0.808271 108.87 0.91008 108.985 0.930441 109.123C0.934514 109.143 0.934514 109.168 0.934514 109.188L0.914152 109.728L0.700354 115.15L9.6188 119.3L9.96699 119.463L10.1197 119.534L10.3131 119.552L17.6495 120.283L17.7228 120.289L24.2039 120.935L24.5236 120.967H24.8983L54.4941 121.085H54.8178L55.1843 120.996L88.4656 112.648L100.911 75.068C100.923 75.0334 100.939 75.0008 100.962 74.9703L116.384 54.2075C116.485 54.069 116.673 54.0263 116.825 54.1077L117.994 54.7369L118.719 51.3283L118.072 50.3591C118.025 50.2899 118.006 50.2084 118.017 50.125C118.605 45.059 117.799 42.471 117.791 42.4445C117.772 42.3834 117.77 42.3224 117.785 42.2613L118.456 39.2416L116.73 37.6616L112.499 42.7377C112.397 42.8619 112.222 42.9006 112.077 42.8273L109.045 41.3226L108.709 41.1556C108.538 41.0701 108.469 40.8624 108.555 40.6914C108.561 40.6751 108.571 40.6608 108.581 40.6466C108.591 40.6323 108.599 40.6222 108.612 40.6099C108.624 40.5977 108.632 40.5875 108.644 40.5794C108.658 40.5651 108.675 40.557 108.689 40.5468C108.711 40.5305 108.738 40.5183 108.766 40.5122C108.783 40.5081 108.799 40.502 108.817 40.5C108.834 40.4979 108.85 40.4959 108.866 40.4959H108.87C108.891 40.4959 108.911 40.4979 108.933 40.502C108.956 40.5061 108.98 40.5142 109 40.5224C109.007 40.5244 109.017 40.5265 109.023 40.5326L109.049 40.5468L112.146 42.0821L114.681 39.0421L115.142 38.4882L116.433 36.9367C116.494 36.8634 116.581 36.8186 116.675 36.8125C116.771 36.8023 116.862 36.8389 116.931 36.9021L119.075 38.8649C119.167 38.9484 119.208 39.0747 119.179 39.1968L118.485 42.3244C118.632 42.8416 119.253 45.4051 118.725 50.0781L119.385 51.0636C119.436 51.143 119.454 51.2367 119.436 51.3304V51.3324Z" fill="#4A4A4A"/>
<path d="M75.1696 45.4422L84.0575 40.6125C84.933 40.136 85.8636 39.7654 86.8267 39.5088L95.4336 37.2141C95.9324 37.0817 96.4659 37.2243 96.8304 37.5887L97.7691 38.5274C98.1906 38.9489 98.4838 39.4783 98.6141 40.0586L98.6752 40.3274C98.8605 41.1398 98.3209 41.9421 97.4983 42.0765L89.8789 43.3328C88.6592 43.5344 87.4884 43.9681 86.4316 44.6095L79.0016 49.1236C78.6779 49.3212 78.289 49.3782 77.9225 49.2825L76.2609 48.8528C75.3406 48.6146 74.6401 47.8694 74.463 46.9348C74.349 46.3361 74.6361 45.7314 75.1716 45.4402L75.1696 45.4422Z" fill="#4A4A4A"/>
<path d="M99.0152 40.2499L98.9541 39.9811C98.8055 39.3357 98.4817 38.7472 98.0134 38.2789L97.0767 37.3422C96.6247 36.8902 95.9609 36.7131 95.344 36.878L86.735 39.1728C85.7475 39.4375 84.7884 39.8182 83.8905 40.3069L75.0026 45.1367C74.3306 45.5032 73.9763 46.2525 74.1189 47.0018C74.3225 48.0627 75.1288 48.9199 76.1713 49.1907L77.8328 49.6183C77.9754 49.655 78.122 49.6733 78.2686 49.6733C78.5883 49.6733 78.9059 49.5857 79.1808 49.4188L86.6108 44.9046C87.637 44.2815 88.7549 43.8682 89.9359 43.6727L97.5552 42.4164C98.048 42.3349 98.4736 42.0621 98.7525 41.6447C99.0335 41.2313 99.1251 40.7325 99.0131 40.2458L99.0152 40.2499ZM97.4433 41.7343L89.8239 42.9906C88.5533 43.1983 87.352 43.6442 86.2524 44.3121L78.8204 48.8283C78.5801 48.9749 78.2828 49.0176 78.008 48.9484L76.3464 48.5188C75.5625 48.3172 74.9557 47.6697 74.803 46.8736C74.7908 46.8064 74.7847 46.7392 74.7847 46.674C74.7847 46.2912 74.9903 45.9349 75.3365 45.7476L84.2244 40.9178C85.0755 40.4556 85.9816 40.0931 86.9183 39.8447L95.5272 37.5479C95.6188 37.5255 95.7145 37.5133 95.8082 37.5133C96.0973 37.5133 96.3804 37.6273 96.5901 37.835L97.5267 38.7716C97.9014 39.1463 98.16 39.6187 98.2781 40.1359L98.3412 40.4046C98.4084 40.704 98.3514 41.0094 98.1783 41.2639C98.0093 41.5184 97.7487 41.6854 97.4453 41.7363L97.4433 41.7343Z" fill="#4A4A4A"/>
<path d="M118.078 50.3611C118.031 50.2919 118.013 50.2105 118.023 50.127C118.611 45.061 117.805 42.473 117.797 42.4465C117.778 42.3855 117.776 42.3244 117.791 42.2633L118.463 39.2436L116.736 37.6636L112.505 42.7397C112.403 42.864 112.228 42.9026 112.083 42.8293L109.051 41.3246L107.378 45.4397C108.023 45.8449 109.569 46.922 109.85 48.0827C109.947 48.4919 109.886 48.8727 109.664 49.2127C109.355 49.6872 109.007 50.1758 108.673 50.6462C108.312 51.1512 107.942 51.6724 107.62 52.1713L97.4635 67.9842C97.4289 68.0351 94.5192 72.3497 92.9249 81.4758C92.8414 81.9543 91.3733 88.5658 89.9602 94.8189C88.4779 101.388 86.065 105.104 82.5852 106.179L82.5689 106.183L54.9136 115.783L55.1905 120.996L88.4718 112.648L100.917 75.068C100.929 75.0334 100.945 75.0008 100.968 74.9703L116.39 54.2075C116.492 54.069 116.679 54.0262 116.832 54.1077L118 54.7369L118.725 51.3283L118.078 50.3591V50.3611ZM100.139 72.7733L96.9952 73.5205C96.6511 73.604 96.366 73.2436 96.5249 72.926L99.1129 67.8294C99.2981 67.4609 99.8479 67.5566 99.8988 67.9659L100.455 72.3131C100.483 72.5228 100.347 72.7223 100.137 72.7733H100.139ZM109.473 45.4967C109.068 45.3766 108.913 44.7026 109.125 43.9961C109.339 43.2875 109.837 42.813 110.241 42.9332C110.646 43.0554 110.8 43.7273 110.589 44.4359C110.375 45.1445 109.876 45.6189 109.473 45.4967ZM104.71 68.6235L101.874 71.9893C101.666 72.2377 101.263 72.0952 101.253 71.7715L101.155 67.4833C101.149 67.2451 101.381 67.0699 101.611 67.1412L104.545 68.0656C104.784 68.143 104.869 68.4362 104.708 68.6256L104.71 68.6235ZM104.238 66.005L101.507 65.213C101.184 65.1173 101.051 64.7283 101.251 64.4575L103.633 61.2241C103.898 60.8657 104.466 61.0246 104.507 61.4684L104.859 65.496C104.889 65.836 104.57 66.0987 104.24 66.003L104.238 66.005ZM109.752 61.275L106.598 65.6772C106.404 65.948 105.977 65.8157 105.969 65.4858L105.816 60.2773C105.81 60.0472 106.022 59.8741 106.244 59.9291L109.554 60.7354C109.793 60.7924 109.896 61.0755 109.754 61.275H109.752ZM110.693 58.3735C110.676 58.7318 110.318 58.9721 109.98 58.852L106.221 57.5264C105.871 57.4022 105.749 56.9685 105.985 56.6814C107.023 55.4047 108.471 54.521 110.08 54.1769L110.23 54.1464C110.574 54.0731 110.894 54.3459 110.878 54.6982L110.693 58.3735ZM114.842 54.3296L112.419 57.8441C112.197 58.1637 111.696 57.9846 111.729 57.5997L112 54.295C112.014 54.1138 112.157 53.9692 112.34 53.9509L114.494 53.7412C114.814 53.7106 115.024 54.067 114.842 54.3337V54.3296ZM116.247 42.7662C115.826 42.7296 115.539 42.1024 115.606 41.3653C115.673 40.6303 116.068 40.0642 116.49 40.1009C116.911 40.1396 117.196 40.7667 117.129 41.5038C117.062 42.2409 116.667 42.8049 116.247 42.7662ZM117.758 52.3199C117.644 52.9613 117.257 53.4256 116.893 53.3624C116.524 53.2973 116.321 52.7251 116.435 52.0878C116.549 51.4464 116.938 50.9781 117.302 51.0432C117.669 51.1084 117.872 51.6806 117.758 52.3199Z" fill="#4A4A4A"/>
</g>
<defs>
<clipPath id="clip0_29_1656">
<rect width="120" height="150" fill="white"/>
</clipPath>
</defs>
</svg>
