<svg width="120" height="150" viewBox="0 0 120 150" fill="none" xmlns="http://www.w3.org/2000/svg">
<path d="M71.4746 131.832L71.431 141.048H39.2121C38.1484 141.048 37.2881 140.197 37.2881 139.148V133.735C37.2881 132.686 38.1484 131.832 39.2121 131.832H71.4717H71.4746Z" fill="#4A4A4A"/>
<path d="M39.212 141.499H71.2159C71.4688 141.499 71.6722 141.298 71.6722 141.048C71.6722 140.798 71.4688 140.596 71.2159 140.596H39.212C38.4041 140.596 37.7444 139.947 37.7444 139.151V133.738C37.7444 132.939 38.4012 132.287 39.212 132.287H71.2711C71.524 132.287 71.7274 132.085 71.7274 131.835C71.7274 131.585 71.524 131.384 71.2711 131.384H39.212C37.8984 131.384 36.8318 132.439 36.8318 133.738V139.151C36.8318 140.447 37.9013 141.502 39.212 141.502V141.499Z" fill="#4A4A4A"/>
<path d="M29.9614 146H69.7483C70.9108 146 71.864 145.063 71.8728 143.911L71.9425 129.421C71.9425 128.855 71.7245 128.326 71.3206 127.926C70.9195 127.527 70.3847 127.308 69.818 127.308H67.6528C67.4 127.308 67.1966 127.509 67.1966 127.759C67.1966 128.009 67.4 128.211 67.6528 128.211H69.818C70.1406 128.211 70.4458 128.334 70.6725 128.561C70.9021 128.788 71.027 129.093 71.027 129.415L70.9573 143.902C70.9515 144.557 70.4109 145.092 69.7454 145.092H29.9585C29.29 145.092 28.7495 144.554 28.7495 143.893V129.383C28.7495 128.722 29.2929 128.185 29.9585 128.185H30.7722C31.0251 128.185 31.2285 127.984 31.2285 127.734C31.2285 127.483 31.0251 127.282 30.7722 127.282H29.9585C28.7873 127.282 27.834 128.225 27.834 129.383V143.893C27.834 145.052 28.7873 145.994 29.9585 145.994L29.9614 146Z" fill="#4A4A4A"/>
<path d="M88.1157 54.7446C98.4533 61.3125 95.1954 69.3665 95.1954 69.3665C92.943 75.6873 75.0346 98.2627 75.0346 98.2627C64.8859 108.786 60.7967 79.8005 60.7967 79.8005C57.6493 60.5997 61.1746 23.572 61.1746 23.572C63.1566 12.1348 66.4843 15.3886 66.4843 15.3886L66.6035 15.3742C66.8941 17.4955 67.0249 20.0968 66.8447 23.2184C66.7343 25.0695 66.6413 26.9206 66.5948 28.7746C66.4117 36.041 66.06 52.3646 66.4436 57.4321C66.4436 57.4321 66.65 64.1007 68.8529 66.1099C70.9687 68.0386 74.154 73.3389 75.5461 75.4401C75.9123 75.992 76.5197 76.3455 77.1852 76.3829C78.307 76.449 80.0101 76.4663 80.7193 76.0466C81.2889 75.7103 86.5085 67.2079 86.7875 65.2878C86.8515 64.8423 86.6277 59.3867 87.8222 54.6756L88.1215 54.7475L88.1157 54.7446Z" fill="#4A4A4A"/>
<path d="M46.5357 56.0754L46.5909 56.0811C45.7045 63.4999 45.2279 68.898 45.2279 68.898C41.255 70.3668 39.7903 62.1691 39.7903 62.1691C36.7009 48.6049 37.4129 29.5449 37.4129 29.5449C36.8607 15.883 43.9956 14.7361 43.9956 14.7361L46.5386 56.0754H46.5357Z" fill="#4A4A4A"/>
<path d="M31.4114 73.0486L25.9709 49.5679C24.4102 42.0341 29.6851 40.2922 29.6851 40.2922H29.7461C29.9059 56.5325 31.4143 73.0458 31.4143 73.0458L31.4114 73.0486Z" fill="#4A4A4A"/>
<path d="M21.9661 66.9146C22.6374 72.7639 22.4863 78.5788 22.4863 78.5788C18.6645 67.3974 21.9515 66.9146 21.9515 66.9146H21.9632H21.9661Z" fill="#4A4A4A"/>
<path d="M22.4863 79.0301C22.5095 79.0301 22.5328 79.0301 22.556 79.0243C22.774 78.9927 22.9397 78.8088 22.9455 78.5874C22.9455 78.5299 23.0879 72.6748 22.4224 66.8629C21.9109 62.4018 21.0622 59.1135 19.8997 57.0842C19.8445 56.9922 15.1218 48.6134 30.0019 31.6029C30.1676 31.4131 30.1472 31.1286 29.9554 30.9647C29.7636 30.8009 29.4759 30.821 29.3102 31.0107C13.936 48.5876 18.8912 57.1819 19.1092 57.5412C20.1758 59.401 20.9721 62.4622 21.472 66.6272C21.2628 66.7508 21.0041 66.9635 20.7774 67.3314C20.0072 68.576 19.6062 71.5596 22.0562 78.7225C22.1201 78.9094 22.2945 79.0301 22.4892 79.0301H22.4863ZM21.5941 67.7453C21.8934 70.6714 21.998 73.54 22.03 75.5866C20.6553 70.6542 21.0768 68.6593 21.5127 67.8804C21.5389 67.8315 21.5679 67.7855 21.5941 67.7453Z" fill="#4A4A4A"/>
<path d="M20.5158 96.0953C20.7628 96.0953 20.9663 95.8998 20.9721 95.6526C21.0971 90.1223 20.6088 84.3276 19.6323 79.7602C17.6502 70.4271 20.138 65.9287 21.7946 64.0804C21.9631 63.8936 21.9457 63.609 21.7568 63.4423C21.5679 63.2756 21.2772 63.2929 21.1116 63.4797C16.9818 68.0844 17.8508 75.7734 18.7372 79.947C19.6991 84.4512 20.1787 90.1654 20.0566 95.6325C20.0508 95.8826 20.2513 96.0895 20.5042 96.0953H20.5158Z" fill="#4A4A4A"/>
<path d="M70.7799 101.013C72.2621 101.013 73.7995 100.197 75.366 98.5729C75.3776 98.5614 75.3863 98.5528 75.3951 98.5413C76.1274 97.6186 93.3762 75.8366 95.6285 69.5187C95.6576 69.4497 96.4772 67.3715 95.986 64.4454C95.5355 61.7694 93.847 57.8487 88.3658 54.365C88.1536 54.2299 87.8717 54.2902 87.7351 54.5001C87.5985 54.7099 87.6595 54.9887 87.8717 55.1238C91.987 57.7395 94.4806 61.0105 95.0851 64.592C95.5355 67.2709 94.7828 69.1795 94.7741 69.1968C92.5915 75.3192 75.273 97.2277 74.6917 97.9635C72.9509 99.7629 71.3117 100.43 69.8237 99.9583C63.9066 98.0728 61.2793 79.9182 61.2531 79.7371C59.6314 69.8464 59.8232 55.1209 60.265 44.5087C60.7358 33.2297 61.5874 24.0834 61.631 23.6321C62.7586 17.1389 64.2611 15.7305 65.0574 15.4689C65.6823 15.2648 66.1502 15.6931 66.1676 15.7132C66.3478 15.8828 66.6385 15.8799 66.8128 15.7017C66.9872 15.5235 66.9872 15.2418 66.807 15.0665C66.7722 15.032 65.941 14.2358 64.7872 14.6037C63.0143 15.1671 61.6484 18.1593 60.7242 23.4942C60.7242 23.5057 60.7213 23.5172 60.7184 23.5287C60.7097 23.6206 59.832 32.9307 59.3466 44.4656C58.902 55.1209 58.7102 69.9153 60.3435 79.8722C60.451 80.6339 63.0783 98.7626 69.536 100.821C69.9458 100.95 70.3585 101.016 70.777 101.016L70.7799 101.013Z" fill="#4A4A4A"/>
<path d="M30.775 128.193H69.0536C69.2948 128.193 69.4924 128.01 69.5098 127.774C69.6726 125.451 72.3551 120.375 77.0691 113.488C78.9175 110.786 80.7513 108.386 82.6724 106.153C90.4408 97.1272 97.5699 82.7352 100.276 76.9663C101.307 74.7674 101.871 72.4248 101.95 70.0017C102.2 62.054 101.65 51.8414 97.6193 48.3404C96.2185 47.1245 94.8845 47.1217 94.2132 47.228C94.033 47.2567 93.8557 47.2769 93.6813 47.2941C93.5738 47.3056 93.4663 47.3171 93.3587 47.3315C90.5193 47.6879 88.5082 50.1225 87.3776 54.5692C86.3953 58.4553 86.3604 62.8847 86.3459 64.5548C86.3459 64.8681 86.3401 65.167 86.3343 65.2331C86.0814 66.9865 81.164 75.0434 80.4665 75.6757C80.0044 75.9344 78.7925 76.0321 77.2144 75.9402C76.6971 75.9085 76.2175 75.6326 75.9298 75.1986C75.6682 74.8048 75.3427 74.296 74.9736 73.7183C73.3607 71.2003 70.9252 67.3918 69.1669 65.7879C67.1325 63.931 66.9087 57.4924 66.9058 57.4292C66.5222 52.3185 66.8855 35.7046 67.0599 28.7975C67.1093 26.7653 67.2197 24.7676 67.3098 23.2557C67.4755 20.3871 67.3941 17.7196 67.0657 15.3224C66.6588 12.3014 65.9351 10.2319 65.3975 9.02753C64.6622 7.36614 63.2032 6.16177 61.4973 5.80822C60.2505 5.5524 59.088 5.76798 58.0446 6.45496C55.3621 8.21983 53.97 12.8045 53.2783 16.3399C52.6099 19.7576 51.9821 22.5888 51.305 25.2534C48.9916 34.3393 47.2216 47.0095 46.1463 56.038C45.3849 62.399 44.9228 67.3314 44.8094 68.5674C44.2979 68.6967 43.8213 68.6306 43.3621 68.3719C41.1737 67.1359 40.2582 62.1489 40.2466 62.0972C37.2037 48.7256 37.8693 29.7575 37.8751 29.5678C37.8751 29.5563 37.8751 29.5448 37.8751 29.5333C37.349 16.4894 44.0073 15.2017 44.0771 15.1902C44.3241 15.1471 44.4927 14.9143 44.452 14.6699C44.4113 14.4256 44.1759 14.256 43.9288 14.2991C43.6208 14.348 36.4074 15.6673 36.9625 29.5535C36.9392 30.2347 36.326 48.99 39.3515 62.2754C39.3863 62.4766 40.3483 67.7108 42.9087 69.1566C43.6847 69.5964 44.5217 69.6539 45.3965 69.3291C45.5622 69.2687 45.6755 69.1193 45.6929 68.9439C45.6988 68.8893 46.1783 63.4654 47.0531 56.1386C48.1284 47.136 49.8925 34.506 52.1914 25.469C52.8743 22.7872 53.505 19.9415 54.1763 16.5067C54.8361 13.1408 56.1323 8.7947 58.5503 7.20517C59.3931 6.65042 60.297 6.48083 61.3083 6.69066C62.7266 6.98384 63.9414 7.99275 64.5576 9.38682C65.072 10.5394 65.7666 12.5228 66.156 15.4374C66.4757 17.7771 66.5542 20.3871 66.3943 23.1982C66.3042 24.7159 66.1938 26.7222 66.1444 28.7688C65.97 35.6903 65.6067 52.3386 65.9933 57.4694C66.002 57.731 66.2316 64.3334 68.5479 66.4461C70.219 67.9695 72.6167 71.7177 74.2035 74.1954C74.5755 74.7789 74.9039 75.2906 75.1684 75.6901C75.613 76.3598 76.3599 76.791 77.165 76.837C79.0511 76.9491 80.327 76.814 80.9606 76.4346C81.5738 76.0724 84.1546 71.6746 84.2621 71.4877C85.2996 69.7171 87.0666 66.5639 87.2439 65.351C87.2585 65.2417 87.2614 65.0405 87.2643 64.5548C87.2759 62.9164 87.3108 58.5645 88.2669 54.7819C89.2958 50.7347 91.0482 48.5272 93.475 48.2225C93.5767 48.211 93.6784 48.1995 93.7801 48.188C93.9749 48.1679 94.1725 48.1478 94.3643 48.1133C94.8729 48.0328 95.8988 48.0386 97.0177 49.0101C99.0957 50.8152 101.479 55.9172 101.037 69.9643C100.962 72.2638 100.427 74.4915 99.4474 76.5783C96.7591 82.3155 89.6736 96.6213 81.9778 105.561C80.0335 107.82 78.1822 110.246 76.3134 112.977C73.0613 117.734 69.1669 123.974 68.6467 127.288H31.2488C31.2575 125.707 30.8855 120.714 26.1977 117.248C26.1889 117.242 25.4479 116.676 24.5382 115.092C24.4248 114.888 24.3028 114.67 24.1807 114.428C24.0674 114.204 23.7942 114.115 23.5675 114.227C23.3408 114.339 23.2507 114.609 23.3641 114.833C23.4919 115.086 23.6198 115.319 23.7419 115.535C24.762 117.314 25.6193 117.949 25.6542 117.975C30.7489 121.743 30.3246 127.644 30.3188 127.705C30.3071 127.831 30.3507 127.955 30.4379 128.05C30.5251 128.142 30.6472 128.196 30.775 128.196V128.193ZM80.4839 75.6556C80.4839 75.6556 80.4839 75.6556 80.481 75.6556C80.481 75.6556 80.481 75.6556 80.4839 75.6556Z" fill="#4A4A4A"/>
<path d="M31.4114 73.4997C31.4347 73.4997 31.4579 73.4997 31.4841 73.494C31.7224 73.4566 31.8881 73.2439 31.8677 73.0053C31.8532 72.8415 30.3594 56.3224 30.2024 40.2863C30.0978 29.7086 30.586 21.7063 31.6526 16.5066C31.888 15.3539 32.1031 14.1381 32.2949 12.8906C33.4167 5.47471 36.8287 4.72162 38.7643 4.9372C38.7963 4.94008 38.8253 4.94008 38.8573 4.9372C38.9038 4.93145 40.0605 4.85959 41.2172 5.94323C42.3448 7.00101 43.6614 9.38099 43.5393 14.7245C43.5393 14.736 43.5393 14.7503 43.5393 14.7618L46.0823 56.1011C46.0968 56.3512 46.3061 56.5409 46.5676 56.5265C46.8205 56.5122 47.0123 56.2966 46.9978 56.0465L44.4577 14.7273C44.5594 10.1571 43.673 6.97226 41.8217 5.26201C40.4877 4.03752 39.116 4.02315 38.8253 4.03465C36.5061 3.7932 34.5705 4.85385 33.2307 7.10161C32.1409 8.92971 31.6294 11.1861 31.3911 12.7584C31.2051 13.9915 30.99 15.193 30.7575 16.3312C29.688 21.5396 29.1939 29.4901 29.284 39.9672C28.8161 40.1713 27.7902 40.7117 26.8864 41.8241C25.7994 43.1549 24.6805 45.5982 25.5233 49.6625L30.9668 73.1519C31.0162 73.3589 31.2022 73.5026 31.4114 73.5026V73.4997ZM29.2927 40.9647C29.4119 50.8324 30.0193 60.795 30.4669 66.9519L26.4155 49.4671C25.2414 43.7988 28.0605 41.6258 29.2927 40.9647Z" fill="#4A4A4A"/>
<path d="M22.8555 114.704C22.8817 114.704 22.9049 114.704 22.9311 114.704L46.2394 113.882C47.335 113.842 48.2156 112.93 48.2011 111.844L47.9773 95.6612C47.9686 95.1007 47.7361 94.5862 47.3205 94.2068C46.9049 93.8274 46.3673 93.6434 45.8005 93.6808L20.5915 95.437C20.0335 95.4773 19.5075 95.7446 19.1558 96.1757C18.8013 96.6069 18.6443 97.1674 18.7199 97.7193L20.8444 112.968C20.9839 113.971 21.8412 114.704 22.8584 114.704H22.8555ZM45.9459 94.5805C46.2278 94.5805 46.4922 94.6811 46.7015 94.8736C46.9311 95.0806 47.059 95.3652 47.0619 95.6727L47.2856 111.855C47.2944 112.453 46.809 112.956 46.2074 112.976L22.8991 113.799C22.3091 113.824 21.8296 113.408 21.7511 112.844L19.6266 97.5957C19.5831 97.2881 19.6702 96.9863 19.8679 96.7477C20.0655 96.5063 20.3474 96.3626 20.6584 96.3424L45.8674 94.5862C45.8935 94.5862 45.9226 94.5862 45.9488 94.5862L45.9459 94.5805Z" fill="#4A4A4A"/>
<path d="M22.8555 114.853H22.934L46.2452 114.029C47.4222 113.985 48.3668 113.005 48.3523 111.841L48.1285 95.6584C48.1197 95.0576 47.8698 94.5029 47.4222 94.0976C46.9747 93.6923 46.3992 93.4882 45.7889 93.5342L20.5799 95.2905C19.9783 95.3336 19.4174 95.621 19.0367 96.0838C18.656 96.5466 18.4874 97.1502 18.5688 97.7394L20.6903 112.988C20.8415 114.069 21.7511 114.853 22.8526 114.853H22.8555ZM45.9459 93.8245C46.4196 93.8245 46.8642 93.997 47.2188 94.316C47.6053 94.6667 47.8204 95.1439 47.8262 95.6613L48.05 111.844C48.0645 112.847 47.2479 113.695 46.2336 113.73L22.8555 114.555C21.9052 114.555 21.1205 113.879 20.9926 112.945L18.871 97.6963C18.8013 97.1876 18.9495 96.6673 19.275 96.2677C19.6034 95.8682 20.0858 95.621 20.6061 95.5836L45.8151 93.8274C45.8616 93.8245 45.9052 93.8217 45.9517 93.8217L45.9459 93.8245ZM22.8497 113.948C22.8671 113.948 22.8875 113.948 22.9049 113.948L46.2132 113.126C46.8991 113.103 47.4484 112.531 47.4368 111.853L47.213 95.6699C47.2072 95.3221 47.0619 95.0001 46.8032 94.7644C46.5475 94.5287 46.2074 94.408 45.8558 94.4368L20.6467 96.193C20.2922 96.2189 19.9754 96.3827 19.7516 96.6529C19.5278 96.926 19.4319 97.268 19.4784 97.6158L21.6 112.867C21.6872 113.494 22.219 113.951 22.8497 113.951V113.948ZM45.9459 94.7271C46.19 94.7271 46.4167 94.8133 46.5998 94.98C46.7974 95.1611 46.9107 95.4054 46.9136 95.6728L47.1374 111.856C47.1461 112.373 46.7247 112.807 46.2045 112.827L22.8962 113.649C22.3905 113.669 21.972 113.321 21.9023 112.821L19.7807 97.5698C19.7429 97.3054 19.8185 97.0438 19.9899 96.834C20.1614 96.627 20.4026 96.5006 20.6729 96.4833L45.8819 94.7271C45.9052 94.7271 45.9284 94.7271 45.9517 94.7271H45.9459Z" fill="#4A4A4A"/>
</svg>
