<svg width="120" height="150" viewBox="0 0 120 150" fill="none" xmlns="http://www.w3.org/2000/svg">
<path d="M48.5245 131.832L48.5681 141.048H80.7871C81.8508 141.048 82.711 140.197 82.711 139.148V133.735C82.711 132.686 81.8508 131.832 80.7871 131.832H48.5274H48.5245Z" fill="#9E9E9E"/>
<path d="M80.7871 141.499H48.7832C48.5304 141.499 48.3269 141.298 48.3269 141.048C48.3269 140.798 48.5304 140.596 48.7832 140.596H80.7871C81.595 140.596 82.2548 139.947 82.2548 139.151V133.738C82.2548 132.939 81.598 132.287 80.7871 132.287H48.728C48.4752 132.287 48.2717 132.085 48.2717 131.835C48.2717 131.585 48.4752 131.384 48.728 131.384H80.7871C82.1007 131.384 83.1673 132.439 83.1673 133.738V139.151C83.1673 140.447 82.0978 141.502 80.7871 141.502V141.499Z" fill="#9E9E9E"/>
<path d="M90.0378 146H50.2509C49.0884 146 48.1351 145.063 48.1264 143.911L48.0566 129.421C48.0566 128.855 48.2746 128.326 48.6786 127.926C49.0796 127.527 49.6144 127.308 50.1811 127.308H52.3463C52.5991 127.308 52.8026 127.509 52.8026 127.759C52.8026 128.009 52.5991 128.211 52.3463 128.211H50.1811C49.8585 128.211 49.5534 128.334 49.3267 128.561C49.0971 128.788 48.9721 129.093 48.9721 129.415L49.0419 143.902C49.0477 144.557 49.5882 145.092 50.2538 145.092H90.0407C90.7091 145.092 91.2497 144.554 91.2497 143.893V129.383C91.2497 128.722 90.7062 128.185 90.0407 128.185H89.2269C88.9741 128.185 88.7706 127.984 88.7706 127.734C88.7706 127.483 88.9741 127.282 89.2269 127.282H90.0407C91.2119 127.282 92.1651 128.225 92.1651 129.383V143.893C92.1651 145.052 91.2119 145.994 90.0407 145.994L90.0378 146Z" fill="#F25C00"/>
<path d="M31.8834 54.7446C21.5458 61.3125 24.8037 69.3665 24.8037 69.3665C27.0561 75.6873 44.9646 98.2627 44.9646 98.2627C55.1133 108.786 59.2024 79.8005 59.2024 79.8005C62.3499 60.5997 58.8246 23.572 58.8246 23.572C56.8425 12.1348 53.5148 15.3886 53.5148 15.3886L53.3957 15.3742C53.105 17.4955 52.9743 20.0968 53.1544 23.2184C53.2649 25.0695 53.3579 26.9206 53.4044 28.7746C53.5875 36.041 53.9391 52.3646 53.5555 57.4321C53.5555 57.4321 53.3492 64.1007 51.1462 66.1099C49.0304 68.0386 45.8452 73.3389 44.4531 75.4401C44.0869 75.992 43.4795 76.3455 42.8139 76.3829C41.6921 76.449 39.989 76.4663 39.2799 76.0466C38.7103 75.7103 33.4906 67.2079 33.2116 65.2878C33.1477 64.8423 33.3714 59.3867 32.177 54.6756L31.8776 54.7475L31.8834 54.7446Z" fill="#9E9E9E"/>
<path d="M73.4634 56.0754L73.4082 56.0811C74.2946 63.4999 74.7712 68.898 74.7712 68.898C78.7441 70.3668 80.2089 62.1691 80.2089 62.1691C83.2983 48.6049 82.5862 29.5449 82.5862 29.5449C83.1384 15.883 76.0035 14.7361 76.0035 14.7361L73.4605 56.0754H73.4634Z" fill="#9E9E9E"/>
<path d="M88.5877 73.0486L94.0283 49.5679C95.589 42.0341 90.3141 40.2922 90.3141 40.2922H90.253C90.0932 56.5325 88.5848 73.0458 88.5848 73.0458L88.5877 73.0486Z" fill="#9E9E9E"/>
<path d="M98.0331 66.9146C97.3617 72.7639 97.5129 78.5788 97.5129 78.5788C101.335 67.3974 98.0476 66.9146 98.0476 66.9146H98.036H98.0331Z" fill="#9E9E9E"/>
<path d="M97.5128 79.0301C97.4896 79.0301 97.4663 79.0301 97.4431 79.0243C97.2251 78.9927 97.0595 78.8088 97.0537 78.5874C97.0537 78.5299 96.9112 72.6748 97.5768 66.8629C98.0883 62.4018 98.9369 59.1135 100.099 57.0842C100.155 56.9922 104.877 48.6134 89.9972 31.6029C89.8316 31.4131 89.8519 31.1286 90.0437 30.9647C90.2355 30.8009 90.5233 30.821 90.6889 31.0107C106.063 48.5876 101.108 57.1819 100.89 57.5412C99.8233 59.401 99.027 62.4622 98.5271 66.6272C98.7364 66.7508 98.995 66.9635 99.2217 67.3314C99.9919 68.576 100.393 71.5596 97.943 78.7225C97.879 78.9094 97.7047 79.0301 97.5099 79.0301H97.5128ZM98.4051 67.7453C98.1057 70.6714 98.0011 73.54 97.9691 75.5866C99.3438 70.6542 98.9224 68.6593 98.4865 67.8804C98.4603 67.8315 98.4312 67.7855 98.4051 67.7453Z" fill="#F25C00"/>
<path d="M99.4833 96.0953C99.2363 96.0953 99.0329 95.8998 99.0271 95.6526C98.9021 90.1223 99.3903 84.3276 100.367 79.7602C102.349 70.4271 99.8612 65.9287 98.2046 64.0804C98.036 63.8936 98.0535 63.609 98.2424 63.4423C98.4313 63.2756 98.7219 63.2929 98.8876 63.4797C103.017 68.0844 102.148 75.7734 101.262 79.947C100.3 84.4512 99.8205 90.1654 99.9425 95.6325C99.9483 95.8826 99.7478 96.0895 99.495 96.0953H99.4833Z" fill="#F25C00"/>
<path d="M49.2192 101.013C47.737 101.013 46.1996 100.197 44.6331 98.5729C44.6215 98.5614 44.6128 98.5528 44.6041 98.5413C43.8717 97.6186 26.623 75.8366 24.3706 69.5187C24.3416 69.4497 23.522 67.3715 24.0131 64.4454C24.4636 61.7694 26.1522 57.8487 31.6334 54.365C31.8455 54.2299 32.1275 54.2902 32.2641 54.5001C32.4006 54.7099 32.3396 54.9887 32.1275 55.1238C28.0122 57.7395 25.5186 61.0105 24.9141 64.592C24.4636 67.2709 25.2163 69.1795 25.2251 69.1968C27.4077 75.3192 44.7261 97.2277 45.3074 97.9635C47.0483 99.7629 48.6874 100.43 50.1754 99.9583C56.0926 98.0728 58.7198 79.9182 58.746 79.7371C60.3677 69.8464 60.1759 55.1209 59.7341 44.5087C59.2633 33.2297 58.4118 24.0834 58.3682 23.6321C57.2406 17.1389 55.738 15.7305 54.9417 15.4689C54.3168 15.2648 53.8489 15.6931 53.8315 15.7132C53.6513 15.8828 53.3607 15.8799 53.1863 15.7017C53.0119 15.5235 53.0119 15.2418 53.1921 15.0665C53.227 15.032 54.0582 14.2358 55.212 14.6037C56.9848 15.1671 58.3508 18.1593 59.275 23.4942C59.275 23.5057 59.2779 23.5172 59.2808 23.5287C59.2895 23.6206 60.1672 32.9307 60.6525 44.4656C61.0972 55.1209 61.289 69.9153 59.6557 79.8722C59.5481 80.6339 56.9209 98.7626 50.4631 100.821C50.0533 100.95 49.6407 101.016 49.2222 101.016L49.2192 101.013Z" fill="#9E9E9E"/>
<path d="M89.2241 128.193H50.9456C50.7044 128.193 50.5067 128.01 50.4893 127.774C50.3265 125.451 47.6441 120.375 42.9301 113.488C41.0817 110.786 39.2478 108.386 37.3268 106.153C29.5583 97.1272 22.4292 82.7352 19.7235 76.9663C18.6918 74.7674 18.128 72.4248 18.0495 70.0017C17.7995 62.054 18.3488 51.8414 22.3798 48.3404C23.7807 47.1245 25.1146 47.1217 25.786 47.228C25.9662 47.2567 26.1435 47.2769 26.3178 47.2941C26.4254 47.3056 26.5329 47.3171 26.6404 47.3315C29.4799 47.6879 31.491 50.1225 32.6215 54.5692C33.6039 58.4553 33.6387 62.8847 33.6533 64.5548C33.6533 64.8681 33.6591 65.167 33.6649 65.2331C33.9177 66.9865 38.8351 75.0434 39.5326 75.6757C39.9947 75.9344 41.2067 76.0321 42.7848 75.9402C43.3021 75.9085 43.7816 75.6326 44.0693 75.1986C44.3309 74.8048 44.6564 74.296 45.0255 73.7183C46.6385 71.2003 49.0739 67.3918 50.8322 65.7879C52.8666 63.931 53.0904 57.4924 53.0933 57.4292C53.4769 52.3185 53.1137 35.7046 52.9393 28.7975C52.8899 26.7653 52.7794 24.7676 52.6893 23.2557C52.5237 20.3871 52.6051 17.7196 52.9335 15.3224C53.3404 12.3014 54.064 10.2319 54.6017 9.02753C55.337 7.36614 56.7959 6.16177 58.5019 5.80822C59.7487 5.5524 60.9112 5.76798 61.9545 6.45496C64.637 8.21983 66.0291 12.8045 66.7208 16.3399C67.3893 19.7576 68.017 22.5888 68.6942 25.2534C71.0076 34.3393 72.7775 47.0095 73.8528 56.038C74.6143 62.399 75.0764 67.3314 75.1897 68.5674C75.7012 68.6967 76.1778 68.6306 76.637 68.3719C78.8255 67.1359 79.7409 62.1489 79.7526 62.0972C82.7954 48.7256 82.1299 29.7575 82.1241 29.5678C82.1241 29.5563 82.1241 29.5448 82.1241 29.5333C82.6501 16.4894 75.9918 15.2017 75.9221 15.1902C75.6751 15.1471 75.5065 14.9143 75.5472 14.6699C75.5879 14.4256 75.8233 14.256 76.0703 14.2991C76.3784 14.348 83.5917 15.6673 83.0366 29.5535C83.0599 30.2347 83.6731 48.99 80.6477 62.2754C80.6128 62.4766 79.6508 67.7108 77.0904 69.1566C76.3144 69.5964 75.4774 69.6539 74.6026 69.3291C74.437 69.2687 74.3236 69.1193 74.3062 68.9439C74.3004 68.8893 73.8209 63.4654 72.9461 56.1386C71.8707 47.136 70.1066 34.506 67.8078 25.469C67.1248 22.7872 66.4941 19.9415 65.8228 16.5067C65.1631 13.1408 63.8669 8.7947 61.4489 7.20517C60.606 6.65042 59.7022 6.48083 58.6908 6.69066C57.2725 6.98384 56.0577 7.99275 55.4416 9.38682C54.9272 10.5394 54.2326 12.5228 53.8431 15.4374C53.5234 17.7771 53.445 20.3871 53.6048 23.1982C53.6949 24.7159 53.8054 26.7222 53.8548 28.7688C54.0291 35.6903 54.3924 52.3386 54.0059 57.4694C53.9972 57.731 53.7676 64.3334 51.4513 66.4461C49.7802 67.9695 47.3825 71.7177 45.7957 74.1954C45.4237 74.7789 45.0953 75.2906 44.8308 75.6901C44.3861 76.3598 43.6392 76.791 42.8342 76.837C40.948 76.9491 39.6722 76.814 39.0386 76.4346C38.4254 76.0724 35.8446 71.6746 35.7371 71.4877C34.6995 69.7171 32.9325 66.5639 32.7552 65.351C32.7407 65.2417 32.7378 65.0405 32.7349 64.5548C32.7233 62.9164 32.6884 58.5645 31.7322 54.7819C30.7034 50.7347 28.9509 48.5272 26.5242 48.2225C26.4225 48.211 26.3207 48.1995 26.219 48.188C26.0243 48.1679 25.8267 48.1478 25.6349 48.1133C25.1263 48.0328 24.1003 48.0386 22.9814 49.0101C20.9034 50.8152 18.5203 55.9172 18.9621 69.9643C19.0376 72.2638 19.5724 74.4915 20.5518 76.5783C23.2401 82.3155 30.3256 96.6213 38.0214 105.561C39.9657 107.82 41.817 110.246 43.6857 112.977C46.9378 117.734 50.8322 123.974 51.3525 127.288H88.7504C88.7417 125.707 89.1137 120.714 93.8015 117.248C93.8102 117.242 94.5513 116.676 95.461 115.092C95.5743 114.888 95.6964 114.67 95.8184 114.428C95.9318 114.204 96.205 114.115 96.4316 114.227C96.6583 114.339 96.7484 114.609 96.6351 114.833C96.5072 115.086 96.3793 115.319 96.2573 115.535C95.2372 117.314 94.3798 117.949 94.3449 117.975C89.2503 121.743 89.6746 127.644 89.6804 127.705C89.692 127.831 89.6484 127.955 89.5612 128.05C89.474 128.142 89.352 128.196 89.2241 128.196V128.193ZM39.5152 75.6556C39.5152 75.6556 39.5152 75.6556 39.5181 75.6556C39.5181 75.6556 39.5181 75.6556 39.5152 75.6556Z" fill="#F25C00"/>
<path d="M88.5877 73.4997C88.5645 73.4997 88.5412 73.4997 88.5151 73.494C88.2768 73.4566 88.1111 73.2439 88.1314 73.0053C88.146 72.8415 89.6398 56.3224 89.7967 40.2863C89.9014 29.7086 89.4131 21.7063 88.3465 16.5066C88.1111 15.3539 87.896 14.1381 87.7042 12.8906C86.5824 5.47471 83.1704 4.72162 81.2349 4.9372C81.2029 4.94008 81.1738 4.94008 81.1419 4.9372C81.0954 4.93145 79.9387 4.85959 78.782 5.94323C77.6543 7.00101 76.3378 9.38099 76.4598 14.7245C76.4598 14.736 76.4598 14.7503 76.4598 14.7618L73.9169 56.1011C73.9023 56.3512 73.6931 56.5409 73.4315 56.5265C73.1787 56.5122 72.9869 56.2966 73.0014 56.0465L75.5415 14.7273C75.4397 10.1571 76.3262 6.97226 78.1775 5.26201C79.5114 4.03752 80.8832 4.02315 81.1738 4.03465C83.493 3.7932 85.4286 4.85385 86.7684 7.10161C87.8582 8.92971 88.3698 11.1861 88.6081 12.7584C88.7941 13.9915 89.0091 15.193 89.2416 16.3312C90.3111 21.5396 90.8052 29.4901 90.7151 39.9672C91.183 40.1713 92.2089 40.7117 93.1128 41.8241C94.1997 43.1549 95.3187 45.5982 94.4758 49.6625L89.0324 73.1519C88.983 73.3589 88.797 73.5026 88.5877 73.5026V73.4997ZM90.7064 40.9647C90.5872 50.8324 89.9798 60.795 89.5323 66.9519L93.5836 49.4671C94.7577 43.7988 91.9387 41.6258 90.7064 40.9647Z" fill="#F25C00"/>
<path d="M97.1436 114.704C97.1175 114.704 97.0942 114.704 97.0681 114.704L73.7598 113.882C72.6641 113.842 71.7835 112.93 71.798 111.844L72.0218 95.6612C72.0305 95.1007 72.263 94.5862 72.6786 94.2068C73.0942 93.8274 73.6319 93.6434 74.1986 93.6808L99.4076 95.437C99.9656 95.4773 100.492 95.7446 100.843 96.1757C101.198 96.6069 101.355 97.1674 101.279 97.7193L99.1548 112.968C99.0153 113.971 98.1579 114.704 97.1407 114.704H97.1436ZM74.0533 94.5805C73.7714 94.5805 73.5069 94.6811 73.2977 94.8736C73.0681 95.0806 72.9402 95.3652 72.9373 95.6727L72.7135 111.855C72.7048 112.453 73.1901 112.956 73.7917 112.976L97.1 113.799C97.69 113.824 98.1695 113.408 98.248 112.844L100.372 97.5957C100.416 97.2881 100.329 96.9863 100.131 96.7477C99.9337 96.5063 99.6517 96.3626 99.3408 96.3424L74.1318 94.5862C74.1056 94.5862 74.0765 94.5862 74.0504 94.5862L74.0533 94.5805Z" fill="#F25C00"/>
<path d="M97.1436 114.853H97.0652L73.7539 114.029C72.5769 113.985 71.6324 113.005 71.6469 111.841L71.8707 95.6584C71.8794 95.0576 72.1293 94.5029 72.5769 94.0976C73.0245 93.6923 73.5999 93.4882 74.2102 93.5342L99.4192 95.2905C100.021 95.3336 100.582 95.621 100.962 96.0838C101.343 96.5466 101.512 97.1502 101.43 97.7394L99.3088 112.988C99.1577 114.069 98.248 114.853 97.1465 114.853H97.1436ZM74.0533 93.8245C73.5796 93.8245 73.1349 93.997 72.7803 94.316C72.3938 94.6667 72.1787 95.1439 72.1729 95.6613L71.9491 111.844C71.9346 112.847 72.7513 113.695 73.7656 113.73L97.1436 114.555C98.094 114.555 98.8787 113.879 99.0066 112.945L101.128 97.6963C101.198 97.1876 101.05 96.6673 100.724 96.2677C100.396 95.8682 99.9133 95.621 99.3931 95.5836L74.1841 93.8274C74.1376 93.8245 74.094 93.8217 74.0475 93.8217L74.0533 93.8245ZM97.1494 113.948C97.132 113.948 97.1117 113.948 97.0942 113.948L73.7859 113.126C73.1 113.103 72.5507 112.531 72.5624 111.853L72.7862 95.6699C72.792 95.3221 72.9373 95.0001 73.1959 94.7644C73.4517 94.5287 73.7917 94.408 74.1434 94.4368L99.3524 96.193C99.707 96.2189 100.024 96.3827 100.248 96.6529C100.471 96.926 100.567 97.268 100.521 97.6158L98.3991 112.867C98.312 113.494 97.7801 113.951 97.1494 113.951V113.948ZM74.0533 94.7271C73.8092 94.7271 73.5825 94.8133 73.3994 94.98C73.2017 95.1611 73.0884 95.4054 73.0855 95.6728L72.8617 111.856C72.853 112.373 73.2744 112.807 73.7946 112.827L97.1029 113.649C97.6086 113.669 98.0271 113.321 98.0969 112.821L100.218 97.5698C100.256 97.3054 100.181 97.0438 100.009 96.834C99.8377 96.627 99.5965 96.5006 99.3262 96.4833L74.1172 94.7271C74.094 94.7271 74.0707 94.7271 74.0475 94.7271H74.0533Z" fill="#F25C00"/>
</svg>
