<svg width="347" height="40" viewBox="0 0 347 40" fill="none" xmlns="http://www.w3.org/2000/svg">
<mask id="mask0_18_890" style="mask-type:luminance" maskUnits="userSpaceOnUse" x="0" y="0" width="347" height="40">
<path d="M346.698 0H0V40H346.698V0Z" fill="white"/>
</mask>
<g mask="url(#mask0_18_890)">
<path d="M178.829 0H217.049V7.65027H178.985C178.36 7.65027 177.798 7.77517 177.33 7.99375C176.862 8.21233 176.456 8.52459 176.143 8.8993C175.831 9.274 175.613 9.71116 175.456 10.1795C175.3 10.6479 175.238 11.1475 175.238 11.6471C175.238 12.1468 175.332 12.6464 175.488 13.1148C175.644 13.5831 175.894 14.0203 176.206 14.395C176.518 14.7697 176.924 15.082 177.392 15.3005C177.861 15.5191 178.392 15.644 179.016 15.644L205.121 15.6753C206.463 15.6753 207.681 15.8314 208.805 16.1436C209.929 16.4559 210.929 16.8931 211.803 17.4551C212.677 18.0172 213.458 18.6729 214.114 19.4223C214.769 20.1717 215.332 21.0148 215.769 21.9204C216.206 22.8259 216.549 23.7627 216.768 24.7619C216.986 25.7611 217.111 26.7603 217.111 27.7908C217.111 28.79 217.018 29.7892 216.799 30.7572C216.581 31.7564 216.237 32.6932 215.8 33.5987C215.363 34.5043 214.801 35.3474 214.145 36.0968C213.489 36.8774 212.709 37.5332 211.803 38.0952C210.897 38.6573 209.898 39.0945 208.805 39.4379C207.681 39.7502 206.463 39.9375 205.121 39.9375H166.869V32.2873H204.933C205.558 32.2873 206.12 32.1311 206.588 31.8501C207.057 31.5691 207.463 31.1944 207.775 30.7572C208.087 30.3201 208.337 29.8204 208.493 29.2896C208.649 28.7588 208.743 28.2592 208.743 27.7908C208.743 27.3536 208.649 26.9165 208.493 26.4793C208.337 26.0422 208.087 25.605 207.775 25.2615C207.463 24.8868 207.057 24.6058 206.588 24.356C206.12 24.1374 205.558 24.0125 204.933 24.0125L178.829 24.0437C177.236 24.0437 175.8 23.8251 174.52 23.3568C173.239 22.9196 172.115 22.2951 171.147 21.5144C170.179 20.7338 169.399 19.8595 168.743 18.829C168.118 17.7986 167.619 16.7057 167.307 15.5503C166.994 14.395 166.838 13.2084 166.838 11.9906C166.838 10.7728 166.994 9.58626 167.338 8.43091C167.65 7.27557 168.15 6.18267 168.774 5.15222C169.399 4.12178 170.211 3.21624 171.179 2.46682C172.146 1.68618 173.239 1.0929 174.52 0.624512C175.8 0.218579 177.236 0 178.829 0Z" fill="white"/>
</g>
<mask id="mask1_18_890" style="mask-type:luminance" maskUnits="userSpaceOnUse" x="0" y="0" width="347" height="40">
<path d="M346.698 0H0V40H346.698V0Z" fill="white"/>
</mask>
<g mask="url(#mask1_18_890)">
<path d="M232.444 0V27.4785C232.444 28.103 232.569 28.7276 232.85 29.2896C233.131 29.8517 233.506 30.3825 233.943 30.8509C234.38 31.2881 234.911 31.6628 235.504 31.9438C236.097 32.2248 236.691 32.3497 237.315 32.3497H261.047C261.671 32.3497 262.296 32.2248 262.858 31.9438C263.451 31.6628 263.951 31.2881 264.419 30.8509C264.856 30.4137 265.231 29.8829 265.512 29.2896C265.793 28.6963 265.918 28.103 265.918 27.4785V0H274.255V26.7603C274.255 28.6027 273.912 30.2888 273.225 31.8813C272.538 33.4426 271.57 34.8478 270.321 36.0656C269.727 36.6589 269.072 37.1897 268.353 37.6581C267.635 38.1577 266.917 38.5636 266.105 38.9071C265.324 39.2506 264.513 39.5316 263.638 39.719C262.795 39.9063 261.921 40 261.015 40H237.315C236.41 40 235.535 39.9063 234.692 39.719C233.849 39.5316 233.006 39.2506 232.225 38.9071C231.445 38.5636 230.695 38.1577 229.977 37.6581C229.259 37.1585 228.634 36.6276 228.01 36.0656C226.761 34.8478 225.793 33.4738 225.106 31.8813C224.419 30.3201 224.075 28.6027 224.075 26.7603V0H232.444Z" fill="white"/>
</g>
<mask id="mask2_18_890" style="mask-type:luminance" maskUnits="userSpaceOnUse" x="0" y="0" width="347" height="40">
<path d="M346.698 0H0V40H346.698V0Z" fill="white"/>
</mask>
<g mask="url(#mask2_18_890)">
<path d="M289.619 0H281.25V40H289.619V0Z" fill="white"/>
</g>
<mask id="mask3_18_890" style="mask-type:luminance" maskUnits="userSpaceOnUse" x="0" y="0" width="347" height="40">
<path d="M346.698 0H0V40H346.698V0Z" fill="white"/>
</mask>
<g mask="url(#mask3_18_890)">
<path d="M28.1343 0H31.8501V40H28.1343V21.4208H3.71585V40H0V0H3.71585V17.8298H28.1343V0Z" fill="white"/>
</g>
<mask id="mask4_18_890" style="mask-type:luminance" maskUnits="userSpaceOnUse" x="0" y="0" width="347" height="40">
<path d="M346.698 0H0V40H346.698V0Z" fill="white"/>
</mask>
<g mask="url(#mask4_18_890)">
<path d="M51.023 37.2843C47.9629 35.4732 45.5273 33.0063 43.7474 29.9462C41.9363 26.8861 41.062 23.545 41.062 19.9853C41.062 16.4255 41.9676 13.1156 43.7474 10.0555C45.5585 6.99541 47.9629 4.55982 51.023 2.74873C54.0831 0.937647 57.3618 0.0321045 60.8278 0.0321045C64.3563 0.0321045 67.635 0.937647 70.6327 2.74873C73.6615 4.55982 76.0659 6.99541 77.877 10.0555C79.6881 13.1156 80.5624 16.4255 80.5624 19.9853C80.5624 23.545 79.6569 26.8549 77.877 29.9462C76.0659 33.0376 73.6615 35.4732 70.6327 37.2843C67.6038 39.0953 64.3251 40.0009 60.8278 40.0009C57.3618 40.0009 54.0831 39.0953 51.023 37.2843ZM68.884 34.349C71.3508 32.819 73.3181 30.7893 74.7857 28.2288C76.2533 25.6683 76.9715 22.9205 76.9715 19.954C76.9715 17.0188 76.2533 14.3022 74.7857 11.7417C73.3181 9.18121 71.3508 7.15154 68.884 5.62149C66.4172 4.09143 63.7318 3.34202 60.8278 3.34202C57.9863 3.34202 55.3009 4.09143 52.8341 5.62149C50.3672 7.15154 48.3688 9.18121 46.9012 11.7417C45.4336 14.3022 44.6842 17.0188 44.6842 19.954C44.6842 22.9205 45.4336 25.6683 46.9012 28.2288C48.3688 30.7893 50.3672 32.819 52.8341 34.349C55.3009 35.8791 57.9863 36.6285 60.8278 36.6285C63.7318 36.6285 66.4172 35.8791 68.884 34.349Z" fill="white"/>
</g>
<mask id="mask5_18_890" style="mask-type:luminance" maskUnits="userSpaceOnUse" x="0" y="0" width="347" height="40">
<path d="M346.698 0H0V40H346.698V0Z" fill="white"/>
</mask>
<g mask="url(#mask5_18_890)">
<path d="M93.676 36.4403H115.94V40H89.9602V0H93.676V36.4403Z" fill="white"/>
</g>
<mask id="mask6_18_890" style="mask-type:luminance" maskUnits="userSpaceOnUse" x="0" y="0" width="347" height="40">
<path d="M346.698 0H0V40H346.698V0Z" fill="white"/>
</mask>
<g mask="url(#mask6_18_890)">
<path d="M130.272 37.2834C127.212 35.4723 124.777 33.0055 122.997 29.9454C121.186 26.8852 120.312 23.5441 120.312 19.9844C120.312 16.4247 121.217 13.1148 122.997 10.0546C124.808 6.99454 127.212 4.55894 130.272 2.74785C133.333 0.905543 136.611 0 140.109 0C143.637 0 146.916 0.905542 149.913 2.71663C152.942 4.52771 155.347 6.96331 157.158 10.0234C158.969 13.0835 159.843 16.3934 159.843 19.9532C159.843 23.5129 158.938 26.8228 157.158 29.9141C155.347 33.0055 152.942 35.4411 149.913 37.2521C146.885 39.0632 143.606 39.9688 140.109 39.9688C136.611 40 133.333 39.0945 130.272 37.2834ZM148.165 34.3482C150.632 32.8181 152.599 30.7884 154.066 28.2279C155.534 25.6674 156.252 22.9196 156.252 19.9532C156.252 17.018 155.534 14.3013 154.066 11.7408C152.599 9.18033 150.632 7.15066 148.165 5.62061C145.698 4.09055 143.013 3.34114 140.109 3.34114C137.267 3.34114 134.582 4.09055 132.115 5.62061C129.648 7.15066 127.65 9.18033 126.182 11.7408C124.714 14.3013 123.965 17.018 123.965 19.9532C123.965 22.9196 124.714 25.6674 126.182 28.2279C127.65 30.7884 129.648 32.8181 132.115 34.3482C134.582 35.8782 137.267 36.6276 140.109 36.6276C142.981 36.6276 145.667 35.8782 148.165 34.3482Z" fill="white"/>
</g>
<mask id="mask7_18_890" style="mask-type:luminance" maskUnits="userSpaceOnUse" x="0" y="0" width="347" height="40">
<path d="M346.698 0H0V40H346.698V0Z" fill="white"/>
</mask>
<g mask="url(#mask7_18_890)">
<path d="M296.488 0V7.65027H317.94H321.593H322.093H332.147H346.698V0H296.488Z" fill="white"/>
</g>
<mask id="mask8_18_890" style="mask-type:luminance" maskUnits="userSpaceOnUse" x="0" y="0" width="347" height="40">
<path d="M346.698 0H0V40H346.698V0Z" fill="white"/>
</mask>
<g mask="url(#mask8_18_890)">
<path d="M317.41 39.9998H325.778V13.0208L321.594 7.65002L317.41 13.0208V39.9998Z" fill="white"/>
</g>
</svg>
