<svg width="235" height="605" viewBox="0 0 235 605" fill="none" xmlns="http://www.w3.org/2000/svg">
<g clip-path="url(#clip0_208_10065)">
<path d="M199.866 82.4112L208.018 58.7695L208.325 57.8722L208.343 57.8231C208.343 57.8231 208.368 57.7862 208.38 57.7616L208.693 56.8889L209.134 55.6721L209.496 54.6704C209.84 55.7151 210.189 56.766 210.496 57.8108C213.416 67.5084 215.452 78.3675 216.9 91.9859C217.519 97.7872 218.684 103.607 219.813 109.242C220.825 114.288 221.868 119.499 222.524 124.711C223.18 129.916 223.236 135.152 223.205 139.128C223.205 139.798 223.193 140.468 223.18 141.138C223.18 141.162 223.18 141.193 223.18 141.217L222.653 140.806C222.616 140.781 222.573 140.757 222.536 140.732C222.536 140.732 222.536 140.744 222.536 140.75C222.493 140.726 222.463 140.689 222.42 140.664C222.26 140.554 222.113 140.437 221.966 140.314C221.899 140.259 221.819 140.21 221.751 140.154C221.751 140.154 221.751 140.142 221.751 140.136C221.684 140.081 221.61 140.025 221.549 139.964C221.549 139.964 221.537 139.964 221.537 139.958C221.506 139.939 221.469 139.927 221.445 139.902L221.113 139.614L220.991 139.503L211.68 131.311C209.797 129.658 208.552 127.39 208.171 124.932L199.468 87.3952L199.455 87.346C199.21 85.7052 199.345 84.0029 199.854 82.4112H199.866Z" fill="#F25C00"/>
<path d="M11.5497 139.122C11.5497 139.804 11.562 140.492 11.5743 141.174L12.2122 140.726L12.9911 140.185L13.629 139.749V139.607L23.0565 131.305C24.9396 129.664 26.197 127.378 26.5773 124.901L35.2748 87.3706C35.5324 85.7175 35.3914 83.9967 34.8884 82.4296L26.8287 59.046L26.4178 57.8661L26.4055 57.8292C26.3135 57.5956 26.1602 57.4297 25.97 57.3007L25.9332 57.2392L25.4364 56.2129L25.0254 55.3525C24.7678 56.133 24.5102 56.9565 24.2587 57.8169C21.4004 67.4407 19.2352 78.9451 17.8551 91.9982C17.2295 97.7872 16.0641 103.613 14.9355 109.249C13.9235 114.294 12.8869 119.505 12.2183 124.717C11.562 129.928 11.5129 135.152 11.5374 139.128L11.5497 139.122Z" fill="#F25C00"/>
<path d="M7.63652 194.726L7.9432 192.496C7.97387 192.256 8.01067 192.01 8.04134 191.771L8.59337 192.533L9.26194 193.454L9.81398 194.21L9.78944 194.37L12.4821 198.961C13.0771 199.969 13.347 201.118 13.2611 202.279L11.0714 234.254C10.9794 235.6 10.3844 236.835 9.39689 237.739L6.28711 240.597C6.28711 240.633 6.28711 240.664 6.28711 240.701L5.6676 241.23L4.91929 241.862L4.28139 242.403C4.24459 241.611 4.20165 240.818 4.17712 240.013C3.69256 225.147 5.45906 210.705 7.64265 194.726H7.63652Z" fill="#F25C00"/>
<path d="M228.48 240.597L225.37 237.739C224.383 236.836 223.788 235.594 223.696 234.254L221.506 202.286C221.426 201.118 221.696 199.975 222.285 198.967L224.622 194.979L224.873 194.555L226.818 192.471C226.818 192.471 226.818 192.49 226.818 192.502L227.124 194.733C229.302 210.711 231.068 225.147 230.59 240.019C230.565 240.744 230.529 241.463 230.498 242.176L228.48 240.621C228.48 240.621 228.48 240.609 228.48 240.603V240.597Z" fill="#F25C00"/>
<path d="M35.6124 37.9179C35.551 37.6721 35.3793 37.4816 35.1769 37.3402C35.1523 37.3279 35.1401 37.3034 35.1278 37.2911C34.8947 37.162 34.631 37.1251 34.3611 37.1866C38.0781 33.8127 43.2488 31.3975 48.3091 29.0254C50.5786 27.9745 52.7008 26.9728 54.6513 25.9219C59.2271 23.4207 63.2569 21.5463 67.164 19.7088C72.7518 17.1031 78.0268 14.651 83.4735 10.9453L83.4613 10.9576L83.449 10.9699C83.1914 11.1727 83.0503 11.4677 83.0503 11.7811C83.0503 11.8426 83.0626 11.9224 83.0748 11.9839C83.0748 12.0085 83.0748 12.0331 83.0871 12.0761V12.1007C83.1484 12.3219 83.2404 12.5247 83.3202 12.7275C83.3202 12.7275 83.3243 12.7357 83.3324 12.7521L83.3447 12.7767C83.4245 12.9795 83.4858 13.1884 83.5655 13.3666C78.3642 16.7651 73.3407 19.1311 68.0534 21.6078C64.1708 23.4145 60.1778 25.2889 55.6388 27.7533C53.6515 28.8287 51.4863 29.8427 49.1923 30.9243C44.3099 33.2105 39.3171 35.5458 35.8209 38.6922C35.7166 38.3174 35.6676 38.09 35.6308 37.9978C35.6308 37.9609 35.6185 37.9364 35.6185 37.9179H35.6124Z" fill="#9E9E9E"/>
<path d="M56.5159 113.71C56.6386 112.623 56.7122 111.541 56.7245 110.465C56.8349 101.075 54.9702 91.1993 51.1122 82.6448C43.6843 66.1933 37.0721 43.1415 35.8147 38.686C35.7105 38.3111 35.6614 38.0838 35.6246 37.9916C35.6246 37.9547 35.6123 37.9301 35.6123 37.9117C35.551 37.6659 35.3792 37.4753 35.1768 37.334C35.1523 37.3217 35.14 37.2971 35.1278 37.2848C34.8947 37.1558 34.6309 37.1189 34.361 37.1804C34.1157 37.4139 33.8765 37.6413 33.6311 37.8871C32.3001 39.2207 31.1838 40.6956 30.4048 42.3795L30.3558 42.4839C30.0613 43.1108 29.7669 43.756 29.4357 44.3706C28.5647 46.0237 26.9148 49.5328 25.0562 55.3465L25.4672 56.2068L25.964 57.2331L26.0008 57.2946C26.191 57.4236 26.3443 57.5896 26.4363 57.8231L26.4486 57.86C28.4972 51.0692 30.3435 47.1176 31.2758 45.3477C31.6193 44.6902 31.9321 44.0387 32.2265 43.3812L32.2879 43.2644C32.7724 42.2381 33.4042 41.2856 34.1464 40.4006C35.9926 46.8411 42.2183 67.9939 49.223 83.499C52.2714 90.2775 53.952 97.3878 54.1913 104.64L54.2035 105.027C54.7188 109.402 54.4366 113.778 53.3816 118.043C51.0263 127.654 46.9106 145.163 45.9231 154.535C45.4753 158.745 44.911 163.003 44.2179 167.201C43.0893 174.053 41.6663 183.376 41.3596 188.931C41.0529 194.143 40.5254 199.544 39.7219 205.426L31.3555 262.769C29.3805 261.381 25.2341 259.088 18.3521 258.074C16.3035 257.767 14.0095 257.589 11.4579 257.576C10.3661 257.589 9.23133 257.656 8.06593 257.767C7.72244 255.764 7.39736 253.828 7.17041 251.953C6.72265 248.346 6.4405 244.56 6.28716 240.695L5.67379 241.223L4.91935 241.862L4.28144 242.403C4.44705 245.753 4.71693 249.053 5.11562 252.211C5.3487 254.086 5.65539 256.022 5.99887 258.001C5.96207 258.013 5.90687 258.013 5.87007 258.025C5.84553 258.793 5.821 259.592 5.79033 260.385C5.44684 270.396 5.06042 281.704 0.15347 289.767C0.0123953 290 -0.0366742 290.295 0.0369301 290.559C0.0369301 290.596 0.0614648 290.652 0.0737322 290.688C0.239342 291.186 4.50839 303.225 24.9888 307.693C26.2584 307.976 27.5895 308.222 28.9327 308.424C28.945 308.437 28.9695 308.424 28.9818 308.424C29.1229 308.437 29.2517 308.424 29.3682 308.387C29.405 308.375 29.448 308.375 29.4848 308.363C29.6136 308.301 29.7301 308.222 29.8283 308.105C29.8528 308.08 29.8773 308.056 29.908 308.013C29.9325 307.976 29.9693 307.951 30 307.896C30.1165 307.705 32.7172 302.918 32.6375 297.27C32.6375 296.613 32.1652 296.305 31.2145 295.679C31.1102 295.617 31.0366 295.574 30.9937 295.55C30.3558 295.021 29.5829 294.64 28.8775 294.302L29.1229 279.928C29.356 279.823 29.5829 279.725 29.816 279.62C30.1349 279.491 30.368 279.196 30.4294 278.864L33.0423 264.926C33.0423 264.926 33.1711 264.582 33.1956 264.595L33.2202 264.441C33.2202 264.441 33.2325 264.404 33.2202 264.392L41.7889 205.708C42.5802 199.766 43.12 194.327 43.4266 189.048C43.7333 183.591 45.1441 174.342 46.2604 167.539C46.9658 163.304 47.5423 159.003 47.9901 154.756C48.7384 147.59 50.3393 140.486 51.8911 133.468C53.2957 127.132 55.7738 120.311 56.5098 113.716L56.5159 113.71ZM2.75415 291.549C8.94305 292.317 17.1009 294.499 23.0812 300.355C25.32 302.537 26.6449 304.669 27.3625 306.052C10.7218 302.986 4.68627 295.144 2.75415 291.549ZM28.4911 277.93C26.0438 279.024 23.762 280.395 23.1487 282.859C22.7622 284.402 22.5966 286.067 22.6641 287.966L22.6764 288.261C22.7132 289.619 22.7684 291.149 23.2161 292.483C23.7559 294.099 25.1789 294.794 26.3321 295.359C26.5529 295.463 26.7553 295.562 26.9577 295.679C27.2398 295.82 27.5343 295.961 27.8287 296.115C28.534 296.447 29.2149 296.772 29.724 297.178C29.7608 297.215 29.9019 297.307 30.0797 297.436C30.184 297.498 30.3864 297.627 30.5643 297.756C30.5152 300.552 29.7424 303.133 29.0922 304.842C28.2703 303.299 26.8657 301.13 24.584 298.899C20.9221 295.291 14.1812 290.787 2.72962 289.441C7.16428 281.071 7.5323 270.15 7.86352 260.483C7.87578 260.225 7.87578 259.986 7.88805 259.727C14.2548 259.371 19.9162 260.047 24.7066 261.768C28.117 262.985 30.0981 264.386 30.9078 265.043L28.485 277.93H28.4911ZM25.1728 283.375C25.504 282.017 26.8411 281.065 28.3378 280.321L28.0924 293.915C28.0434 293.89 27.9881 293.866 27.9391 293.835C27.706 293.718 27.4668 293.601 27.2337 293.491C26.2707 293.018 25.4427 292.618 25.1851 291.819C24.8293 290.781 24.7864 289.404 24.7496 288.212V287.905C24.6882 286.196 24.8293 284.721 25.1728 283.375Z" fill="#9E9E9E"/>
<path d="M29.27 307.748C29.3191 307.711 29.3743 307.668 29.4111 307.607C29.3988 307.632 29.3988 307.644 29.3866 307.656C29.362 307.693 29.3068 307.718 29.27 307.748Z" fill="#9E9E9E"/>
<path d="M28.1904 306.845C28.215 306.808 28.2702 306.716 28.3315 306.575C28.3806 306.691 28.4358 306.808 28.4726 306.894C28.3806 306.882 28.2947 306.87 28.1904 306.845Z" fill="#9E9E9E"/>
<path d="M10.004 192.784L9.8139 194.21L9.26186 193.454L8.59329 192.532L8.04126 191.777C9.52561 180.905 11.0406 169.69 11.5743 158.431C11.7951 153.963 11.7153 149.373 11.6233 144.905C11.6111 143.676 11.5865 142.428 11.5743 141.181L12.2122 140.732L12.9911 140.191L13.629 139.755C13.6413 141.426 13.6659 143.116 13.7088 144.763V144.893C13.7885 149.36 13.8744 153.994 13.6597 158.536C13.0954 170.126 11.5191 181.649 9.99791 192.791L10.004 192.784Z" fill="#9E9E9E"/>
<path d="M185.299 213.673L183.876 212.561C185.581 219.733 187.09 226.272 188.139 232.915C183.158 233.413 164.285 235.189 139.922 236.123C132.868 236.387 126.201 236.547 119.889 236.627C117.381 236.658 114.866 236.756 112.357 236.756C109.603 236.823 106.843 236.83 104.089 236.793C98.5685 236.719 93.0543 236.479 87.5401 236.233C86.7734 236.197 86.0067 236.166 85.2339 236.129C77.5484 235.785 69.869 235.275 62.2141 234.519C61.0917 234.408 47.0762 232.921 47.1007 232.663C47.1375 232.264 47.1805 231.839 47.2173 231.403C47.4504 229.578 47.7018 227.771 47.9963 225.958C48.1005 225.393 48.1987 224.827 48.3029 224.237C48.4563 223.365 48.6219 222.492 48.7998 221.619V221.583C49.0574 220.378 49.3273 219.155 49.6094 217.951C50.0326 216.193 50.4313 214.435 50.8239 212.69C49.9529 213.077 50.0388 213.219 49.3518 213.526C48.812 216.07 48.2784 218.596 47.8 221.011C47.7632 221.177 47.7386 221.343 47.6957 221.509C47.5301 222.369 47.3767 223.23 47.2234 224.102C47.1191 224.643 47.0333 225.178 46.9413 225.706C46.7511 226.874 45.8127 227.587 45.6716 228.65C45.6593 228.699 45.6593 228.754 45.647 228.816C45.5673 229.43 45.1993 230.758 45.1257 231.385C45.0459 232.067 44.9478 232.743 44.8803 233.425C44.819 233.978 45.2116 234.476 45.7513 234.556C58.0862 236.479 79.4559 238.765 111.21 238.765C120.38 238.765 130.077 238.575 140.008 238.188C168.1 237.125 189.237 234.888 189.458 234.863C189.727 234.838 189.997 234.685 190.163 234.464C190.341 234.23 190.451 233.941 190.365 233.671C188.433 227.071 186.918 220.562 185.293 213.655L185.299 213.673Z" fill="#9E9E9E"/>
<path d="M234.835 290.136C229.787 282.165 229.222 270.857 228.713 260.883C228.676 260.213 228.652 259.574 228.609 258.935C229.02 256.612 229.388 254.363 229.658 252.212C230.056 249.041 230.326 245.74 230.492 242.367V242.176L228.48 240.609C228.48 240.658 228.468 240.701 228.468 240.738C228.327 244.591 228.032 248.365 227.597 251.954C227.468 252.992 227.302 254.061 227.137 255.137C226.983 256.126 226.806 257.14 226.64 258.154H226.487C225.321 258.117 224.205 258.117 223.131 258.142C223.039 258.142 222.941 258.142 222.849 258.154C220.2 258.216 217.814 258.449 215.728 258.824C211.784 259.506 208.785 260.606 206.595 261.676C205.123 262.382 204.007 263.089 203.24 263.655L195.039 205.438C194.248 199.557 193.72 194.155 193.414 188.944C193.095 183.4 191.684 174.065 190.555 167.213C189.862 163.016 189.286 158.757 188.85 154.547C187.863 145.175 183.753 127.673 181.392 118.055C180.343 113.797 180.061 109.433 180.558 105.064L180.57 105.015L180.582 104.658C180.827 97.4065 182.502 90.2961 185.55 83.5176C192.481 68.1539 198.768 46.8843 200.615 40.4192C201.369 41.3165 202.013 42.269 202.498 43.3076C202.792 43.9467 203.136 44.6781 203.51 45.3848C205.147 48.5067 206.356 51.856 207.227 54.4187C207.626 55.574 207.981 56.7294 208.331 57.8724L208.343 57.8356C208.343 57.8356 208.368 57.7987 208.38 57.7741L208.699 56.9015L209.134 55.6846L209.49 54.6829C209.386 54.3757 209.3 54.0684 209.196 53.7611C208.3 51.1185 207.055 47.6648 205.338 44.4199C205.006 43.7624 204.681 43.0864 204.375 42.4288C203.583 40.7326 202.467 39.2577 201.136 37.9119C201.112 37.8504 201.099 37.7705 201.056 37.6906C200.915 37.4571 200.701 37.2789 200.431 37.2051H200.394C196.689 33.8312 191.506 31.4161 186.446 29.0439C184.189 27.993 182.066 26.9913 180.116 25.9404C175.571 23.4638 171.198 21.4112 166.959 19.42C160.617 16.4272 154.637 13.6187 149.129 9.86993C143.584 5.6111 142.467 3.09144 142.455 3.06686C142.455 3.05457 142.431 3.04228 142.418 3.0177C142.406 2.95624 142.394 2.90093 142.369 2.83948C141.437 0.479606 138.401 0.258368 136.579 0.129313L136.389 0.117022C129.715 -0.356182 123.336 1.06957 117.16 2.45231C106.003 -0.227126 99.7769 -0.0489069 97.6239 0.16004C96.8327 0.239932 96.0353 0.40586 95.1153 0.700844C94.3363 0.958955 93.6064 1.35841 92.9255 1.84391C92.441 2.20035 91.9932 2.6121 91.5945 3.07301C90.8033 4.00712 89.9814 4.93509 89.1472 5.79546C87.4052 7.62068 85.5099 9.33527 83.449 10.97C83.1914 11.1728 83.0503 11.4678 83.0503 11.7812C83.0503 11.8426 83.0626 11.9225 83.0748 11.984C83.0748 12.0086 83.0748 12.0331 83.0871 12.1007C83.1484 12.322 83.2404 12.5248 83.3447 12.7829C83.4245 12.9857 83.4858 13.1946 83.5655 13.3729C86.1662 19.1988 92.7906 19.377 93.5818 19.377H93.7474C93.8517 19.377 104.396 19.2603 115.332 19.1435C116.479 19.0636 117.601 19.0636 118.742 19.1435C118.883 19.1373 119.018 19.1189 119.159 19.0882C120.797 19.0759 122.41 19.0513 123.974 19.039C124.066 19.0513 124.14 19.0759 124.232 19.0759C124.336 19.0759 124.453 19.0636 124.539 19.0267C139.873 18.8239 140.345 18.744 140.554 18.7072C145.448 17.8591 148.46 16.2674 149.521 13.9997C149.699 13.6248 149.815 13.2438 149.877 12.8444C154.962 16.0769 160.384 18.6211 166.082 21.3006C170.296 23.2794 174.639 25.3197 179.122 27.7718C181.122 28.8472 183.287 29.8612 185.569 30.9306C190.463 33.2167 195.456 35.5643 198.94 38.7108C197.695 43.1786 191.089 66.2303 183.655 82.6695C180.49 89.6877 178.748 97.0685 178.49 104.591L178.478 104.898C178.362 105.9 178.3 106.914 178.257 107.915C178.233 107.823 178.214 107.731 178.19 107.645C178.196 107.823 178.196 107.995 178.208 108.173C178.987 123.777 185.133 139.055 186.771 154.775C187.219 159.021 187.795 163.323 188.501 167.557C189.617 174.36 191.009 183.616 191.334 189.067C191.641 194.339 192.181 199.784 192.972 205.727C192.972 205.727 201.504 265.781 201.504 265.793L201.529 265.873L204.375 279.774C204.454 280.106 204.681 280.389 205 280.518C205.46 280.708 205.92 280.905 206.368 281.12C206.331 281.182 206.276 281.237 206.288 281.311L206.479 294.751C206.479 294.843 206.528 294.917 206.583 294.984C206.503 295.021 206.429 295.064 206.35 295.101L206.301 295.126C205.534 295.513 204.749 295.906 204.062 296.484C204.05 296.484 203.982 296.533 203.896 296.588C202.946 297.246 202.473 297.565 202.473 298.217C202.498 303.865 205.19 308.603 205.289 308.806C205.313 308.842 205.35 308.867 205.393 308.91C205.405 308.935 205.405 308.959 205.417 308.971C205.43 308.984 205.454 308.984 205.454 308.996C205.571 309.113 205.687 309.187 205.828 309.242C205.853 309.254 205.89 309.266 205.933 309.266C206.061 309.303 206.19 309.316 206.319 309.303H206.38C207.736 309.07 209.085 308.806 210.38 308.492C218.359 306.605 224.763 303.41 229.4 299.01C233.589 295.046 234.804 291.451 234.933 291.051C234.945 291.039 234.957 290.971 234.969 290.947C235.031 290.676 234.982 290.381 234.828 290.154L234.835 290.136ZM147.62 13.1086C147.196 14.0181 145.657 15.6897 140.204 16.6361C140.002 16.6607 138.088 16.7406 125.692 16.9065C125.692 16.8942 125.704 16.8819 125.71 16.8697C125.035 16.9557 124.348 16.9864 123.655 16.9127C123.619 16.9127 123.582 16.925 123.551 16.9065C123.526 16.9065 123.508 16.9065 123.484 16.9065C123.484 16.925 123.471 16.9373 123.465 16.9557C119.227 17.0049 114.694 17.054 110.456 17.1032C109.977 17.1462 109.493 17.1646 109.008 17.1401L93.6922 17.2876C93.4101 17.2998 87.3746 17.5211 85.3014 12.1561C87.1967 10.6258 88.9877 8.98498 90.6438 7.25195C91.846 5.99212 92.8703 4.56022 94.2443 3.46632C94.7043 3.13446 95.2195 2.87635 95.7532 2.69813C96.5199 2.45231 97.1762 2.29867 97.8141 2.24951C99.8873 2.059 105.923 1.89307 116.914 4.53564C117.068 4.57251 117.233 4.57251 117.374 4.53564C123.508 3.14675 129.814 1.72714 136.229 2.18806L136.42 2.20035C137.499 2.27409 138.934 2.29253 139.848 2.9501C140.394 3.34341 140.455 3.85963 140.756 4.43731C142.167 7.1782 145.313 9.53808 147.693 11.3817C147.798 11.6644 147.988 12.3466 147.613 13.127L147.62 13.1086ZM206.16 305.708C205.466 304.012 204.663 301.449 204.559 298.647C204.737 298.518 204.945 298.377 205.031 298.327C205.221 298.198 205.35 298.094 205.405 298.057C205.902 297.633 206.583 297.301 207.239 296.963C207.558 296.81 207.852 296.656 208.135 296.502C208.337 296.385 208.546 296.281 208.76 296.17C209.901 295.593 211.312 294.874 211.833 293.245C212.256 291.912 212.269 290.369 212.293 289.023V288.728C212.318 286.829 212.14 285.158 211.717 283.634C211.06 281.169 208.76 279.836 206.301 278.797L203.663 265.947C204.454 265.277 206.429 263.839 209.809 262.573C214.587 260.766 220.224 259.992 226.591 260.238C226.603 260.496 226.615 260.735 226.628 260.994C227.112 270.66 227.664 281.581 232.252 289.871C225.695 290.756 216.943 293.208 210.564 299.692C208.306 301.978 206.951 304.16 206.16 305.714V305.708ZM207.067 281.464C208.337 282.146 209.398 282.994 209.717 284.174C210.073 285.508 210.232 286.995 210.202 288.691V288.999C210.189 290.203 210.165 291.567 209.846 292.618C209.588 293.411 208.773 293.835 207.822 294.314C207.632 294.419 207.448 294.505 207.257 294.609L207.067 281.464ZM207.902 306.888C208.595 305.487 209.889 303.33 212.079 301.111C215.421 297.737 221.61 293.46 232.265 291.961C230.381 295.593 224.475 303.551 207.902 306.888Z" fill="#9E9E9E"/>
<path d="M224.978 194.37L224.757 192.772C223.236 181.636 221.659 170.114 221.101 158.523C220.886 153.982 220.966 149.354 221.046 144.88C221.077 143.239 221.107 141.402 221.119 139.607L221.451 139.896C221.451 139.896 221.512 139.933 221.543 139.952C221.543 139.952 221.555 139.952 221.555 139.958C221.616 140.019 221.69 140.068 221.757 140.13C221.757 140.13 221.757 140.142 221.757 140.148C221.825 140.204 221.898 140.253 221.972 140.308C222.119 140.425 222.266 140.548 222.426 140.658C222.469 140.683 222.5 140.72 222.543 140.744C222.543 140.744 222.543 140.732 222.543 140.726C222.579 140.75 222.616 140.775 222.659 140.8L223.187 141.211C223.168 142.459 223.15 143.7 223.131 144.923C223.052 149.36 222.972 153.951 223.187 158.419C223.732 169.751 225.26 181.047 226.756 191.986C226.781 192.145 226.799 192.299 226.824 192.459L224.879 194.542L224.984 194.364L224.978 194.37Z" fill="#9E9E9E"/>
<path d="M42.8133 353.152L42.8378 353.317C42.9912 353.975 57.7856 418.994 54.2158 454.687C53.7803 456.881 43.2365 509.72 47.8613 527.831C48.3888 529.859 48.9777 532.287 49.4254 534.813C51.5415 547.042 58.2395 588.014 55.277 601.54C55.1359 602.167 55.4978 602.825 56.1111 603.04C56.3319 603.132 61.5026 604.988 72.5985 604.988C79.0941 604.988 86.3195 604.349 94.0971 603.101C94.7656 602.997 95.2379 602.407 95.2011 601.743C94.2688 584.904 95.2134 568.576 98.0165 553.188C98.8077 548.861 99.415 546.434 99.9363 544.307C100.593 541.609 101.114 539.495 101.654 534.966C103.629 518.22 101.985 500.631 100.899 488.992L100.771 487.621C100.396 483.233 100.734 474.605 104.475 458.393C106.015 451.744 107.076 445.033 107.628 438.433C108.358 429.78 109.217 417.907 109.217 410.44C109.732 399.507 110.725 387.978 112.173 376.209C112.811 371.09 113.645 365.94 114.455 360.95C115.326 355.561 116.221 350.005 116.878 344.499C117.301 340.891 117.687 337.106 117.841 333.283C117.865 339.625 118.828 346.004 119.773 352.217L119.951 353.422C120.362 356.12 120.809 358.836 121.232 361.466C122.091 366.702 122.962 372.006 123.588 377.254C124.986 388.765 125.931 399.931 126.422 410.434C126.422 417.415 127.188 428.403 127.845 436.386C128.458 443.957 129.648 451.67 131.378 459.309C134.911 474.918 135.223 483.27 134.862 487.547L134.733 488.906C133.365 503.446 131.672 521.557 134.812 540.423C135.34 543.582 135.696 544.965 136.143 546.722C136.518 548.185 136.935 549.801 137.567 552.843C140.836 568.76 141.793 585.175 140.437 601.626C140.376 602.309 140.86 602.923 141.541 603.04C149.306 604.287 156.532 604.914 163.04 604.914C174.044 604.914 179.294 603.052 179.527 602.978C180.128 602.745 180.49 602.106 180.349 601.467C177.405 587.94 184.103 546.968 186.219 534.739C186.654 532.238 187.243 529.81 187.771 527.77C192.371 509.8 181.852 456.74 181.404 454.497C177.84 418.804 192.653 353.895 192.794 353.244L192.831 353.078C198.48 297 188.771 235.201 188.679 234.586C188.617 234.242 188.433 233.929 188.151 233.726C187.869 233.523 187.525 233.443 187.176 233.492C186.832 233.554 186.519 233.738 186.317 234.021C186.115 234.304 186.023 234.66 186.084 235.01C186.188 235.613 195.83 296.877 190.224 352.77C189.881 354.258 185.127 375.306 181.705 399.796C178.313 409.487 176.055 417.87 175.007 424.685C174.786 426.086 174.596 427.506 174.405 428.87C173.749 433.645 173.074 438.549 171.498 443.066C168.437 451.897 163.248 455.222 160.414 456.427C158.611 457.195 156.507 457.699 154.471 458.184C149.785 459.29 144.951 460.446 142.621 464.871C141.572 466.862 141.351 469.093 141.253 471.225C141.1 474.974 141.265 478.759 141.443 482.428C141.56 485.046 141.688 487.744 141.688 490.374C141.688 497.19 140.842 504.097 140.038 510.771C139.216 517.55 138.37 524.543 138.37 531.488C138.37 538.432 139.535 544.092 140.891 550.828C143.16 562.043 145.951 575.969 144.068 600.766C143.762 600.729 143.467 600.686 143.148 600.637C144.393 584.339 143.381 568.09 140.137 552.327C139.499 549.181 139.075 547.54 138.689 546.089C138.253 544.381 137.91 543.047 137.395 540.005C134.322 521.458 135.996 503.556 137.346 489.151L137.487 487.763C137.861 483.319 137.548 474.673 133.935 458.719C132.242 451.221 131.065 443.638 130.464 436.171C129.807 428.237 129.041 417.317 129.041 410.372C128.556 399.747 127.593 388.5 126.195 376.935C125.557 371.631 124.686 366.309 123.852 361.147L123.815 360.956C123.392 358.351 122.956 355.671 122.545 353.035L122.367 351.843C121.214 344.32 120.036 336.546 120.576 329.061C120.822 325.829 121.153 317.778 119.08 312.941C119.067 312.905 119.043 312.892 119.018 312.849C118.969 312.745 118.902 312.646 118.828 312.554C118.804 312.542 118.804 312.53 118.779 312.505C118.626 312.352 118.448 312.21 118.202 312.149C117.871 312.044 117.522 312.087 117.215 312.265C116.908 312.431 116.687 312.714 116.589 313.058C115.166 318.202 115.166 323.235 115.295 328.354C115.436 333.683 114.896 339.109 114.295 344.191C113.657 349.649 112.756 355.167 111.885 360.502C111.063 365.596 110.235 370.771 109.591 375.878C108.131 387.751 107.131 399.353 106.616 410.378C106.616 417.821 105.745 429.62 105.027 438.218C104.488 444.701 103.451 451.283 101.942 457.803C98.1269 474.347 97.7895 483.27 98.176 487.836L98.3048 489.225C99.3966 500.766 101.022 518.183 99.0715 534.659C98.544 539.022 98.0472 541.075 97.4031 543.68C96.8879 545.745 96.2623 548.326 95.4587 552.727C92.6802 567.937 91.6926 584.081 92.5391 600.705C92.2324 600.741 91.9503 600.784 91.6558 600.821C89.7605 575.963 92.5636 562.006 94.8208 550.779C96.1764 544.043 97.3418 538.223 97.3418 531.439C97.3418 524.654 96.4953 517.476 95.6734 510.722C94.8638 504.036 94.0357 497.116 94.0357 490.325C94.0357 487.707 94.1523 485.022 94.2811 482.447C94.4467 478.71 94.6246 474.925 94.4589 471.176C94.3669 469.043 94.14 466.8 93.1034 464.821C90.7726 460.39 85.9454 459.235 81.2654 458.135C79.2167 457.65 77.1006 457.146 75.2973 456.377C72.4819 455.173 67.2806 451.836 64.2137 443.017C62.6374 438.488 61.9749 433.572 61.3064 428.821C61.1285 427.451 60.9322 426.037 60.7175 424.624C59.6687 417.796 57.3992 409.414 54.0073 399.722C53.9827 399.642 53.9153 399.581 53.8785 399.501C53.492 396.766 53.0688 393.933 52.6088 390.965C49.3273 369.941 45.5919 353.459 45.4201 352.77C39.863 297.424 48.7507 235.127 48.8427 234.494C48.8918 234.15 48.8059 233.8 48.5974 233.517C48.395 233.234 48.0821 233.056 47.7387 233.001C47.021 232.896 46.3524 233.388 46.2543 234.107C46.1623 234.734 37.1948 297.098 42.8317 353.139L42.8133 353.152ZM146.65 601.135C148.583 575.864 145.743 561.705 143.449 550.311C142.118 543.717 140.977 538.027 140.977 531.482C140.977 524.691 141.811 517.789 142.615 511.097C143.436 504.306 144.283 497.325 144.283 490.368C144.283 487.701 144.166 484.991 144.038 482.373C143.872 478.692 143.694 474.968 143.86 471.336C143.952 469.228 144.166 467.525 144.921 466.087C146.687 462.726 150.748 461.761 155.041 460.735C157.194 460.218 159.409 459.696 161.42 458.836C164.647 457.465 170.566 453.704 173.964 443.921C175.614 439.158 176.307 434.112 176.975 429.239C177.178 427.801 177.374 426.43 177.577 425.078C178.073 421.87 178.846 418.288 179.895 414.373C178.356 428.784 177.638 443.288 178.791 454.878C179.251 457.226 189.562 510.108 185.207 527.112C184.667 529.202 184.066 531.697 183.618 534.284C180.968 549.519 175.135 586.263 177.546 600.809C174.307 601.633 164.414 603.452 146.65 601.129V601.135ZM117.982 320.5C118.239 323.991 118.061 327.457 117.957 328.871C117.908 329.424 117.896 329.965 117.877 330.511C117.877 329.768 117.902 329.037 117.877 328.293C117.816 325.675 117.785 323.082 117.982 320.5ZM56.7981 455.087C57.5771 447.282 57.8347 434.309 55.6204 413.697C56.749 417.857 57.5832 421.655 58.1046 425.042C58.2947 426.314 58.4787 427.623 58.6566 428.907L58.6811 429.128C59.362 434.057 60.049 439.102 61.7173 443.89C65.1093 453.667 71.0283 457.428 74.2484 458.805C76.2726 459.665 78.4868 460.194 80.6275 460.692C84.9333 461.718 88.9816 462.683 90.7603 466.057C91.5148 467.495 91.7356 469.191 91.8215 471.305C91.9748 474.949 91.8092 478.686 91.6436 482.281C91.5148 484.948 91.386 487.658 91.386 490.344C91.386 497.3 92.2324 504.282 93.0543 511.048C93.8762 517.746 94.7043 524.654 94.7043 531.457C94.7043 537.99 93.5512 543.687 92.2324 550.275C89.9261 561.687 87.0801 575.883 89.0306 601.215C71.2 603.55 61.3064 601.731 58.0678 600.907C60.4783 586.367 54.6329 549.617 51.9954 534.382C51.5354 531.752 50.9343 529.275 50.4068 527.211C45.9353 509.757 56.6938 455.646 56.7981 455.105V455.087Z" fill="#9E9E9E"/>
<path d="M119.325 238.107H116.761V315.473H119.325V238.107Z" fill="#9E9E9E"/>
<path d="M55.3505 96.1279C56.2461 100.504 57.4053 104.916 58.031 109.427C59.6073 120.925 60.1839 132.54 60.7359 143.774L60.8095 145.212L60.1287 144.567L59.3068 143.78L58.6259 143.135C58.0862 132.177 57.5096 120.87 55.9639 109.709C55.3567 105.279 54.4366 100.78 53.5227 96.4045" fill="#9E9E9E"/>
<path d="M179.441 96.0977C178.546 100.473 177.19 104.916 176.564 109.421C174.988 120.919 174.412 132.534 173.86 143.768L173.786 145.206L174.467 144.561L175.289 143.774L175.969 143.129C176.509 132.172 177.086 120.864 178.632 109.704C179.239 105.273 180.159 100.774 181.073 96.3988" fill="#9E9E9E"/>
<path d="M94.5816 335.963L56.8594 316.113C53.9336 314.57 51.0079 315.971 50.4374 319.235C49.0942 326.91 45.1993 336.202 53.2283 365.768C56.3871 377.389 64.7044 386.915 75.8248 391.481L96.2131 399.845C98.9488 400.97 101.967 399.022 102.077 396.059L103.69 351.701C103.929 345.138 100.39 339.017 94.5877 335.963H94.5816Z" fill="#F25C00"/>
<path d="M140.498 335.963L178.221 316.113C181.146 314.57 184.072 315.971 184.643 319.235C185.986 326.91 189.881 336.202 181.852 365.768C178.693 377.389 170.376 386.915 159.255 391.481L138.867 399.845C136.131 400.97 133.113 399.022 133.003 396.059L131.39 351.701C131.151 345.138 134.69 339.017 140.492 335.963H140.498Z" fill="#F25C00"/>
<path d="M58.6749 545.918C56.663 538.107 54.8352 527.622 55.0805 515.233C55.24 506.98 56.2827 499.728 57.5585 493.73C57.5463 493.158 57.5892 491.708 58.5154 490.209C59.1533 489.17 60.0856 488.316 61.2326 487.775C63.9928 486.466 67.2927 487.283 69.1267 489.729C72.3223 493.994 74.1072 499.156 74.236 504.485L75.7265 565.657C75.7633 567.156 73.9416 567.925 72.8989 566.849L63.3058 556.986C60.4168 554.017 58.7607 550.06 58.6749 545.911V545.918Z" fill="#F25C00"/>
<path d="M176.767 545.918C178.779 538.107 180.606 527.622 180.361 515.233C180.202 506.98 179.159 499.728 177.883 493.73C177.895 493.158 177.852 491.708 176.926 490.209C176.288 489.17 175.356 488.316 174.209 487.775C171.449 486.466 168.149 487.283 166.315 489.729C163.119 493.994 161.334 499.156 161.206 504.485L159.715 565.657C159.678 567.156 161.5 567.925 162.543 566.849L172.136 556.986C175.025 554.017 176.681 550.06 176.767 545.911V545.918Z" fill="#F25C00"/>
<path d="M65.8867 39.1102L83.6928 30.2976C84.711 29.7937 85.8212 29.5233 86.9559 29.4987L110.663 29.0193C112.822 28.9763 114.594 30.7155 114.6 32.8787L114.729 94.1739C114.735 98.4082 110.012 100.928 106.51 98.5557L79.3011 80.1192C77.8167 79.1113 75.9153 78.9515 74.2837 79.7013L64.1325 84.3411C60.5258 85.9881 56.5144 83.0076 57.048 79.0683L61.6606 44.9976C62.0041 42.4534 63.5927 40.241 65.8928 39.1041L65.8867 39.1102Z" fill="#F25C00"/>
<path d="M63.7961 92.6087L68.5497 89.5974C69.8991 88.7432 71.6349 88.8108 72.9108 89.7633L108.535 116.287C109.51 117.012 110.087 118.162 110.093 119.379L110.24 174.657C110.247 177.484 107.321 179.365 104.763 178.179L85.583 169.286C84.2397 168.665 83.3748 167.326 83.3442 165.851L82.6511 127.466C82.6388 126.692 82.3873 125.936 81.9395 125.303L62.7104 98.1212C61.4346 96.3144 61.9253 93.8009 63.7961 92.621V92.6087Z" fill="#F25C00"/>
<path d="M114.197 192.723V222C114.197 224.133 112.467 225.866 110.339 225.866H81.6088C77.1987 225.866 75.0274 220.488 78.1985 217.416L86.2214 209.648C86.9758 208.916 87.399 207.915 87.399 206.87V186.405C87.399 183.769 89.9752 181.907 92.4716 182.737L111.553 189.06C113.136 189.583 114.197 191.064 114.197 192.729V192.723Z" fill="#F25C00"/>
<path d="M57.8101 128.644L69.0716 139.577C70.3474 140.837 71.0834 142.539 71.1202 144.327L72.4205 200.172C72.4635 202.12 71.6906 203.994 70.2799 205.334L45.6409 228.785C45.6409 228.785 55.5652 198.309 57.8162 128.644H57.8101Z" fill="#F25C00"/>
<path d="M169.811 39.1102L152.005 30.2976C150.987 29.7937 149.877 29.5233 148.742 29.4987L125.035 29.0193C122.876 28.9763 121.104 30.7155 121.098 32.8787L120.969 94.1739C120.963 98.4082 125.686 100.928 129.188 98.5557L156.397 80.1192C157.881 79.1113 159.783 78.9515 161.414 79.7013L171.566 84.3411C175.172 85.9881 179.184 83.0076 178.65 79.0683L174.037 44.9976C173.694 42.4534 172.105 40.241 169.805 39.1041L169.811 39.1102Z" fill="#F25C00"/>
<path d="M167.211 92.5272L162.457 89.5159C161.108 88.6616 159.372 88.7292 158.096 89.6818L122.472 116.206C121.496 116.931 120.92 118.08 120.914 119.297L120.766 174.576C120.76 177.403 123.686 179.283 126.244 178.097L145.424 169.205C146.767 168.584 147.632 167.244 147.663 165.769L148.356 127.384C148.368 126.61 148.619 125.854 149.067 125.221L168.296 98.0397C169.572 96.2329 169.081 93.7194 167.211 92.5395V92.5272Z" fill="#F25C00"/>
<path d="M121.294 192.723V222C121.294 224.133 123.023 225.866 125.152 225.866H153.882C158.292 225.866 160.463 220.488 157.292 217.416L149.269 209.648C148.515 208.916 148.092 207.915 148.092 206.87V186.405C148.092 183.769 145.516 181.907 143.019 182.737L123.937 189.06C122.355 189.583 121.294 191.064 121.294 192.729V192.723Z" fill="#F25C00"/>
<path d="M176.767 128.804L165.714 139.712C164.438 140.972 163.702 142.674 163.665 144.463L162.365 200.307C162.322 202.255 163.095 204.129 164.506 205.469L189.022 228.847C189.102 228.933 179.049 198.506 176.767 128.798V128.804Z" fill="#F25C00"/>
</g>
<defs>
<clipPath id="clip0_208_10065">
<rect width="235" height="605" fill="white"/>
</clipPath>
</defs>
</svg>
