<svg width="236" height="605" viewBox="0 0 236 605" fill="none" xmlns="http://www.w3.org/2000/svg">
<g clip-path="url(#clip0_204_9700)">
<path d="M35.2831 82.5014L27.0988 58.8289L26.7859 57.9342L26.7675 57.8851C26.7675 57.8851 26.743 57.8423 26.7307 57.8239L26.4178 56.9537L25.9761 55.7342L25.6141 54.7354C25.2644 55.7832 24.9208 56.8373 24.6079 57.879C21.6753 67.5858 19.6323 78.4569 18.1722 92.0917C17.5525 97.8949 16.3807 103.729 15.2457 109.367C14.2334 114.416 13.1782 119.637 12.5217 124.852C11.8653 130.061 11.81 135.3 11.8346 139.284C11.8346 139.951 11.8469 140.626 11.8591 141.3C11.8591 141.324 11.8591 141.355 11.8591 141.379L12.3868 140.963C12.4236 140.938 12.4665 140.914 12.5033 140.889C12.5033 140.889 12.5033 140.901 12.5033 140.907C12.5463 140.883 12.5769 140.846 12.6199 140.822C12.7794 140.711 12.9266 140.595 13.08 140.472C13.1475 140.417 13.2273 140.368 13.2947 140.313C13.2947 140.313 13.2947 140.301 13.2947 140.295C13.3622 140.239 13.4359 140.184 13.4972 140.123C13.4972 140.123 13.5095 140.123 13.5095 140.117C13.5402 140.099 13.577 140.086 13.6015 140.062L13.9328 139.768L14.0555 139.657L23.4054 131.458C25.2951 129.803 26.5466 127.536 26.927 125.073L35.6696 87.4896L35.6818 87.4405C35.9334 85.7982 35.7923 84.0946 35.2831 82.5014Z" fill="#F25C00"/>
<path d="M224.398 139.277C224.398 139.957 224.386 140.65 224.374 141.336L223.73 140.889L222.944 140.35L222.3 139.915V139.774L212.834 131.458C210.944 129.816 209.68 127.524 209.294 125.048L200.557 87.4772C200.3 85.8227 200.441 84.1007 200.944 82.5319L209.036 59.1229L209.447 57.9402L209.459 57.9035C209.551 57.6706 209.705 57.5051 209.895 57.3764L209.932 57.3152L210.435 56.2857L210.846 55.4277C211.104 56.2121 211.361 57.0333 211.619 57.8973C214.49 67.5367 216.662 79.0451 218.049 92.1161C218.68 97.9132 219.852 103.747 220.981 109.385C222 114.434 223.043 119.649 223.711 124.87C224.368 130.085 224.417 135.319 224.392 139.302L224.398 139.277Z" fill="#F25C00"/>
<path d="M228.325 194.95L228.018 192.72C227.988 192.481 227.951 192.236 227.92 191.997L227.368 192.756L226.693 193.682L226.141 194.442L226.165 194.601L223.46 199.197C222.865 200.208 222.595 201.354 222.675 202.518L224.871 234.531C224.963 235.873 225.564 237.117 226.552 238.018L229.675 240.88C229.675 240.916 229.675 240.947 229.675 240.984L230.301 241.511L231.055 242.148L231.699 242.687C231.736 241.891 231.779 241.1 231.804 240.298C232.288 225.413 230.515 210.957 228.325 194.963V194.95Z" fill="#F25C00"/>
<path d="M6.55238 240.867L9.67516 238.005C10.6691 237.098 11.2642 235.861 11.3562 234.512L13.5526 202.506C13.6385 201.341 13.3624 200.189 12.7673 199.184L10.4175 195.189L10.166 194.766L8.20887 192.683C8.20887 192.683 8.20887 192.701 8.20887 192.713L7.90211 194.944C5.71187 210.944 3.93882 225.394 4.42349 240.279C4.44803 241.002 4.48484 241.725 4.51552 242.442L6.54011 240.886C6.54011 240.886 6.54011 240.873 6.54011 240.867H6.55238Z" fill="#F25C00"/>
<path d="M200.238 37.9627C200.3 37.7176 200.471 37.5276 200.674 37.3866C200.698 37.3744 200.711 37.3499 200.723 37.3376C200.956 37.2089 201.226 37.1722 201.496 37.2334C197.766 33.8569 192.569 31.4364 187.49 29.0587C185.213 28.0047 183.078 26.9997 181.121 25.9518C176.526 23.4454 172.477 21.5703 168.55 19.7319C162.943 17.1213 157.642 14.6701 152.176 10.9565L152.188 10.9688L152.2 10.9811C152.458 11.1894 152.599 11.4836 152.599 11.79C152.599 11.8512 152.587 11.9309 152.575 11.9983C152.575 12.0228 152.575 12.0473 152.562 12.0902V12.1147C152.501 12.3353 152.409 12.5376 152.329 12.7459C152.329 12.7459 152.325 12.7541 152.317 12.7704L152.305 12.7949C152.225 13.0033 152.163 13.2055 152.084 13.3832C157.305 16.7904 162.348 19.1497 167.661 21.6315C171.557 23.4454 175.575 25.3206 180.127 27.7841C182.121 28.8626 184.293 29.8798 186.6 30.9584C191.502 33.2441 196.52 35.585 200.03 38.7348C200.134 38.361 200.183 38.1281 200.22 38.0423C200.22 38.0056 200.232 37.9811 200.232 37.9627H200.238Z" fill="#9E9E9E"/>
<path d="M235.847 290.094C230.92 282.023 230.534 270.705 230.184 260.679C230.159 259.882 230.135 259.086 230.104 258.314C230.067 258.301 230.012 258.301 229.975 258.289C230.325 256.31 230.632 254.367 230.865 252.492C231.264 249.33 231.534 246.027 231.699 242.675L231.055 242.136L230.294 241.492L229.675 240.965C229.521 244.832 229.239 248.625 228.785 252.235C228.552 254.11 228.233 256.052 227.883 258.056C226.711 257.94 225.57 257.879 224.472 257.866C221.914 257.879 219.607 258.056 217.552 258.369C210.644 259.386 206.478 261.684 204.496 263.069L196.097 205.656C195.287 199.773 194.76 194.362 194.453 189.147C194.146 183.583 192.717 174.256 191.582 167.392C190.888 163.189 190.324 158.924 189.87 154.707C188.882 145.325 184.747 127.799 182.385 118.178C181.33 113.913 181.048 109.532 181.563 105.15L181.575 104.764C181.821 97.5025 183.508 90.3879 186.569 83.598C193.606 68.0758 199.858 46.8974 201.711 40.4507C202.459 41.3393 203.085 42.2891 203.576 43.3186L203.637 43.435C203.932 44.0907 204.245 44.7464 204.588 45.4021C205.527 47.1731 207.38 51.1318 209.441 57.9278L209.453 57.891C209.545 57.6582 209.699 57.4927 209.889 57.364L209.926 57.3027L210.429 56.2732L210.84 55.4153C208.975 49.5937 207.312 46.0885 206.441 44.4278C206.104 43.8089 205.809 43.1715 205.515 42.5404L205.465 42.4362C204.68 40.751 203.564 39.2741 202.226 37.9382C201.981 37.6931 201.735 37.4602 201.49 37.2335C201.22 37.1722 200.95 37.209 200.717 37.3377C200.705 37.3499 200.692 37.3744 200.668 37.3867C200.459 37.5276 200.294 37.7237 200.232 37.9627C200.232 37.975 200.22 37.9995 200.22 38.0424C200.183 38.1343 200.128 38.3611 200.03 38.7349C198.772 43.1961 192.134 66.2741 184.667 82.7462C181.489 89.7751 179.741 97.1654 179.483 104.709V104.979C179.33 106.278 179.25 107.589 179.238 108.901C178.465 106.474 177.913 104.041 177.581 101.627C176.796 95.9092 177.465 92.9003 180.422 81.0917C182.416 73.113 179.035 69.4485 174.735 64.7973C173.409 63.3695 171.906 61.7394 170.397 59.8275C167.876 56.6041 165.121 53.4298 162.446 50.3291C160.618 48.221 158.728 46.0395 156.924 43.864C155.765 42.4484 153.967 41.6641 152.151 41.756L120.506 42.6323C120.236 42.6445 119.966 42.761 119.77 42.9509C119.58 43.1593 119.488 43.4289 119.488 43.7108C119.5 43.9927 119.629 44.2623 119.837 44.4584C120.046 44.6361 120.328 44.7403 120.574 44.7281L152.243 43.8395C153.415 43.7782 154.556 44.2746 155.317 45.1877C157.133 47.3999 159.035 49.5937 160.888 51.714C163.526 54.7719 166.262 57.9339 168.747 61.1082C170.305 63.0998 171.845 64.7605 173.213 66.2374C177.508 70.8885 180.109 73.689 178.385 80.5892C175.416 92.4591 174.667 95.8173 175.502 101.909C175.98 105.414 176.906 108.962 178.244 112.43L178.643 113.472L178.63 113.484C179.532 115.697 180.226 117.688 180.391 118.84C182.759 128.437 186.821 145.736 187.79 154.934C188.238 159.187 188.821 163.495 189.526 167.729C190.643 174.538 192.06 183.803 192.367 189.263C192.674 194.546 193.214 199.993 194.011 205.944L202.619 264.693L202.607 264.705L202.619 264.742L202.643 264.895C202.643 264.895 202.656 264.883 202.668 264.883L202.797 265.232L205.423 279.186C205.484 279.523 205.717 279.817 206.042 279.946C206.275 280.05 206.502 280.154 206.735 280.252L206.981 294.641C206.275 294.978 205.502 295.358 204.858 295.885C204.821 295.909 204.742 295.946 204.637 296.013C203.686 296.644 203.208 296.951 203.208 297.607C203.128 303.263 205.742 308.055 205.858 308.245C205.883 308.294 205.919 308.324 205.95 308.361C205.975 308.398 205.999 308.422 206.03 308.453C206.134 308.57 206.251 308.643 206.38 308.71C206.416 308.723 206.459 308.723 206.496 308.735C206.613 308.772 206.742 308.784 206.883 308.772C206.895 308.772 206.92 308.784 206.932 308.772C208.282 308.563 209.619 308.324 210.895 308.036C231.466 303.563 235.748 291.509 235.914 291.013C235.926 290.976 235.951 290.921 235.951 290.884C236.031 290.614 235.975 290.32 235.834 290.087L235.847 290.094ZM206.49 308.006C206.49 308.006 206.478 307.981 206.466 307.957C206.502 308.018 206.558 308.061 206.607 308.098C206.57 308.073 206.515 308.049 206.49 308.006ZM207.404 307.246C207.441 307.154 207.496 307.038 207.545 306.927C207.607 307.068 207.662 307.16 207.686 307.197C207.582 307.221 207.496 307.234 207.404 307.246ZM208.521 306.4C209.239 305.015 210.564 302.877 212.815 300.695C218.822 294.837 227.018 292.649 233.233 291.883C231.288 295.48 225.233 303.33 208.521 306.4ZM211.312 299.243C209.024 301.479 207.607 303.649 206.785 305.193C206.128 303.483 205.355 300.903 205.306 298.103C205.484 297.974 205.692 297.846 205.797 297.784C205.975 297.656 206.116 297.564 206.159 297.527C206.674 297.116 207.355 296.791 208.061 296.461C208.355 296.307 208.65 296.166 208.938 296.025C209.147 295.909 209.349 295.805 209.57 295.707C210.729 295.143 212.153 294.444 212.699 292.827C213.147 291.491 213.202 289.959 213.239 288.598L213.251 288.304C213.312 286.405 213.147 284.732 212.76 283.187C212.141 280.718 209.852 279.345 207.398 278.254L204.969 265.355C205.778 264.699 207.772 263.302 211.196 262.076C216.006 260.354 221.693 259.674 228.086 260.036C228.098 260.293 228.098 260.538 228.11 260.796C228.448 270.472 228.816 281.404 233.27 289.787C221.767 291.135 214.999 295.646 211.325 299.255L211.312 299.243ZM207.545 280.638C209.048 281.386 210.386 282.336 210.723 283.696C211.073 285.044 211.214 286.521 211.147 288.231V288.537C211.11 289.732 211.067 291.105 210.711 292.146C210.453 292.943 209.619 293.341 208.656 293.819C208.423 293.936 208.177 294.052 207.95 294.169C207.901 294.193 207.846 294.218 207.797 294.248L207.551 280.638H207.545Z" fill="#9E9E9E"/>
<path d="M225.957 193.001L226.147 194.429L226.699 193.669L227.368 192.744L227.92 191.984C226.429 181.101 224.908 169.868 224.368 158.599C224.147 154.125 224.227 149.529 224.319 145.056C224.331 143.824 224.355 142.574 224.368 141.33L223.723 140.883L222.938 140.343L222.294 139.908C222.282 141.581 222.257 143.272 222.214 144.921V145.05C222.134 149.523 222.049 154.162 222.263 158.709C222.828 170.309 224.411 181.848 225.944 193.007L225.957 193.001Z" fill="#9E9E9E"/>
<path d="M152.317 12.7645C152.317 12.7645 152.317 12.7523 152.329 12.74C152.409 12.5317 152.495 12.3294 152.562 12.1088V12.0843C152.574 12.0476 152.574 12.023 152.574 11.9924C152.587 11.9311 152.599 11.8515 152.599 11.7841C152.599 11.4777 152.458 11.1774 152.2 10.9752L152.188 10.9629L152.176 10.9506L152.151 10.9261C150.133 9.34511 148.225 7.62313 146.476 5.79699C145.642 4.93907 144.82 4.01374 144.022 3.07002C143.623 2.61042 143.175 2.19372 142.684 1.83829C142.684 1.83829 142.68 1.83421 142.672 1.82604H142.66C142.003 1.34805 141.273 0.949733 140.488 0.692356C139.562 0.398212 138.764 0.232755 137.967 0.153091C135.807 -0.055261 129.555 -0.232973 118.346 2.42658C112.144 1.04165 105.739 -0.386173 99.0392 0.0856833L98.849 0.0979393C97.0207 0.226627 93.9716 0.447236 93.0329 2.80652C93.0084 2.8678 92.9961 2.92295 92.9838 2.98423C92.9715 3.00874 92.947 3.021 92.947 3.03326C92.9347 3.05777 91.812 5.57638 86.2474 9.84147C80.7136 13.5918 74.7073 16.4046 68.339 19.4012C64.0812 21.3928 59.6946 23.4518 55.1301 25.9275C53.173 26.9815 51.0379 27.9865 48.7741 29.0344C43.6942 31.4121 38.4855 33.8265 34.7676 37.2092H34.7308C34.4608 37.2888 34.24 37.4665 34.0988 37.6994C34.062 37.7791 34.0498 37.8526 34.0191 37.92C32.6816 39.2682 31.5589 40.745 30.7613 42.4425C30.4546 43.0982 30.1294 43.7784 29.7981 44.4341C28.0741 47.6881 26.8287 51.1443 25.9269 53.7916C25.8226 54.098 25.7367 54.4105 25.6324 54.7169L25.9943 55.7219L26.4299 56.9414L26.749 57.8177C26.749 57.8177 26.7735 57.8544 26.7858 57.8789L26.798 57.9157C27.1477 56.7698 27.5036 55.6177 27.9024 54.4595C28.7797 51.8919 29.9883 48.5337 31.6325 45.4146C32.0068 44.7098 32.3503 43.9745 32.651 43.331C33.1418 42.2893 33.786 41.3394 34.5406 40.4386C36.3934 46.9159 42.7126 68.2046 49.6698 83.5859C52.7312 90.3696 54.4184 97.4904 54.6638 104.752L54.6761 105.114L54.6883 105.163C55.1914 109.532 54.9092 113.901 53.854 118.166C51.4858 127.793 47.3569 145.32 46.3691 154.695C45.9335 158.911 45.3507 163.177 44.6574 167.38C43.5224 174.244 42.1113 183.583 41.7862 189.135C41.4794 194.35 40.9518 199.761 40.1542 205.644L31.9209 263.927C31.1478 263.363 30.0313 262.653 28.5527 261.948C26.3502 260.882 23.344 259.778 19.3807 259.092C17.2825 258.718 14.8898 258.485 12.2271 258.424C12.1351 258.412 12.0369 258.412 11.9449 258.412C10.8651 258.387 9.74238 258.387 8.57671 258.424H8.42333C8.25768 257.407 8.07363 256.396 7.92025 255.403C7.7546 254.325 7.58282 253.258 7.46011 252.217C7.02452 248.619 6.7239 244.838 6.58279 240.984C6.58279 240.947 6.57052 240.904 6.57052 240.855L4.55206 242.424V242.614C4.71771 245.99 4.98766 249.293 5.38644 252.468C5.65639 254.625 6.03063 256.874 6.44168 259.202C6.40487 259.846 6.38033 260.489 6.33739 261.157C5.82203 271.14 5.2576 282.464 0.189987 290.443C0.0366084 290.676 -0.0186078 290.97 0.0488786 291.24C0.0611489 291.264 0.0734191 291.332 0.0856894 291.344C0.214527 291.742 1.43542 295.339 5.64412 299.31C10.3007 303.716 16.7303 306.915 24.7489 308.809C26.0496 309.115 27.3993 309.385 28.7613 309.618H28.8226C28.9515 309.63 29.0803 309.618 29.2091 309.581C29.246 309.581 29.2889 309.569 29.3134 309.556C29.4546 309.507 29.5711 309.428 29.6877 309.311C29.6877 309.299 29.7122 309.299 29.7245 309.287C29.7368 309.274 29.7368 309.25 29.749 309.225C29.7858 309.189 29.8288 309.164 29.8533 309.121C29.9576 308.913 32.6571 304.176 32.6816 298.52C32.6816 297.864 32.2031 297.545 31.2521 296.89C31.1601 296.841 31.0988 296.786 31.0865 296.786C30.3932 296.209 29.6079 295.811 28.8349 295.425L28.7858 295.401C28.7061 295.364 28.6324 295.321 28.5527 295.284C28.6018 295.223 28.657 295.143 28.657 295.051L28.8472 281.6C28.8594 281.521 28.8104 281.472 28.7674 281.41C29.2153 281.19 29.6816 281 30.1417 280.804C30.4607 280.675 30.6938 280.393 30.7736 280.056L33.6326 266.139L33.6571 266.06V266.047L42.2279 205.926C43.0255 199.975 43.5653 194.527 43.8721 189.245C44.1911 183.785 45.5961 174.519 46.7127 167.711C47.4182 163.471 48.001 159.169 48.4489 154.916C49.4121 145.663 53.5288 128.241 55.8847 118.669C55.989 118.283 56.0626 117.897 56.1424 117.511C56.1546 117.535 56.1546 117.56 56.1669 117.603C56.5043 115.574 57.0442 114.134 57.3387 113.466L57.3264 113.454L57.713 112.412C59.0627 108.944 59.9768 105.396 60.4676 101.89C61.302 95.7991 60.5597 92.447 57.5841 80.571C55.8601 73.6708 58.4614 70.8703 62.756 66.2192C64.118 64.7423 65.6518 63.0816 67.2101 61.09C69.7071 57.9157 72.4434 54.7537 75.106 51.6835C76.9466 49.551 78.8362 47.3633 80.6522 45.1694C81.4007 44.2686 82.5541 43.7539 83.7627 43.8213L116.003 44.7098C116.58 44.7221 117.058 44.2625 117.07 43.6803C117.083 43.1166 116.635 42.6263 116.052 42.6141L83.8363 41.7378C82.0081 41.6336 80.2105 42.418 79.0387 43.8458C77.2533 46.0029 75.3576 48.1906 73.5048 50.3231C70.8421 53.4055 68.0875 56.5798 65.5536 59.8031C64.0505 61.7151 62.5413 63.3513 61.2161 64.7913C56.9338 69.4302 53.5472 73.0948 55.5411 81.0735C58.4982 92.8821 59.167 95.891 58.3817 101.608C58.0872 103.741 57.6087 105.874 56.9767 108.006C56.9399 107.001 56.8724 105.99 56.7559 104.985L56.7436 104.679C56.4859 97.1472 54.7374 89.763 51.5594 82.7341C44.0991 66.2743 37.4609 43.1962 36.2093 38.7228C39.7064 35.573 44.7249 33.226 49.6391 30.9341C51.9275 29.8678 54.1055 28.8506 56.1117 27.772C60.6149 25.3147 64.9769 23.2741 69.2102 21.2947C74.9343 18.6107 80.3761 16.0675 85.4867 12.8258C85.548 13.2241 85.6646 13.6102 85.8487 13.984C86.9162 16.2575 89.9408 17.8508 94.855 18.7026C95.0636 18.7393 95.536 18.819 110.935 19.0212C111.027 19.058 111.144 19.0703 111.242 19.0703C111.334 19.0703 111.408 19.0457 111.5 19.0335C113.07 19.0457 114.69 19.0703 116.334 19.0825L116.782 28.2316C116.819 28.4768 117.015 28.6545 117.261 28.6545H117.647V234.482H116.064V236.896C109.592 236.817 102.739 236.651 95.4808 236.382C71.0139 235.444 52.0625 233.673 47.0562 233.171C48.1115 226.516 49.6269 220.933 51.3386 213.751L48.9949 213.304C47.363 220.216 45.8108 227.386 44.8169 233.937C44.7678 234.219 44.8415 234.5 45.0255 234.733C45.1912 234.954 45.4611 235.107 45.731 235.132C45.9519 235.156 67.1733 237.393 95.3888 238.459C105.358 238.845 115.095 239.035 124.31 239.035C156.2 239.035 177.661 236.749 190.048 234.819C190.588 234.739 190.986 234.243 190.925 233.685C190.864 233.005 190.759 232.325 190.68 231.645C190.6 231.014 190.538 230.401 190.459 229.782C190.446 229.721 190.446 229.665 190.434 229.616C190.293 228.55 190.115 227.416 189.919 226.252C189.827 225.725 189.741 225.186 189.637 224.647C189.483 223.77 189.33 222.912 189.158 222.048C189.121 221.883 189.097 221.711 189.054 221.546C188.575 219.131 188.035 216.601 187.495 214.057C186.802 213.751 185.821 213.31 184.949 212.924C185.348 214.67 185.747 216.429 186.17 218.194C186.453 219.401 186.722 220.62 186.98 221.828V221.864C187.158 222.741 187.33 223.611 187.483 224.487C187.587 225.076 187.692 225.645 187.79 226.209C188.084 228.023 188.342 229.831 188.575 231.657C188.612 232.092 188.655 232.515 188.692 232.913C174.888 234.985 152.746 237.105 120.42 236.921V234.47H118.905V28.6728H119.254C119.5 28.6728 119.702 28.4951 119.733 28.25L120.181 19.1499C131.169 19.2786 141.752 19.395 141.856 19.395H142.022C142.819 19.395 149.47 19.2173 152.084 13.3835C152.163 13.2058 152.225 12.9974 152.304 12.7952C152.304 12.7952 152.317 12.7829 152.317 12.7707V12.7645ZM2.7422 292.294C13.448 293.795 19.6568 298.079 23.0188 301.455C25.2213 303.68 26.5158 305.837 27.2152 307.24C10.5706 303.9 4.63795 295.934 2.74834 292.294H2.7422ZM28.8165 279.112C26.344 280.154 24.0311 281.49 23.3746 283.96C22.9513 285.492 22.7673 287.158 22.7979 289.058V289.352C22.8225 290.7 22.8347 292.245 23.2581 293.581C23.7857 295.211 25.2029 295.934 26.344 296.51C26.5649 296.626 26.7674 296.73 26.976 296.847C27.2582 297 27.5527 297.153 27.8778 297.306C28.5343 297.643 29.2153 297.974 29.7184 298.397C29.7674 298.434 29.8963 298.538 30.0926 298.667C30.1846 298.716 30.3871 298.857 30.5711 298.985C30.4668 301.786 29.657 304.354 28.9637 306.051C28.1662 304.495 26.8042 302.313 24.5403 300.027C18.1352 293.538 9.34973 291.086 2.76061 290.198C7.36809 281.894 7.92025 270.962 8.41106 261.286C8.42333 261.029 8.4356 260.783 8.44787 260.526C14.8407 260.281 20.5034 261.053 25.3011 262.867C28.6999 264.142 30.6754 265.576 31.473 266.244L28.8226 279.106L28.8165 279.112ZM28.0435 281.784L27.8533 294.941C27.6631 294.837 27.479 294.751 27.2889 294.647C26.3379 294.169 25.5158 293.746 25.2581 292.949C24.9391 291.895 24.9084 290.535 24.8962 289.328V289.021C24.8716 287.324 25.025 285.835 25.387 284.499C25.706 283.316 26.7735 282.47 28.0496 281.79L28.0435 281.784ZM95.1986 16.6558C89.7199 15.706 88.1739 14.033 87.7505 13.12C87.3763 12.3356 87.5726 11.6554 87.6708 11.3735C90.8856 8.89163 92.7016 6.96744 93.7016 5.68056C94.7937 6.58137 96.5422 6.77134 97.3398 6.79585C97.7631 6.82037 98.1987 6.82037 98.6527 6.82037C100.493 6.80811 102.088 6.80811 103.052 8.16853C103.499 8.79971 104.095 9.30221 104.776 9.87824C106.266 11.1406 108.248 12.8197 109.77 16.9193C97.3152 16.7539 95.4011 16.6742 95.1925 16.6497L95.1986 16.6558ZM117.647 28.2194C117.426 28.1949 117.248 28.0294 117.224 27.8211L117.132 26.0378C117.132 25.9581 117.181 25.9091 117.261 25.9091H117.647V28.2194ZM119.254 27.8211C119.218 27.9988 119.077 28.1275 118.905 28.1949V25.9091H119.242C119.304 25.9091 119.371 25.9704 119.371 26.0378L119.254 27.8211ZM125.543 17.1154C121.156 17.0664 116.42 17.0112 112.009 16.9622C110.273 11.7963 107.892 9.78019 106.131 8.29109C105.555 7.80085 105.064 7.37801 104.769 6.95518C103.162 4.71846 100.665 4.71846 98.6588 4.73071C98.2355 4.73071 97.8367 4.73071 97.4379 4.71846C96.1495 4.66943 95.1372 4.28337 94.9286 3.95859C94.9164 3.93407 94.8489 3.85441 94.9655 3.58478C95.4133 2.43884 97.7447 2.27338 98.9901 2.18146L99.1803 2.16921C105.628 1.70961 111.954 3.1313 118.119 4.52236C118.261 4.55913 118.426 4.55913 118.58 4.52236C129.617 1.87506 135.678 2.04052 137.758 2.23661C138.402 2.28564 139.059 2.44497 139.832 2.68396C140.372 2.86167 140.887 3.11905 141.347 3.45609L141.359 3.46834C141.666 3.71346 141.899 4.11179 141.85 4.34465C141.642 5.23321 140.887 5.47833 138.598 5.39867C138.445 5.39867 138.304 5.38641 138.175 5.38641C135.488 5.32513 133.095 6.67329 130.856 9.51056C129.868 10.7545 128.899 12.2069 127.96 13.6225C127.175 14.8052 126.365 16.0124 125.543 17.1154ZM141.905 17.2931C141.801 17.2931 135.782 17.2319 128.101 17.1522C128.641 16.3555 129.181 15.5589 129.709 14.7623C130.66 13.3344 131.562 11.9863 132.5 10.7913C134.285 8.51783 136.126 7.42704 138.12 7.47606L138.531 7.48832C139.973 7.52509 142.531 7.60475 143.562 5.68668C144.022 6.20144 144.488 6.7407 144.967 7.2432C146.623 8.97742 148.427 10.6197 150.329 12.1517C148.243 17.5199 142.188 17.3054 141.905 17.2931Z" fill="#9E9E9E"/>
<path d="M10.0677 194.595L10.2885 192.995C11.8162 181.842 13.399 170.315 13.9573 158.709C14.1782 154.162 14.0923 149.529 14.0125 145.05C13.9819 143.407 13.9512 141.569 13.9389 139.773L13.6076 140.068C13.6076 140.068 13.5463 140.104 13.5156 140.123C13.5156 140.123 13.5033 140.123 13.5033 140.129C13.442 140.19 13.3684 140.239 13.3009 140.3C13.3009 140.3 13.3009 140.313 13.3009 140.319C13.2334 140.374 13.1598 140.423 13.0861 140.478C12.9389 140.595 12.7916 140.717 12.626 140.827C12.5831 140.858 12.5524 140.889 12.5094 140.913C12.5094 140.913 12.5094 140.901 12.5094 140.895C12.4726 140.919 12.4358 140.944 12.3929 140.968L11.8652 141.385C11.8837 142.635 11.9021 143.879 11.9205 145.099C12.0002 149.541 12.08 154.137 11.8652 158.611C11.3192 169.954 9.78544 181.266 8.28233 192.217C8.25779 192.376 8.23938 192.536 8.21484 192.689L10.1719 194.772L10.0677 194.595Z" fill="#9E9E9E"/>
<path d="M189.471 233.698C189.367 232.981 188.698 232.49 187.98 232.595C187.631 232.644 187.324 232.827 187.121 233.109C186.913 233.391 186.827 233.74 186.876 234.084C186.968 234.715 195.895 297.086 190.312 352.495C190.146 353.188 186.385 369.69 183.097 390.734C182.637 393.7 182.207 396.543 181.821 399.276C181.784 399.356 181.716 399.417 181.692 399.497C178.281 409.198 176.005 417.587 174.949 424.426C174.729 425.841 174.538 427.251 174.36 428.63C173.692 433.385 173.023 438.306 171.44 442.84C168.366 451.671 163.145 455.011 160.311 456.218C158.495 456.99 156.372 457.492 154.317 457.977C149.624 459.08 144.771 460.238 142.427 464.668C141.384 466.648 141.151 468.897 141.065 471.029C140.899 474.78 141.077 478.573 141.243 482.311C141.372 484.891 141.488 487.581 141.488 490.198C141.488 496.994 140.654 503.918 139.844 510.616C139.022 517.375 138.169 524.367 138.169 531.353C138.169 538.339 139.341 543.971 140.703 550.718C142.967 561.963 145.783 575.929 143.881 600.82C143.587 600.784 143.304 600.741 142.992 600.704C143.838 584.067 142.85 567.901 140.059 552.673C139.249 548.267 138.617 545.681 138.102 543.616C137.458 541.005 136.955 538.952 136.427 534.583C134.47 518.086 136.108 500.646 137.2 489.095L137.329 487.71C137.715 483.138 137.378 474.204 133.55 457.64C132.034 451.113 130.991 444.519 130.451 438.03C129.734 429.42 128.856 417.611 128.856 410.16C128.341 399.123 127.341 387.504 125.875 375.622C125.23 370.505 124.396 365.327 123.574 360.229C122.697 354.885 121.801 349.358 121.157 343.898C120.549 338.811 120.009 333.376 120.15 328.038C120.279 322.909 120.279 317.872 118.85 312.724C118.745 312.375 118.531 312.093 118.218 311.928C117.911 311.75 117.561 311.707 117.23 311.811C116.985 311.873 116.807 312.02 116.653 312.173C116.629 312.197 116.629 312.21 116.604 312.222C116.525 312.314 116.463 312.412 116.414 312.516C116.39 312.553 116.365 312.565 116.353 312.608C114.267 317.455 114.604 325.507 114.85 328.749C115.39 336.238 114.205 344.026 113.046 351.558L112.868 352.753C112.457 355.388 112.021 358.072 111.592 360.682L111.555 360.872C110.721 366.038 109.843 371.369 109.199 376.676C107.794 388.252 106.831 399.509 106.34 410.147C106.34 417.097 105.567 428.035 104.911 435.977C104.303 443.453 103.125 451.052 101.426 458.553C97.8002 474.522 97.4873 483.187 97.8615 487.63L98.0026 489.015C99.3524 503.434 101.04 521.359 97.9535 539.926C97.4382 542.972 97.0946 544.308 96.6529 546.018C96.2664 547.47 95.8431 549.112 95.1989 552.262C91.9411 568.042 90.9288 584.312 92.1742 600.631C91.8552 600.68 91.5546 600.722 91.2478 600.759C89.3582 575.935 92.162 561.993 94.4381 550.761C95.8001 544.014 96.9719 538.204 96.9719 531.396C96.9719 524.588 96.1253 517.443 95.297 510.659C94.4872 503.98 93.6344 497.067 93.6344 490.241C93.6344 487.606 93.7632 484.909 93.8798 482.286C94.0577 478.61 94.2295 474.822 94.07 471.066C93.9657 468.933 93.751 466.697 92.6957 464.705C90.3521 460.275 85.5054 459.116 80.7936 458.013C78.7506 457.523 76.6401 457.027 74.8241 456.255C71.9835 455.047 66.7687 451.72 63.695 442.877C62.1121 438.355 61.4311 433.446 60.7747 428.666C60.5845 427.306 60.3881 425.878 60.1673 424.475C59.112 417.654 56.8482 409.259 53.437 399.558C50.0014 375.04 45.2282 353.966 44.8847 352.477C39.2526 296.516 48.94 235.187 49.0382 234.58C49.0995 234.231 49.0136 233.875 48.805 233.593C48.5964 233.311 48.2897 233.134 47.9461 233.066C47.5964 233.017 47.2528 233.091 46.9706 233.299C46.6884 233.508 46.5105 233.814 46.443 234.157C46.351 234.776 36.6023 296.644 42.2772 352.783L42.3141 352.949C42.4552 353.604 57.3267 418.586 53.7499 454.318C53.3021 456.567 42.7374 509.685 47.3571 527.677C47.8848 529.717 48.4737 532.15 48.9155 534.656C51.0382 546.9 57.7684 587.915 54.8052 601.464C54.6641 602.107 55.026 602.751 55.6273 602.978C55.8604 603.057 61.1305 604.92 72.186 604.92C78.7199 604.92 85.9778 604.289 93.7755 603.045C94.4565 602.929 94.9473 602.31 94.8798 601.629C93.5178 585.157 94.4811 568.722 97.7634 552.789C98.3953 549.744 98.8186 548.126 99.1928 546.661C99.6407 544.902 100.003 543.511 100.53 540.349C103.684 521.463 101.984 503.33 100.61 488.77L100.481 487.409C100.119 483.132 100.432 474.767 103.978 459.141C105.714 451.493 106.911 443.772 107.53 436.192C108.187 428.201 108.96 417.201 108.96 410.209C109.451 399.699 110.402 388.516 111.801 376.995C112.432 371.737 113.304 366.43 114.169 361.191C114.592 358.556 115.046 355.835 115.457 353.132L115.635 351.925C116.586 345.705 117.549 339.32 117.58 332.971C117.733 336.801 118.12 340.588 118.543 344.204C119.199 349.719 120.101 355.277 120.973 360.676C121.782 365.677 122.617 370.83 123.261 375.953C124.715 387.737 125.715 399.276 126.23 410.221C126.23 417.697 127.089 429.586 127.825 438.244C128.378 444.85 129.445 451.567 130.991 458.228C134.746 474.455 135.083 483.089 134.709 487.489L134.58 488.862C133.488 500.517 131.838 518.123 133.819 534.889C134.359 539.424 134.887 541.544 135.543 544.247C136.071 546.379 136.678 548.806 137.476 553.138C140.292 568.544 141.243 584.888 140.304 601.746C140.268 602.414 140.74 603.002 141.409 603.106C149.219 604.35 156.47 604.994 162.998 604.994C174.14 604.994 179.336 603.131 179.557 603.039C180.177 602.818 180.532 602.163 180.391 601.537C177.422 587.995 184.146 546.98 186.269 534.73C186.717 532.199 187.312 529.772 187.839 527.738C192.484 509.605 181.894 456.708 181.459 454.508C177.87 418.776 192.729 353.678 192.882 353.022L192.907 352.857C198.57 296.755 189.563 234.316 189.471 233.691V233.698ZM57.5967 600.814C60.0139 586.254 54.161 549.468 51.4983 534.215C51.0505 531.617 50.4431 529.129 49.9032 527.033C45.5289 510.009 55.885 457.07 56.3512 454.716C57.5108 443.116 56.7868 428.593 55.2469 414.161C56.3021 418.083 57.0752 421.668 57.5783 424.879C57.7868 426.227 57.977 427.606 58.1856 429.04C58.8544 433.924 59.5476 438.974 61.2102 443.741C64.6214 453.534 70.5602 457.296 73.8057 458.675C75.8241 459.533 78.0512 460.06 80.2107 460.575C84.5176 461.604 88.5975 462.566 90.3767 465.931C91.1374 467.371 91.3521 469.081 91.4442 471.189C91.6098 474.822 91.4319 478.554 91.2662 482.237C91.1374 484.86 91.0208 487.569 91.0208 490.241C91.0208 497.202 91.8675 504.194 92.6957 510.99C93.5056 517.682 94.3399 524.6 94.3399 531.396C94.3399 538.192 93.1927 543.64 91.8552 550.246C89.5545 561.656 86.6956 575.83 88.6404 601.133C70.7995 603.462 60.8667 601.636 57.6089 600.814H57.5967ZM117.518 327.977C117.494 328.725 117.518 329.454 117.518 330.201C117.506 329.65 117.494 329.111 117.439 328.559C117.334 327.144 117.156 323.675 117.414 320.182C117.604 322.762 117.58 325.36 117.518 327.983V327.977ZM185.275 527.107C184.747 529.178 184.14 531.654 183.68 534.289C181.029 549.541 175.164 586.328 177.581 600.888C174.33 601.709 164.397 603.535 146.489 601.194C148.446 575.83 145.587 561.62 143.274 550.197C141.949 543.603 140.789 537.898 140.789 531.359C140.789 524.821 141.623 517.639 142.445 510.929C143.268 504.157 144.12 497.165 144.12 490.204C144.12 487.52 143.992 484.805 143.863 482.133C143.697 478.536 143.525 474.798 143.685 471.146C143.777 469.025 143.992 467.328 144.752 465.888C146.538 462.511 150.605 461.543 154.93 460.52C157.078 460.017 159.305 459.49 161.336 458.632C164.563 457.26 170.508 453.491 173.919 443.698C175.594 438.906 176.287 433.857 176.968 428.924L176.992 428.703C177.17 427.416 177.354 426.105 177.545 424.836C178.072 421.441 178.907 417.642 180.042 413.475C177.815 434.114 178.072 447.099 178.857 454.913C178.962 455.452 189.766 509.623 185.275 527.101V527.107Z" fill="#9E9E9E"/>
<path d="M183.385 324.747C183.391 325.826 182.784 326.813 181.815 327.29L137.758 348.953C135.862 349.884 133.654 348.475 133.709 346.373L134.341 317.97C134.359 317.087 134.795 316.26 135.519 315.745L178.624 284.897C180.471 283.567 183.054 284.879 183.072 287.158L183.391 324.747H183.385Z" fill="#4A4A4A"/>
<path d="M136.513 349.633C135.918 349.633 135.323 349.462 134.795 349.131C133.844 348.524 133.298 347.495 133.323 346.373L133.954 317.97C133.979 316.971 134.476 316.027 135.292 315.445L178.391 284.603C179.361 283.904 180.631 283.806 181.698 284.352C182.766 284.891 183.434 285.975 183.447 287.17L183.766 324.76C183.772 325.979 183.072 327.113 181.98 327.652L137.924 349.315C137.476 349.535 136.991 349.645 136.513 349.645V349.633ZM180.244 284.75C179.753 284.75 179.262 284.903 178.833 285.209L135.728 316.058C135.108 316.499 134.728 317.216 134.709 317.982L134.077 346.385C134.059 347.237 134.476 348.022 135.194 348.487C135.918 348.947 136.807 348.996 137.574 348.622L181.631 326.96C182.459 326.549 182.993 325.685 182.986 324.76L182.667 287.17C182.661 286.245 182.164 285.442 181.336 285.026C180.98 284.848 180.606 284.756 180.232 284.756L180.244 284.75Z" fill="#4A4A4A"/>
<path d="M53.0994 325.452C53.0933 326.53 53.7006 327.517 54.67 327.995L98.7263 349.658C100.622 350.589 102.831 349.18 102.776 347.078L102.144 318.674C102.125 317.792 101.69 316.965 100.966 316.45L57.8603 285.601C56.0136 284.272 53.4307 285.583 53.4123 287.863L53.0933 325.452H53.0994Z" fill="#4A4A4A"/>
<path d="M98.5607 350.001L54.5044 328.338C53.4123 327.799 52.7129 326.666 52.719 325.446L53.0381 287.857C53.0503 286.662 53.7191 285.577 54.7866 285.038C55.8541 284.499 57.1179 284.597 58.0934 285.289L101.193 316.131C102.009 316.714 102.506 317.657 102.53 318.656L103.162 347.059C103.187 348.181 102.641 349.217 101.69 349.817C101.162 350.154 100.567 350.32 99.9718 350.32C99.4933 350.32 99.0086 350.209 98.5607 349.989V350.001ZM55.1363 285.718C54.308 286.135 53.8111 286.938 53.8049 287.863L53.4859 325.452C53.4798 326.377 54.0135 327.242 54.8418 327.652L98.8981 349.315C99.665 349.695 100.561 349.646 101.279 349.18C102.003 348.72 102.42 347.936 102.395 347.078L101.763 318.675C101.745 317.915 101.364 317.198 100.745 316.75L57.6394 285.902C57.2099 285.596 56.7253 285.442 56.2283 285.442C55.8541 285.442 55.4798 285.534 55.124 285.712L55.1363 285.718Z" fill="#4A4A4A"/>
<path d="M56.9096 491.577L54.0751 514.41C54.0506 514.624 54.0567 514.838 54.0997 515.053L62.6152 557.747C62.7441 558.384 63.1735 558.93 63.7871 559.236L75.6217 565.119C77.223 565.915 79.1555 564.739 79.0267 563.041L74.0634 496.197C74.002 495.37 73.4376 494.659 72.6155 494.359L60.0569 489.799C58.6458 489.285 57.0814 490.173 56.9034 491.583L56.9096 491.577Z" fill="#4A4A4A"/>
<path d="M76.9222 565.756C76.413 565.799 75.8977 565.701 75.4191 565.462L63.5845 559.579C62.8605 559.218 62.3513 558.574 62.2041 557.82L53.6885 515.127C53.6394 514.875 53.6272 514.618 53.6578 514.367L56.4923 491.534C56.5904 490.737 57.069 490.045 57.8052 489.628C58.5414 489.211 59.4187 489.138 60.2163 489.426L72.7749 493.985C73.7442 494.334 74.413 495.192 74.4866 496.16L79.4499 563.005C79.5174 563.948 79.0511 564.819 78.2045 565.339C77.8057 565.578 77.3701 565.719 76.9284 565.756H76.9222ZM57.3266 491.62L54.4922 514.453C54.4677 514.63 54.4799 514.802 54.5106 514.98L63.0262 557.673C63.1305 558.2 63.4802 558.642 63.9833 558.893L75.8179 564.776C76.4314 565.082 77.1554 565.051 77.7444 564.69C78.3333 564.328 78.6585 563.728 78.6094 563.072L73.6461 496.228C73.597 495.554 73.1307 494.965 72.462 494.72L59.9034 490.161C59.3512 489.959 58.7439 490.014 58.2346 490.302C57.7254 490.59 57.3941 491.074 57.3266 491.626V491.62Z" fill="#4A4A4A"/>
<path d="M177.183 491.577L180.017 514.41C180.042 514.624 180.035 514.838 179.992 515.053L171.477 557.747C171.348 558.384 170.919 558.93 170.305 559.236L158.47 565.119C156.869 565.915 154.937 564.739 155.065 563.041L160.029 496.197C160.09 495.37 160.655 494.659 161.477 494.359L174.035 489.799C175.446 489.285 177.011 490.173 177.189 491.583L177.183 491.577Z" fill="#4A4A4A"/>
<path d="M155.894 565.339C155.041 564.819 154.575 563.948 154.648 563.005L159.612 496.16C159.685 495.192 160.354 494.34 161.323 493.985L173.882 489.426C174.679 489.138 175.557 489.211 176.293 489.628C177.029 490.045 177.508 490.743 177.606 491.534L180.44 514.367C180.471 514.618 180.465 514.875 180.41 515.127L171.894 557.82C171.741 558.58 171.238 559.218 170.514 559.579L158.679 565.462C158.207 565.701 157.685 565.793 157.176 565.756C156.734 565.719 156.292 565.585 155.9 565.339H155.894ZM176.765 491.62C176.698 491.068 176.367 490.584 175.857 490.296C175.348 490.008 174.741 489.959 174.189 490.155L161.63 494.714C160.961 494.959 160.495 495.548 160.446 496.222L155.483 563.066C155.433 563.716 155.759 564.322 156.348 564.684C156.937 565.045 157.654 565.076 158.274 564.77L170.109 558.887C170.612 558.635 170.961 558.194 171.066 557.667L179.581 514.973C179.618 514.802 179.624 514.624 179.6 514.446L176.765 491.613V491.62Z" fill="#4A4A4A"/>
<path d="M69.3331 126.5L56.3573 116.61C56.161 117.407 55.7868 119.22 55.3266 120.893C55.2223 121.279 55.1487 121.457 55.2101 121.855C56.1671 127.941 56.3328 138.187 56.3573 138.861C56.8604 156.638 54.9585 169.059 53.4186 184.888C52.5597 193.694 48.5534 215.498 48.3203 216.239L55.5475 210.436C56.7807 209.437 57.6887 208.107 58.1611 206.594C60.3697 199.516 65.8238 178.368 67.7441 170.873C68.1981 169.102 68.4926 167.307 68.6215 165.481C69.1736 157.833 70.7381 136.373 71.1921 130.851C71.327 129.185 70.6338 127.554 69.3393 126.5H69.3331Z" fill="#4A4A4A"/>
<path d="M167.096 126.5L180.072 116.61C180.268 117.407 180.643 119.22 181.103 120.893C181.207 121.279 181.281 121.457 181.219 121.855C180.262 127.941 180.097 138.187 180.072 138.861C179.569 156.638 181.471 169.059 183.011 184.888C183.87 193.694 187.876 215.498 188.109 216.239L180.882 210.436C179.649 209.437 178.741 208.107 178.268 206.594C176.06 199.516 170.606 178.368 168.685 170.873C168.231 169.102 167.937 167.307 167.808 165.481C167.256 157.833 165.691 136.373 165.237 130.851C165.102 129.185 165.796 127.554 167.09 126.5H167.096Z" fill="#4A4A4A"/>
<path d="M60.7867 341.33L98.4564 362.447C101.26 364.016 102.904 367.061 102.677 370.266L100.002 408.426C99.8246 410.987 97.3582 412.746 94.8735 412.096L71.3514 406.109C66.5292 404.841 62.9033 400.851 62.0996 395.931L58.1057 380.09C55.8111 369.868 53.1669 363.084 54.1362 351.895L55.0627 344.327C55.3265 341.563 58.3511 339.976 60.7745 341.336L60.7867 341.33Z" fill="#4A4A4A"/>
<path d="M175.397 340.876L137.727 361.993C134.924 363.562 133.279 366.608 133.506 369.813L136.181 407.972C136.359 410.533 138.826 412.292 141.31 411.643L164.832 405.656C169.655 404.387 173.28 400.398 174.084 395.477L178.078 379.636C180.373 369.415 183.017 362.631 182.048 351.441L181.121 343.873C180.857 341.109 177.833 339.522 175.409 340.883L175.397 340.876Z" fill="#4A4A4A"/>
<path d="M86.953 49.6059L109.322 49.9246C111.432 49.9552 113.126 51.6711 113.126 53.7791V93.8501C113.126 95.9704 111.414 97.6924 109.291 97.7047L95.5177 97.7966C93.487 97.8088 91.5053 97.1715 89.8672 95.9766L65.1059 77.948C63.3083 76.6427 62.9892 74.0934 64.4003 72.3837L80.8854 52.4064C82.3762 50.5986 84.6094 49.5691 86.953 49.5998V49.6059Z" fill="#4A4A4A"/>
<path d="M96.9901 115.96L109.383 119.318C111.064 119.772 112.23 121.297 112.23 123.032L112.316 207.371C112.316 210.319 109.144 212.176 106.567 210.736L82.3517 197.187C80.9406 196.396 80.1737 194.815 80.4253 193.222L92.1618 119.073C92.5176 116.806 94.7692 115.353 96.984 115.954L96.9901 115.96Z" fill="#4A4A4A"/>
<path d="M149.672 49.6059L127.304 49.9246C125.193 49.9552 123.5 51.6711 123.5 53.7791V93.8501C123.5 95.9704 125.212 97.6924 127.334 97.7047L141.108 97.7966C143.139 97.8088 145.12 97.1715 146.758 95.9766L171.52 77.948C173.317 76.6427 173.636 74.0934 172.225 72.3837L155.74 52.4064C154.249 50.5986 152.016 49.5691 149.672 49.5998V49.6059Z" fill="#4A4A4A"/>
<path d="M139.635 115.96L127.242 119.318C125.561 119.772 124.396 121.297 124.396 123.032L124.31 207.371C124.31 210.319 127.482 212.176 130.058 210.736L154.274 197.187C155.685 196.396 156.452 194.815 156.2 193.222L144.464 119.073C144.108 116.806 141.856 115.353 139.642 115.954L139.635 115.96Z" fill="#4A4A4A"/>
</g>
<defs>
<clipPath id="clip0_204_9700">
<rect width="236" height="605" fill="white"/>
</clipPath>
</defs>
</svg>
